<svg id="svg" version="1.1" xmlns="http://www.w3.org/2000/svg" xmlns:xlink="http://www.w3.org/1999/xlink" width="400" height="400" viewBox="0, 0, 400,400"><g id="svgg"><path id="path0" d="M246.833 80.696 C 239.740 81.004,207.456 82.214,194.167 82.669 C 180.590 83.134,173.360 85.217,165.863 90.825 C 163.369 92.691,100.470 155.111,98.173 158.000 C 94.432 162.706,91.974 167.869,76.828 202.833 C 76.034 204.667,74.234 208.792,72.828 212.000 C 71.421 215.208,69.849 218.808,69.334 220.000 C 68.818 221.192,67.768 223.592,67.000 225.333 C 66.232 227.075,65.182 229.475,64.667 230.667 C 64.152 231.858,63.102 234.258,62.333 236.000 C 61.565 237.742,60.517 240.142,60.005 241.333 C 59.493 242.525,57.695 246.650,56.010 250.500 C 54.324 254.350,51.768 260.200,50.328 263.500 C 48.889 266.800,46.445 272.386,44.898 275.913 L 42.085 282.327 44.694 286.987 C 58.789 312.165,79.132 333.921,103.120 349.473 C 108.974 353.269,115.708 357.094,115.989 356.784 C 116.129 356.628,118.229 346.975,120.653 335.333 C 123.078 323.692,126.913 305.317,129.175 294.500 C 131.437 283.683,134.646 268.308,136.306 260.333 C 137.966 252.358,139.490 245.233,139.692 244.500 C 140.783 240.545,145.573 236.015,150.164 234.598 C 150.715 234.428,156.867 233.795,163.833 233.192 C 176.098 232.131,176.570 232.064,178.705 231.089 C 181.419 229.850,181.442 229.813,180.621 227.985 C 176.725 219.316,176.927 208.322,181.143 199.500 C 183.226 195.143,187.104 189.788,187.616 190.563 C 187.745 190.757,192.905 189.078,200.333 186.424 C 207.655 183.807,215.388 181.288,219.000 180.342 C 224.969 178.778,235.584 176.053,254.056 171.340 C 259.763 169.884,263.563 168.735,264.674 168.131 C 272.356 163.950,272.181 152.337,264.376 148.355 C 261.325 146.799,262.310 146.757,224.987 150.008 C 179.517 153.968,174.766 154.311,173.076 153.748 C 169.107 152.424,168.507 147.219,172.101 145.282 C 172.431 145.104,175.881 144.594,179.767 144.149 C 183.654 143.704,187.309 143.259,187.890 143.160 C 188.630 143.034,189.908 142.069,192.168 139.931 C 200.324 132.212,205.460 122.948,207.333 112.580 C 208.247 107.518,209.178 106.296,212.156 106.251 C 217.062 106.176,217.704 110.322,214.477 121.250 C 214.193 122.211,214.264 122.211,227.900 121.213 L 238.300 120.453 241.907 116.976 C 252.129 107.123,264.476 102.392,279.083 102.730 C 282.337 102.806,285.000 102.839,285.000 102.804 C 285.000 102.318,263.507 83.231,262.031 82.407 C 259.938 81.238,256.344 80.316,254.167 80.390 C 253.433 80.415,250.133 80.553,246.833 80.696 M273.667 107.201 C 252.434 109.781,234.601 125.364,232.114 143.509 L 231.897 145.094 233.032 144.901 C 237.762 144.097,259.920 142.575,261.917 142.917 C 274.193 145.020,279.133 160.516,270.346 169.357 C 267.832 171.885,265.315 173.019,258.078 174.880 L 251.990 176.446 252.623 177.140 C 255.258 180.029,254.970 184.394,251.935 187.542 L 250.609 188.917 252.555 190.089 C 268.293 199.568,287.758 199.611,302.472 190.199 L 304.422 188.952 303.229 187.726 C 295.991 180.286,306.104 169.791,313.681 176.879 C 315.508 178.588,315.409 178.642,317.744 174.667 C 333.627 147.624,317.564 113.873,285.937 107.838 C 283.174 107.311,275.879 106.932,273.667 107.201 M245.324 179.575 C 244.871 179.891,242.850 181.759,240.833 183.727 L 237.167 187.304 239.227 189.375 L 241.286 191.446 243.893 189.084 C 249.027 184.431,249.818 183.479,249.818 181.960 C 249.818 179.542,247.293 178.202,245.324 179.575 M306.359 179.863 C 304.300 181.595,304.717 182.617,309.350 187.196 C 311.558 189.380,313.493 191.167,313.649 191.167 C 313.933 191.167,318.124 187.293,317.928 187.211 C 317.871 187.187,315.937 185.329,313.632 183.083 C 308.948 178.520,308.297 178.232,306.359 179.863 M335.211 184.163 C 310.957 189.211,301.563 217.878,318.500 235.156 C 337.146 254.179,369.710 243.504,372.623 217.413 C 374.882 197.174,355.492 179.941,335.211 184.163 M217.500 185.301 C 215.667 185.802,211.617 187.124,208.500 188.240 C 205.383 189.355,199.727 191.369,195.930 192.714 L 189.027 195.161 187.328 197.738 C 173.897 218.095,188.923 244.741,213.833 244.741 C 236.941 244.741,252.063 221.459,242.167 201.116 C 238.427 193.426,230.338 186.629,222.833 184.869 C 222.283 184.741,221.608 184.580,221.333 184.513 C 221.058 184.446,219.333 184.801,217.500 185.301 " stroke="none" fill="#fbfbfb" fill-rule="evenodd"></path><path id="path1" d="M192.833 3.555 C 78.927 7.980,-7.391 107.533,4.511 220.753 C 14.509 315.861,91.637 390.037,187.104 396.357 C 305.660 404.206,404.206 305.660,396.357 187.104 C 389.336 81.040,298.851 -0.564,192.833 3.555 M258.689 80.871 C 262.163 81.901,263.566 82.952,273.187 91.735 C 278.468 96.556,283.399 101.048,284.145 101.717 C 285.879 103.274,285.875 103.276,281.333 102.883 C 266.929 101.640,251.976 107.139,241.445 117.555 L 238.357 120.609 226.289 121.471 C 219.652 121.945,214.180 122.291,214.128 122.240 C 214.077 122.188,214.388 120.931,214.820 119.446 C 217.111 111.567,216.918 108.161,214.106 106.827 C 210.652 105.188,208.594 106.963,207.486 112.536 C 205.423 122.912,201.014 131.272,193.712 138.650 C 188.923 143.488,189.733 143.145,180.667 144.178 C 172.011 145.165,171.169 145.435,170.166 147.549 C 169.083 149.831,170.046 152.145,172.573 153.333 L 174.106 154.053 183.303 153.372 C 188.361 152.998,207.200 151.400,225.167 149.821 C 243.552 148.206,258.783 147.013,260.005 147.092 C 269.591 147.714,274.107 159.528,267.344 166.291 C 265.004 168.631,264.203 168.911,248.161 173.004 C 240.098 175.061,229.150 177.860,223.833 179.224 C 218.509 180.591,211.397 182.686,208.000 183.889 C 204.608 185.091,198.689 187.186,194.846 188.545 C 191.003 189.905,187.671 190.945,187.442 190.857 C 186.081 190.335,180.340 200.417,179.010 205.667 C 177.263 212.562,178.023 222.468,180.704 227.737 C 182.461 231.189,179.414 232.207,164.000 233.315 C 148.385 234.438,145.584 235.396,141.768 240.924 C 139.874 243.668,140.397 241.476,131.652 283.333 C 127.228 304.508,123.044 324.533,122.354 327.833 C 121.665 331.133,120.004 339.083,118.663 345.500 C 117.322 351.917,116.195 357.209,116.157 357.261 C 115.923 357.584,104.239 350.529,98.667 346.699 C 76.186 331.250,52.466 304.470,42.494 283.279 L 41.970 282.167 47.674 269.167 C 50.811 262.017,54.256 254.142,55.329 251.667 C 56.403 249.192,58.436 244.542,59.847 241.333 C 61.258 238.125,63.423 233.175,64.659 230.333 C 67.571 223.636,72.265 212.904,74.499 207.833 C 75.468 205.633,77.860 200.158,79.813 195.667 C 81.767 191.175,83.602 186.989,83.890 186.364 C 84.178 185.739,84.831 184.239,85.340 183.031 C 94.674 160.869,94.977 160.411,110.385 145.167 C 115.944 139.667,130.394 125.333,142.496 113.314 C 167.294 88.685,167.576 88.451,176.167 85.223 C 182.377 82.890,182.529 82.876,212.667 81.819 C 221.192 81.521,232.742 81.085,238.333 80.852 C 253.205 80.232,256.547 80.235,258.689 80.871 M284.667 107.485 C 317.582 112.484,334.714 148.979,316.946 176.250 C 315.346 178.705,315.582 178.636,313.919 177.134 C 306.092 170.062,296.102 179.975,303.415 187.559 L 304.757 188.951 302.813 190.194 C 289.153 198.933,271.474 199.750,256.476 192.336 C 250.659 189.461,250.188 189.026,251.600 187.838 C 254.707 185.224,255.116 179.891,252.436 176.930 C 251.790 176.216,251.329 176.392,258.333 174.669 C 261.605 173.864,264.789 172.851,266.192 172.168 C 277.569 166.634,277.413 149.873,265.933 144.394 C 262.213 142.619,261.157 142.595,245.748 143.923 C 238.185 144.574,231.916 145.027,231.818 144.929 C 231.235 144.347,233.753 136.465,235.854 132.292 C 237.993 128.046,242.281 122.276,245.249 119.650 C 256.601 109.609,270.469 105.329,284.667 107.485 M249.182 179.818 C 249.780 180.416,250.000 180.998,250.000 181.980 C 250.000 183.502,250.014 183.484,244.798 188.460 L 241.429 191.674 239.215 189.534 C 236.524 186.935,236.223 187.856,241.333 183.064 C 246.215 178.485,247.371 178.007,249.182 179.818 M313.951 183.155 L 318.167 187.310 315.916 189.569 L 313.665 191.829 309.490 187.653 C 304.591 182.754,304.147 181.801,305.933 180.015 C 308.018 177.931,309.066 178.341,313.951 183.155 M348.333 184.182 C 370.578 189.216,380.251 214.660,366.722 232.550 C 352.364 251.535,321.539 248.018,312.315 226.344 C 302.428 203.110,323.416 178.543,348.333 184.182 M223.266 184.844 C 247.097 191.921,253.144 223.214,233.589 238.261 C 208.185 257.808,172.571 231.960,184.491 202.626 C 187.202 195.953,187.914 195.366,197.351 192.034 C 201.466 190.581,207.008 188.618,209.667 187.671 C 218.711 184.451,220.612 184.056,223.266 184.844 " stroke="none" fill="#2c449c" fill-rule="evenodd"></path><path id="path2" d="M191.417 3.576 C 192.104 3.648,193.229 3.648,193.917 3.576 C 194.604 3.504,194.042 3.445,192.667 3.445 C 191.292 3.445,190.729 3.504,191.417 3.576 M206.243 3.574 C 206.834 3.648,207.884 3.649,208.576 3.577 C 209.267 3.504,208.783 3.444,207.500 3.443 C 206.217 3.441,205.651 3.500,206.243 3.574 M185.587 3.902 C 186.002 3.982,186.602 3.979,186.921 3.896 C 187.239 3.812,186.900 3.747,186.167 3.751 C 185.433 3.754,185.173 3.823,185.587 3.902 M213.254 3.902 C 213.669 3.982,214.269 3.979,214.587 3.896 C 214.906 3.812,214.567 3.747,213.833 3.751 C 213.100 3.754,212.839 3.823,213.254 3.902 M332.653 54.750 C 333.470 55.621,334.183 56.333,334.236 56.333 C 334.486 56.333,334.222 56.034,332.750 54.653 L 331.167 53.167 332.653 54.750 M60.833 61.000 C 58.088 63.750,55.917 66.000,56.008 66.000 C 56.100 66.000,58.421 63.750,61.167 61.000 C 63.912 58.250,66.083 56.000,65.992 56.000 C 65.900 56.000,63.579 58.250,60.833 61.000 M339.000 60.833 C 340.734 62.575,342.228 64.000,342.320 64.000 C 342.412 64.000,341.068 62.575,339.333 60.833 C 337.599 59.092,336.105 57.667,336.013 57.667 C 335.922 57.667,337.266 59.092,339.000 60.833 M345.167 67.333 C 345.883 68.067,346.544 68.667,346.635 68.667 C 346.727 68.667,346.216 68.067,345.500 67.333 C 344.784 66.600,344.123 66.000,344.031 66.000 C 343.940 66.000,344.451 66.600,345.167 67.333 M347.333 69.771 C 347.333 69.828,347.821 70.316,348.417 70.854 L 349.500 71.833 348.521 70.750 C 347.608 69.740,347.333 69.513,347.333 69.771 M249.243 80.574 C 249.834 80.648,250.884 80.649,251.576 80.577 C 252.267 80.504,251.783 80.444,250.500 80.443 C 249.217 80.441,248.651 80.500,249.243 80.574 M240.576 80.907 C 241.168 80.981,242.218 80.982,242.909 80.910 C 243.601 80.838,243.117 80.778,241.833 80.776 C 240.550 80.775,239.984 80.834,240.576 80.907 M231.909 81.241 C 232.501 81.314,233.551 81.315,234.243 81.243 C 234.934 81.171,234.450 81.111,233.167 81.109 C 231.883 81.108,231.317 81.167,231.909 81.241 M223.243 81.574 C 223.834 81.648,224.884 81.649,225.576 81.577 C 226.267 81.504,225.783 81.444,224.500 81.443 C 223.217 81.441,222.651 81.500,223.243 81.574 M214.083 81.909 C 214.771 81.981,215.896 81.981,216.583 81.909 C 217.271 81.838,216.708 81.779,215.333 81.779 C 213.958 81.779,213.396 81.838,214.083 81.909 M204.750 82.243 C 205.438 82.315,206.563 82.315,207.250 82.243 C 207.938 82.171,207.375 82.112,206.000 82.112 C 204.625 82.112,204.063 82.171,204.750 82.243 M194.917 82.577 C 195.696 82.648,196.971 82.648,197.750 82.577 C 198.529 82.507,197.892 82.450,196.333 82.450 C 194.775 82.450,194.137 82.507,194.917 82.577 M264.333 83.771 C 264.333 83.828,264.821 84.316,265.417 84.854 L 266.500 85.833 265.521 84.750 C 264.608 83.740,264.333 83.513,264.333 83.771 M269.000 88.167 C 269.622 88.808,270.206 89.333,270.297 89.333 C 270.389 89.333,269.955 88.808,269.333 88.167 C 268.711 87.525,268.128 87.000,268.036 87.000 C 267.944 87.000,268.378 87.525,269.000 88.167 M272.667 91.500 C 273.289 92.142,273.872 92.667,273.964 92.667 C 274.056 92.667,273.622 92.142,273.000 91.500 C 272.378 90.858,271.794 90.333,271.703 90.333 C 271.611 90.333,272.045 90.858,272.667 91.500 M153.165 102.750 L 143.167 112.833 153.250 102.835 C 162.621 93.544,163.483 92.667,163.248 92.667 C 163.201 92.667,158.663 97.204,153.165 102.750 M276.653 95.083 C 277.470 95.954,278.183 96.667,278.236 96.667 C 278.486 96.667,278.222 96.367,276.750 94.986 L 275.167 93.500 276.653 95.083 M280.500 98.667 C 281.216 99.400,281.877 100.000,281.969 100.000 C 282.060 100.000,281.549 99.400,280.833 98.667 C 280.117 97.933,279.456 97.333,279.365 97.333 C 279.273 97.333,279.784 97.933,280.500 98.667 M284.088 101.856 C 284.595 102.419,284.907 102.982,284.782 103.106 C 284.658 103.231,284.731 103.333,284.944 103.333 C 285.607 103.333,285.378 102.832,284.250 101.812 L 283.167 100.833 284.088 101.856 M272.417 102.896 C 272.737 102.980,273.262 102.980,273.583 102.896 C 273.904 102.813,273.642 102.744,273.000 102.744 C 272.358 102.744,272.096 102.813,272.417 102.896 M281.417 102.896 C 281.737 102.980,282.262 102.980,282.583 102.896 C 282.904 102.813,282.642 102.744,282.000 102.744 C 281.358 102.744,281.096 102.813,281.417 102.896 M273.083 107.230 C 273.404 107.314,273.929 107.314,274.250 107.230 C 274.571 107.146,274.308 107.077,273.667 107.077 C 273.025 107.077,272.762 107.146,273.083 107.230 M308.573 118.674 C 309.163 119.293,309.702 119.732,309.771 119.650 C 309.840 119.567,309.357 119.061,308.698 118.524 L 307.500 117.548 308.573 118.674 M239.152 119.690 C 239.031 119.886,238.610 120.177,238.216 120.336 C 237.727 120.533,237.669 120.631,238.032 120.646 C 238.324 120.657,238.835 120.367,239.167 120.000 C 239.498 119.633,239.681 119.333,239.571 119.333 C 239.462 119.333,239.273 119.494,239.152 119.690 M243.649 121.250 L 242.500 122.500 243.750 121.351 C 244.913 120.282,245.153 120.000,244.899 120.000 C 244.843 120.000,244.281 120.563,243.649 121.250 M233.587 120.902 C 234.002 120.982,234.602 120.979,234.921 120.896 C 235.239 120.812,234.900 120.747,234.167 120.751 C 233.433 120.754,233.173 120.823,233.587 120.902 M228.921 121.236 C 229.335 121.315,229.935 121.312,230.254 121.229 C 230.573 121.146,230.233 121.080,229.500 121.084 C 228.767 121.088,228.506 121.156,228.921 121.236 M224.083 121.563 C 224.404 121.647,224.929 121.647,225.250 121.563 C 225.571 121.479,225.308 121.411,224.667 121.411 C 224.025 121.411,223.762 121.479,224.083 121.563 M214.000 122.067 C 214.000 122.213,214.525 122.333,215.167 122.333 C 215.808 122.333,216.333 122.275,216.333 122.203 C 216.333 122.132,215.808 122.012,215.167 121.937 C 214.525 121.862,214.000 121.920,214.000 122.067 M219.587 121.902 C 220.002 121.982,220.602 121.979,220.921 121.896 C 221.239 121.812,220.900 121.747,220.167 121.751 C 219.433 121.754,219.173 121.823,219.587 121.902 M120.982 134.583 L 119.833 135.833 121.083 134.685 C 121.771 134.053,122.333 133.490,122.333 133.435 C 122.333 133.180,122.051 133.420,120.982 134.583 M118.315 137.250 L 117.167 138.500 118.417 137.351 C 119.104 136.719,119.667 136.157,119.667 136.101 C 119.667 135.847,119.385 136.087,118.315 137.250 M193.158 139.083 L 190.833 141.500 193.250 139.176 C 194.579 137.897,195.667 136.810,195.667 136.759 C 195.667 136.514,195.317 136.839,193.158 139.083 M115.649 139.917 L 114.500 141.167 115.750 140.018 C 116.913 138.949,117.153 138.667,116.899 138.667 C 116.843 138.667,116.281 139.229,115.649 139.917 M112.982 142.583 L 111.833 143.833 113.083 142.685 C 113.771 142.053,114.333 141.490,114.333 141.435 C 114.333 141.180,114.051 141.420,112.982 142.583 M256.750 142.896 C 257.071 142.980,257.596 142.980,257.917 142.896 C 258.237 142.813,257.975 142.744,257.333 142.744 C 256.692 142.744,256.429 142.813,256.750 142.896 M252.750 143.230 C 253.071 143.314,253.596 143.314,253.917 143.230 C 254.237 143.146,253.975 143.077,253.333 143.077 C 252.692 143.077,252.429 143.146,252.750 143.230 M249.083 143.563 C 249.404 143.647,249.929 143.647,250.250 143.563 C 250.571 143.479,250.308 143.411,249.667 143.411 C 249.025 143.411,248.762 143.479,249.083 143.563 M245.083 143.896 C 245.404 143.980,245.929 143.980,246.250 143.896 C 246.571 143.813,246.308 143.744,245.667 143.744 C 245.025 143.744,244.762 143.813,245.083 143.896 M105.330 150.250 L 99.167 156.500 105.417 150.337 C 111.224 144.610,111.817 144.000,111.580 144.000 C 111.532 144.000,108.720 146.813,105.330 150.250 M237.417 144.563 C 237.737 144.647,238.262 144.647,238.583 144.563 C 238.904 144.479,238.642 144.411,238.000 144.411 C 237.358 144.411,237.096 144.479,237.417 144.563 M233.750 144.896 C 234.071 144.980,234.596 144.980,234.917 144.896 C 235.237 144.813,234.975 144.744,234.333 144.744 C 233.692 144.744,233.429 144.813,233.750 144.896 M256.083 147.230 C 256.404 147.314,256.929 147.314,257.250 147.230 C 257.571 147.146,257.308 147.077,256.667 147.077 C 256.025 147.077,255.762 147.146,256.083 147.230 M248.417 147.896 C 248.737 147.980,249.262 147.980,249.583 147.896 C 249.904 147.813,249.642 147.744,249.000 147.744 C 248.358 147.744,248.096 147.813,248.417 147.896 M244.750 148.230 C 245.071 148.314,245.596 148.314,245.917 148.230 C 246.237 148.146,245.975 148.077,245.333 148.077 C 244.692 148.077,244.429 148.146,244.750 148.230 M240.750 148.563 C 241.071 148.647,241.596 148.647,241.917 148.563 C 242.237 148.479,241.975 148.411,241.333 148.411 C 240.692 148.411,240.429 148.479,240.750 148.563 M233.083 149.230 C 233.404 149.314,233.929 149.314,234.250 149.230 C 234.571 149.146,234.308 149.077,233.667 149.077 C 233.025 149.077,232.762 149.146,233.083 149.230 M225.417 149.896 C 225.737 149.980,226.262 149.980,226.583 149.896 C 226.904 149.813,226.642 149.744,226.000 149.744 C 225.358 149.744,225.096 149.813,225.417 149.896 M217.750 150.563 C 218.071 150.647,218.596 150.647,218.917 150.563 C 219.237 150.479,218.975 150.411,218.333 150.411 C 217.692 150.411,217.429 150.479,217.750 150.563 M210.083 151.230 C 210.404 151.314,210.929 151.314,211.250 151.230 C 211.571 151.146,211.308 151.077,210.667 151.077 C 210.025 151.077,209.762 151.146,210.083 151.230 M202.417 151.896 C 202.737 151.980,203.262 151.980,203.583 151.896 C 203.904 151.813,203.642 151.744,203.000 151.744 C 202.358 151.744,202.096 151.813,202.417 151.896 M194.750 152.563 C 195.071 152.647,195.596 152.647,195.917 152.563 C 196.237 152.479,195.975 152.411,195.333 152.411 C 194.692 152.411,194.429 152.479,194.750 152.563 M186.921 153.236 C 187.335 153.315,187.935 153.312,188.254 153.229 C 188.573 153.146,188.233 153.080,187.500 153.084 C 186.767 153.088,186.506 153.156,186.921 153.236 M182.254 153.569 C 182.669 153.649,183.269 153.646,183.587 153.562 C 183.906 153.479,183.567 153.414,182.833 153.417 C 182.100 153.421,181.839 153.489,182.254 153.569 M177.587 153.902 C 178.002 153.982,178.602 153.979,178.921 153.896 C 179.239 153.812,178.900 153.747,178.167 153.751 C 177.433 153.754,177.173 153.823,177.587 153.902 M270.433 158.333 C 270.433 159.342,270.496 159.754,270.572 159.250 C 270.648 158.746,270.648 157.921,270.572 157.417 C 270.496 156.912,270.433 157.325,270.433 158.333 M274.757 158.333 C 274.757 159.158,274.822 159.496,274.902 159.083 C 274.981 158.671,274.981 157.996,274.902 157.583 C 274.822 157.171,274.757 157.508,274.757 158.333 M270.151 169.417 L 268.833 170.833 270.250 169.516 C 271.567 168.290,271.820 168.000,271.568 168.000 C 271.513 168.000,270.876 168.637,270.151 169.417 M313.833 183.333 C 315.844 185.350,317.564 187.000,317.655 187.000 C 317.747 187.000,316.177 185.350,314.167 183.333 C 312.156 181.317,310.436 179.667,310.345 179.667 C 310.253 179.667,311.823 181.317,313.833 183.333 M339.917 183.577 C 340.696 183.648,341.971 183.648,342.750 183.577 C 343.529 183.507,342.892 183.450,341.333 183.450 C 339.775 183.450,339.137 183.507,339.917 183.577 M248.315 184.917 L 247.167 186.167 248.417 185.018 C 249.580 183.949,249.820 183.667,249.565 183.667 C 249.510 183.667,248.947 184.229,248.315 184.917 M309.749 187.833 L 313.665 191.828 315.749 189.668 L 317.833 187.507 315.747 189.496 L 313.662 191.484 309.747 187.661 L 305.833 183.837 309.749 187.833 M238.331 185.836 L 236.857 187.338 237.666 188.086 L 238.475 188.833 237.844 188.074 C 237.213 187.315,237.214 187.314,238.676 185.824 C 239.480 185.004,240.064 184.333,239.972 184.333 C 239.880 184.333,239.142 185.009,238.331 185.836 M3.751 186.167 C 3.754 186.900,3.823 187.161,3.902 186.746 C 3.982 186.331,3.979 185.731,3.896 185.413 C 3.812 185.094,3.747 185.433,3.751 186.167 M303.085 187.515 C 304.060 188.567,304.247 188.953,303.935 189.265 C 303.714 189.486,303.620 189.667,303.726 189.667 C 304.739 189.667,304.517 188.662,303.242 187.476 L 301.833 186.167 303.085 187.515 M396.424 188.000 C 396.424 188.825,396.489 189.162,396.569 188.750 C 396.648 188.338,396.648 187.662,396.569 187.250 C 396.489 186.838,396.424 187.175,396.424 188.000 M242.659 190.174 C 241.952 190.904,241.328 191.275,241.010 191.155 C 240.598 190.998,240.581 191.042,240.923 191.386 C 241.265 191.731,241.612 191.545,242.751 190.406 C 243.524 189.633,244.076 189.000,243.977 189.000 C 243.878 189.000,243.285 189.528,242.659 190.174 M3.445 192.667 C 3.445 194.042,3.504 194.604,3.576 193.917 C 3.648 193.229,3.648 192.104,3.576 191.417 C 3.504 190.729,3.445 191.292,3.445 192.667 M317.479 194.083 L 316.500 195.167 317.583 194.188 C 318.179 193.649,318.667 193.162,318.667 193.104 C 318.667 192.847,318.392 193.074,317.479 194.083 M396.809 200.167 C 396.809 204.200,396.857 205.804,396.916 203.732 C 396.974 201.659,396.974 198.359,396.915 196.398 C 396.856 194.438,396.808 196.133,396.809 200.167 M272.750 197.230 C 273.071 197.314,273.596 197.314,273.917 197.230 C 274.237 197.146,273.975 197.077,273.333 197.077 C 272.692 197.077,272.429 197.146,272.750 197.230 M3.443 207.500 C 3.444 208.783,3.504 209.267,3.577 208.576 C 3.649 207.884,3.648 206.834,3.574 206.243 C 3.500 205.651,3.441 206.217,3.443 207.500 M372.751 212.167 C 372.754 212.900,372.823 213.161,372.902 212.746 C 372.982 212.331,372.979 211.731,372.896 211.413 C 372.812 211.094,372.747 211.433,372.751 212.167 M396.424 212.667 C 396.424 213.492,396.489 213.829,396.569 213.417 C 396.648 213.004,396.648 212.329,396.569 211.917 C 396.489 211.504,396.424 211.842,396.424 212.667 M309.781 214.167 C 309.782 215.633,309.841 216.192,309.911 215.408 C 309.982 214.624,309.981 213.424,309.909 212.741 C 309.837 212.059,309.780 212.700,309.781 214.167 M177.770 214.167 C 177.772 215.267,177.834 215.676,177.908 215.077 C 177.982 214.478,177.981 213.578,177.905 213.077 C 177.829 212.576,177.768 213.067,177.770 214.167 M3.751 213.833 C 3.754 214.567,3.823 214.827,3.902 214.413 C 3.982 213.998,3.979 213.398,3.896 213.079 C 3.812 212.761,3.747 213.100,3.751 213.833 M182.084 214.167 C 182.088 214.900,182.156 215.161,182.236 214.746 C 182.315 214.331,182.312 213.731,182.229 213.413 C 182.146 213.094,182.080 213.433,182.084 214.167 M372.744 216.333 C 372.744 216.975,372.813 217.237,372.896 216.917 C 372.980 216.596,372.980 216.071,372.896 215.750 C 372.813 215.429,372.744 215.692,372.744 216.333 M396.077 217.000 C 396.077 217.642,396.146 217.904,396.230 217.583 C 396.314 217.262,396.314 216.737,396.230 216.417 C 396.146 216.096,396.077 216.358,396.077 217.000 M172.583 232.569 C 172.996 232.648,173.671 232.648,174.083 232.569 C 174.496 232.489,174.158 232.424,173.333 232.424 C 172.508 232.424,172.171 232.489,172.583 232.569 M168.417 232.896 C 168.737 232.980,169.262 232.980,169.583 232.896 C 169.904 232.813,169.642 232.744,169.000 232.744 C 168.358 232.744,168.096 232.813,168.417 232.896 M164.417 233.230 C 164.737 233.314,165.262 233.314,165.583 233.230 C 165.904 233.146,165.642 233.077,165.000 233.077 C 164.358 233.077,164.096 233.146,164.417 233.230 M188.667 233.104 C 188.667 233.162,189.154 233.649,189.750 234.188 L 190.833 235.167 189.854 234.083 C 188.942 233.074,188.667 232.847,188.667 233.104 M160.417 233.563 C 160.737 233.647,161.262 233.647,161.583 233.563 C 161.904 233.479,161.642 233.411,161.000 233.411 C 160.358 233.411,160.096 233.479,160.417 233.563 M156.417 233.896 C 156.737 233.980,157.262 233.980,157.583 233.896 C 157.904 233.813,157.642 233.744,157.000 233.744 C 156.358 233.744,156.096 233.813,156.417 233.896 M363.818 235.750 L 362.500 237.167 363.917 235.849 C 365.234 234.624,365.487 234.333,365.234 234.333 C 365.180 234.333,364.542 234.971,363.818 235.750 M235.315 236.583 L 234.167 237.833 235.417 236.685 C 236.104 236.053,236.667 235.490,236.667 235.435 C 236.667 235.180,236.385 235.420,235.315 236.583 M210.417 244.896 C 210.737 244.980,211.262 244.980,211.583 244.896 C 211.904 244.813,211.642 244.744,211.000 244.744 C 210.358 244.744,210.096 244.813,210.417 244.896 M65.568 317.156 C 65.897 317.609,66.305 317.984,66.475 317.990 C 66.644 317.995,66.431 317.625,66.000 317.167 C 65.001 316.103,64.798 316.098,65.568 317.156 M68.500 320.333 C 69.216 321.067,69.877 321.667,69.969 321.667 C 70.060 321.667,69.549 321.067,68.833 320.333 C 68.117 319.600,67.456 319.000,67.365 319.000 C 67.273 319.000,67.784 319.600,68.500 320.333 M74.000 326.167 C 75.550 327.725,76.894 329.000,76.985 329.000 C 77.077 329.000,75.884 327.725,74.333 326.167 C 72.783 324.608,71.440 323.333,71.348 323.333 C 71.256 323.333,72.450 324.608,74.000 326.167 M79.833 331.667 C 80.549 332.400,81.210 333.000,81.302 333.000 C 81.394 333.000,80.883 332.400,80.167 331.667 C 79.451 330.933,78.790 330.333,78.698 330.333 C 78.606 330.333,79.117 330.933,79.833 331.667 M54.653 332.750 C 55.470 333.621,56.183 334.333,56.236 334.333 C 56.486 334.333,56.222 334.034,54.750 332.653 L 53.167 331.167 54.653 332.750 M343.667 334.500 C 342.857 335.325,342.270 336.000,342.361 336.000 C 342.453 336.000,343.190 335.325,344.000 334.500 C 344.810 333.675,345.397 333.000,345.305 333.000 C 345.214 333.000,344.476 333.675,343.667 334.500 M82.000 333.438 C 82.000 333.495,82.487 333.983,83.083 334.521 L 84.167 335.500 83.188 334.417 C 82.275 333.407,82.000 333.180,82.000 333.438 M60.667 339.167 C 62.401 340.908,63.895 342.333,63.987 342.333 C 64.078 342.333,62.734 340.908,61.000 339.167 C 59.266 337.425,57.772 336.000,57.680 336.000 C 57.588 336.000,58.932 337.425,60.667 339.167 M334.333 343.833 C 333.524 344.658,332.936 345.333,333.028 345.333 C 333.120 345.333,333.857 344.658,334.667 343.833 C 335.476 343.008,336.064 342.333,335.972 342.333 C 335.880 342.333,335.143 343.008,334.333 343.833 M94.667 343.788 C 94.667 343.880,95.117 344.275,95.667 344.667 C 96.217 345.058,96.667 345.304,96.667 345.212 C 96.667 345.120,96.217 344.725,95.667 344.333 C 95.117 343.942,94.667 343.696,94.667 343.788 M67.167 345.333 C 67.883 346.067,68.544 346.667,68.635 346.667 C 68.727 346.667,68.216 346.067,67.500 345.333 C 66.784 344.600,66.123 344.000,66.031 344.000 C 65.940 344.000,66.451 344.600,67.167 345.333 M69.667 347.438 C 69.667 347.495,70.154 347.983,70.750 348.521 L 71.833 349.500 70.854 348.417 C 69.942 347.407,69.667 347.180,69.667 347.438 M216.417 396.230 C 216.737 396.314,217.262 396.314,217.583 396.230 C 217.904 396.146,217.642 396.077,217.000 396.077 C 216.358 396.077,216.096 396.146,216.417 396.230 M187.250 396.569 C 187.662 396.648,188.338 396.648,188.750 396.569 C 189.162 396.489,188.825 396.424,188.000 396.424 C 187.175 396.424,186.838 396.489,187.250 396.569 M211.917 396.569 C 212.329 396.648,213.004 396.648,213.417 396.569 C 213.829 396.489,213.492 396.424,212.667 396.424 C 211.842 396.424,211.504 396.489,211.917 396.569 M196.398 396.915 C 198.359 396.974,201.659 396.974,203.732 396.916 C 205.804 396.857,204.200 396.809,200.167 396.809 C 196.133 396.808,194.438 396.856,196.398 396.915 " stroke="none" fill="#7582b5" fill-rule="evenodd"></path></g></svg>