<svg xmlns="http://www.w3.org/2000/svg" viewBox="0 0 400 400"><defs/><g fill-rule="evenodd"><path d="M246.8 80.7l-52.6 2c-13.6.4-20.8 2.5-28.3 8.1-2.5 1.9-65.4 64.3-67.7 67.2-3.8 4.7-6.2 9.9-21.4 44.8A2883 2883 0 0160 241.3 2366 2366 0 0145 276l-2.8 6.4 2.6 4.7c14 25.2 34.4 47 58.4 62.5a78.7 78.7 0 0012.9 7.3l4.7-21.5a66022.7 66022.7 0 0119-90.8c1-4 5.9-8.5 10.5-9.9.5-.2 6.7-.8 13.6-1.4 12.3-1 12.8-1.1 15-2.1 2.6-1.3 2.6-1.3 1.8-3.1a34.9 34.9 0 01.5-28.5c2.1-4.4 6-9.7 6.5-9 .1.3 5.3-1.4 12.7-4 7.4-2.7 15-5.2 18.7-6.2l35-9a72 72 0 0010.7-3.2 11.3 11.3 0 00-.3-19.7c-3-1.6-2-1.6-39.4 1.6-45.5 4-50.2 4.3-52 3.7-3.9-1.3-4.5-6.5-.9-8.4a69 69 0 017.7-1.2c3.9-.4 7.5-.8 8-1 .8 0 2.1-1 4.4-3.2 8.1-7.7 13.3-17 15.1-27.3 1-5 1.9-6.3 4.9-6.3 4.9-.1 5.5 4 2.3 15-.3 1-.2 1 13.4 0l10.4-.8 3.6-3.5a49.7 49.7 0 0137.2-14.3l5.9.1c0-.5-21.5-19.6-23-20.4-2-1.2-5.7-2-7.8-2l-7.4.3m26.9 26.5c-21.3 2.6-39.1 18.2-41.6 36.3l-.2 1.6 1.1-.2a291 291 0 0129-2 15.8 15.8 0 018.3 26.5c-2.5 2.5-5 3.6-12.2 5.5l-6.1 1.5.6.7c2.7 3 2.4 7.3-.7 10.4l-1.3 1.4 2 1.2a47.5 47.5 0 0049.9.1l2-1.2-1.3-1.3c-7.2-7.4 2.9-18 10.5-10.8 1.8 1.7 1.7 1.7 4-2.2 16-27-.1-60.8-31.8-66.9-2.7-.5-10-.9-12.2-.6m-28.4 72.4a76 76 0 00-4.5 4.1l-3.6 3.6 2 2 2 2.1 2.7-2.3c5.1-4.7 6-5.6 6-7.1 0-2.5-2.6-3.8-4.6-2.4m61 .3c-2 1.7-1.6 2.7 3 7.3a46 46 0 004.3 4c.3 0 4.5-4 4.3-4l-4.3-4.1c-4.7-4.6-5.3-4.9-7.2-3.2m28.8 4.3c-24.2 5-33.6 33.7-16.7 51 18.6 19 51.2 8.3 54.1-17.8a31.3 31.3 0 00-37.4-33.2m-117.7 1.1a5227.2 5227.2 0 01-21.6 7.4l-6.9 2.5-1.7 2.5c-13.4 20.4 1.6 47 26.5 47a30.5 30.5 0 007.5-60.2c-.2 0-2 .3-3.8.8" fill="#fbfbfb"/><path d="M192.8 3.6a196.8 196.8 0 00-5.7 392.8A196.8 196.8 0 00396.4 187c-7-106-97.5-187.7-203.6-183.5m65.9 77.3c3.5 1 4.9 2 14.5 10.8l11 10c1.7 1.6 1.7 1.6-2.9 1.2a51.3 51.3 0 00-39.9 14.7l-3 3-12.1.9c-6.6.4-12.1.8-12.2.7l.7-2.8c2.3-7.8 2.1-11.2-.7-12.6-3.4-1.6-5.5.2-6.6 5.7a49.3 49.3 0 01-13.8 26.2c-4.8 4.8-4 4.4-13 5.5-8.7 1-9.5 1.2-10.5 3.3-1.1 2.3-.2 4.6 2.4 5.8l1.5.8 9.2-.7 41.9-3.6c18.4-1.6 33.6-2.8 34.8-2.7 9.6.6 14.1 12.4 7.3 19.2-2.3 2.3-3.1 2.6-19.1 6.7l-24.4 6.2a232.8 232.8 0 00-29 9.3 56.6 56.6 0 01-7.4 2.4c-1.3-.6-7 9.5-8.4 14.8-1.7 6.9-1 16.8 1.7 22 1.8 3.5-1.3 4.5-16.7 5.6-15.6 1.1-18.4 2.1-22.2 7.6-2 2.8-1.4.6-10.1 42.4a734858 734858 0 01-15.5 74c-.3.3-12-6.8-17.5-10.6a183.9 183.9 0 01-56.2-63.4l-.5-1.1 5.7-13a6697.6 6697.6 0 0026.8-61.4A3765.4 3765.4 0 0085.3 183c9.4-22.1 9.7-22.6 25-37.8l32.2-31.9c24.8-24.6 25-24.8 33.7-28 6.2-2.4 6.3-2.4 36.5-3.5l25.6-1c15-.6 18.2-.6 20.4 0m26 26.7c32.9 5 50 41.5 32.2 68.8-1.6 2.4-1.3 2.3-3 .8-7.8-7-17.8 2.9-10.5 10.5l1.4 1.4-2 1.2a47.3 47.3 0 01-46.3 2.1c-5.8-2.8-6.3-3.3-4.9-4.5 3.1-2.6 3.5-8 .8-10.9-.6-.7-1-.5 6-2.2a49 49 0 007.8-2.5c11.4-5.6 11.2-22.3-.3-27.8-3.7-1.8-4.7-1.8-20.2-.5-7.5.7-13.8 1.1-13.9 1a38 38 0 014-12.6 51 51 0 019.4-12.7 47.7 47.7 0 0139.5-12.1m-35.5 72.3c.6.6.8 1.2.8 2.2 0 1.5 0 1.5-5.2 6.5l-3.4 3.2-2.2-2.2c-2.7-2.6-3-1.6 2.1-6.4 5-4.6 6-5 7.9-3.3m64.8 3.4l4.2 4.1-2.3 2.3-2.2 2.2-4.2-4.1c-5-5-5.4-5.9-3.6-7.7 2.1-2 3.2-1.7 8 3.2m34.4 1c22.3 5 32 30.5 18.4 48.4-14.3 19-45.2 15.4-54.4-6.3a31.1 31.1 0 0136-42.1m-125 .6a30.6 30.6 0 0110.3 53.5c-25.4 19.5-61-6.3-49.1-35.7 2.7-6.6 3.4-7.2 12.9-10.6l12.3-4.3c9-3.2 11-3.6 13.6-2.9" fill="#2c449c"/><path d="M191.4 3.6h2.5c.7-.1.1-.2-1.2-.2-1.4 0-2 .1-1.3.2m14.8 0h2.4c.7-.1.2-.2-1.1-.2s-1.8.1-1.3.2m-20.6.3h1.3c.3 0 0-.2-.7-.1-.8 0-1 0-.6.1m27.7 0h1.3c.3 0 0-.2-.8-.1-.7 0-1 0-.5.1m119.4 50.9l1.5 1.5c.3 0 0-.3-1.4-1.6l-1.6-1.5 1.5 1.5M60.8 61a100.5 100.5 0 00.4 0 100.5 100.5 0 00-.4 0m278.2-.2c1.7 1.8 3.2 3.2 3.3 3.2l-3-3.2a47 47 0 00-3.3-3.1l3 3.1m6.2 6.5l1.4 1.4-1.1-1.4A9.3 9.3 0 00344 66l1.2 1.3m2.1 2.5l1.1 1 1.1 1-1-1c-.9-1-1.2-1.3-1.2-1m-98 10.8h2.3c.7-.1.2-.2-1.1-.2s-1.8.1-1.3.2m-8.6.3h2.3c.7 0 .2-.1-1-.1-1.3 0-2 0-1.3.1m-8.7.3H233.2h-1.3m-8.7.4h2.4c.7-.1.2-.2-1.1-.2s-1.8.1-1.3.2m-9.1.3h2.5c.7 0 .1-.1-1.3-.1-1.3 0-1.9 0-1.2.1m-9.3.3h1.2-1.3m-9.8.4h2.8c.8 0 .2-.1-1.4-.1H195m69.4 1.3l1.1 1 1.1 1-1-1c-.9-1-1.2-1.3-1.2-1m4.7 4.4l1.3 1.1s-.3-.5-1-1.1A7.3 7.3 0 00268 87l1 1.2m3.7 3.3l1.3 1.2-1-1.2a7.3 7.3 0 00-1.3-1.2s.3.6 1 1.2m-119.5 11.3l-10 10 10-10c9.4-9.3 10.3-10.1 10-10.1l-10 10m123.5-7.6l1.5 1.6c.3 0 0-.3-1.4-1.7l-1.6-1.5 1.5 1.6m3.8 3.6l1.5 1.3-1.2-1.3a9.3 9.3 0 00-1.4-1.4l1.1 1.4m3.6 3.2c.5.5.8 1 .7 1.2-.1.1 0 .2.1.2.7 0 .5-.5-.6-1.5l-1.1-1 .9 1m-11.7 1.1h1.2c.3 0 0-.2-.6-.2s-.9.1-.6.2m9 0h1.2c.3 0 0-.2-.6-.2s-.9.1-.6.2m-8.3 4.3h1.1c.4 0 .1-.1-.5-.1-.7 0-1 0-.6.1m35.5 11.5l1.2 1c0-.1-.4-.6-1.1-1.2l-1.2-1 1 1.2m-69.3 1c-.2.2-.6.5-1 .6-.5.2-.5.3-.2.3s.8-.2 1.2-.6l.4-.7-.4.4m4.4 1.5l-1.1 1.3 1.3-1.1c1.1-1.1 1.4-1.4 1.1-1.4l-1.3 1.3m-10-.4h1.3c.3 0 0-.2-.7-.1-.8 0-1 0-.6.1m-4.7.3h1.4l-.8-.1c-.7 0-1 0-.6.1m-4.8.4h1.2c.3-.1 0-.2-.6-.2-.7 0-1 0-.6.2m-10.1.5c0 .1.5.2 1.2.2l1.1-.1-1.1-.3c-.7 0-1.2 0-1.2.2m5.6-.2h1.3c.3 0 0-.2-.7-.1-.8 0-1 0-.6.1M121 134.6l-1.2 1.2 1.3-1.1c.7-.6 1.2-1.2 1.2-1.3 0-.2-.2 0-1.3 1.2m-2.7 2.7l-1.1 1.2 1.2-1.1 1.3-1.3c0-.3-.3 0-1.4 1.2m74.9 1.8l-2.4 2.4 2.4-2.3a46 46 0 000-.1m-77.6.8l-1.1 1.3 1.3-1.2c1.1-1 1.4-1.3 1.1-1.3l-1.3 1.2m-2.6 2.7l-1.2 1.2 1.3-1.1c.7-.6 1.2-1.2 1.2-1.3 0-.2-.2 0-1.3 1.2m143.8.3h1.1c.3 0 0-.2-.6-.2s-.9.1-.6.2m-4 .3h1.2l-.6-.1c-.6 0-.9 0-.6.1m-3.6.4h1.2c.3-.1 0-.2-.6-.2-.7 0-1 0-.6.2m-4 .3h1.2c.3 0 0-.2-.6-.2-.7 0-1 .1-.6.2m-139.8 6.3l-6.1 6.3 6.2-6.2a323.6 323.6 0 000 0m132-5.7h1.2c.3-.1 0-.2-.6-.2s-.9 0-.6.2m-3.7.3h1.2c.3 0 0-.2-.6-.2s-.9.1-.6.2m22.4 2.3h1.1c.4 0 .1-.1-.5-.1-.7 0-1 0-.6.1m-7.7.7h1.2c.3 0 0-.2-.6-.2s-.9.1-.6.2m-3.7.3h1.2l-.6-.1c-.6 0-.9 0-.6.1m-4 .4h1.2c.3-.1 0-.2-.6-.2s-.9 0-.6.2m-7.6.6h1.2l-.6-.1c-.7 0-1 0-.6.1m-7.7.7h1.2c.3 0 0-.2-.6-.2s-.9.1-.6.2m-7.7.7h1.2c.3-.1 0-.2-.6-.2s-.9 0-.6.2m-7.6.6h1.2l-.6-.1c-.7 0-1 0-.6.1m-7.7.7h1.2c.3 0 0-.2-.6-.2s-.9.1-.6.2m-7.7.7h1.2c.3-.1 0-.2-.6-.2s-.9 0-.6.2m-7.8.6h1.4l-.8-.1c-.7 0-1 0-.6.1m-4.6.4h1.3c.3-.1 0-.2-.8-.2-.7 0-1 0-.5.2m-4.7.3h1.3c.3 0 0-.2-.7-.1-.8 0-1 0-.6.1m92.8 4.4c0 1 .1 1.5.2 1v-1.9c-.1-.5-.2 0-.2 1m4.4 0c0 .8 0 1.1.1.7v-1.5l-.1.7m-4.6 11.1l-1.4 1.4 1.4-1.3c1.4-1.2 1.6-1.5 1.4-1.5l-1.4 1.4m69.7 14.2h2.9c.7 0 0-.2-1.5-.2s-2.2.1-1.4.2m-91.6 1.3l-1.1 1.3 1.2-1.2c1.2-1 1.4-1.3 1.2-1.3 0 0-.7.5-1.3 1.2m61.4 3l4 4 2-2.2 2.1-2.2-2 2-2.1 2-4-3.8-3.9-3.9 4 4m-71.5-2l-1.4 1.5.8.8.8.7-.7-.7c-.6-.8-.6-.8.9-2.3l1.3-1.5-1.7 1.5m-234.5.4c0 .7 0 1 .1.5v-1.3c0-.3-.2 0-.1.8m299.3 1.3c1 1 1.1 1.5.8 1.8l-.2.4c1 0 .8-1-.5-2.2l-1.4-1.3 1.3 1.3m93.3.5c0 .8 0 1.2.2.8v-1.6c-.1-.4-.2 0-.2.8m-153.7 2.2c-.7.7-1.4 1-1.7 1-.4-.2-.4-.2 0 .2.3.3.6.1 1.8-1l1.2-1.4a7 7 0 00-1.3 1.2M3.4 192.7c0 1.3.1 1.9.2 1.2v-2.5c-.1-.7-.2-.1-.2 1.3m314 1.4l-.9 1 1-1 1.2-1c0-.3-.3 0-1.2 1m79.3 6a153.2 153.2 0 000 0m-124-2.9h1.1l-.6-.1c-.6 0-.9 0-.6.1M3.4 207.5c0 1.3.1 1.8.2 1v-2.3c-.1-.5-.2 0-.2 1.3m369.4 4.7c0 .7 0 1 .1.5v-1.3c0-.3-.2 0-.1.8m23.6.5c0 .8 0 1.1.2.7V212c-.1-.4-.2 0-.2.8m-86.6 1.5c0 1.4 0 2 .1 1.2v-2.7l-.1 1.5m-132 0c0 1 0 1.5.1.9v-2l-.1 1m-174-.3c0 .8 0 1 .1.6v-1.3c0-.3-.2 0-.1.7m178.3.4c0 .7 0 1 .1.5v-1.3l-.1.8m190.6 2.1c0 .7.1 1 .2.6v-1.2c0-.3-.2 0-.2.6m23.4.7c0 .6 0 .9.1.6v-1.2l-.1.6m-223.5 15.6h1.5c.4-.1 0-.2-.8-.2s-1.1 0-.7.2m-4.2.3h1.2c.3 0 0-.2-.6-.2s-.9.1-.6.2m-4 .3h1.2l-.6-.1c-.6 0-.9 0-.6.1m24.3-.1l1 1 1.1 1-1-1c-.9-1-1.1-1.3-1.1-1m-28.3.5h1.2c.3-.1 0-.2-.6-.2s-.9 0-.6.2m-4 .3h1.2c.3 0 0-.2-.6-.2s-.9.1-.6.2m207.4 1.8l-1.3 1.5 1.4-1.4c1.3-1.2 1.6-1.5 1.3-1.5l-1.4 1.4m-128.5.9l-1.1 1.2 1.2-1.1 1.3-1.3c0-.2-.3 0-1.4 1.2m-24.9 8.3h1.2c.3 0 0-.2-.6-.2s-.9.1-.6.2M65.6 317.2c.3.4.7.8.9.8.1 0 0-.4-.5-.8-1-1.1-1.2-1.1-.4 0m2.9 3.1c.7.8 1.4 1.4 1.5 1.4l-1.2-1.4a9.3 9.3 0 00-1.4-1.3l1.1 1.3m5.5 5.9l3 2.8s-1.1-1.3-2.7-2.8a37.9 37.9 0 00-3-2.9l2.7 2.9m5.8 5.5l1.5 1.3-1.1-1.3a9.2 9.2 0 00-1.5-1.4l1.1 1.4m-25.1 1c.8 1 1.5 1.6 1.5 1.6.3 0 0-.3-1.5-1.6l-1.5-1.5 1.5 1.6m289 1.7l-1.3 1.5 1.6-1.5 1.3-1.5-1.6 1.5m-261.7-1l1 1 1.2 1-1-1c-1-1-1.2-1.3-1.2-1m-21.3 5.7a47 47 0 003.3 3.1l-3-3.1a46.8 46.8 0 00-3.3-3.2l3 3.2m273.6 4.6l-1.3 1.5c.1 0 .9-.6 1.7-1.5l1.3-1.5-1.7 1.5m-239.6 0s.4.5 1 .9c.5.4 1 .6 1 .5l-1-.9-1-.5m-27.5 1.5l1.4 1.4-1.1-1.4A9.3 9.3 0 0066 344l1.2 1.3m2.5 2.1l1 1.1 1.1 1-1-1c-.9-1-1.1-1.3-1.1-1m146.7 48.7h1.2l-.6-.1c-.6 0-.9 0-.6.1m-29.2.4h1.6c.4-.1 0-.2-.8-.2s-1.2 0-.8.2m24.7 0h1.5c.4-.1 0-.2-.7-.2-.9 0-1.2 0-.8.2m-15.5.3" fill="#7582b5"/></g></svg>