<svg xmlns="http://www.w3.org/2000/svg" viewBox="0 0 400 400"><defs/><g fill-rule="evenodd"><path d="M124.8 205.5c-75.5 75.6-79 79-82.2 84.1a56.4 56.4 0 00-5.4 11.1c-2.1 4-3 19.5-1.4 25.9 5.7 23.9 26.6 40 50.2 38.9 9-.5 12.5-1.3 19.4-4.7a48 48 0 0012.2-8.3c6.4-5.5 203.6-203 202.4-202.7-1.1.3-5.3 1.2-8.8 1.8a245 245 0 01-47.8-.6 107 107 0 01-10.8-1.4 155.2 155.2 0 01-16.8-3.2 142.5 142.5 0 01-12.6-3.2c-9-2.1-20.4-8.1-22.3-11.9l-.7-1.3-75.4 75.5m86.4-41.3c7.4 3.7 5.5 14.3-2.9 16.4-2.3.6-6.4-1.6-8-4.3-1.4-2.6-1-9.5.6-9.5.2 0 .3-.2.3-.5 0-2.3 6.8-3.7 10-2m-40.9 40.5l2.7 1.3c6.2 3 9.7 11.6 7 17.2l-.8 2.1c0 .8-4.8 5.4-5.6 5.4-.5 0-.8.1-.8.3 0 1.6-9.5 1.9-12.6.3A14.4 14.4 0 01153 213c1.3-2.9 5.2-6.7 7.5-7.4a9 9 0 002-.9c.6-.4 7-.4 7.8 0m53 .6c1.8 1 5.9 5 5.9 5.8l.4 1.2c1.6 3.2 1 8.6-1.3 11-.4.5-.7 1-.7 1.2 0 .5-2 2.3-2.7 2.3-.3 0-.5.2-.5.4s-.4.4-.8.4-.8.1-.8.3c0 1-6.9 1.8-7.4.9-.1-.2-.7-.4-1.2-.4s-1-.2-1.2-.4c-.1-.2-.6-.4-1-.4-.5 0-.8-.2-.8-.4s-.2-.4-.4-.4c-.7 0-3.2-2.7-3.2-3.4 0-.3-.1-.6-.3-.6-1.2 0-2.1-10.7-1-11.1.3-.1.5-.4.5-.7 0-1 4-4.9 5.7-5.7a16 16 0 0110.8 0m-105.2 38l1.9 1.2c.7.5 1.5 1.3 1.8 1.7l1.1 1.9c2.3 3.5 0 10-4.4 12.6-1.2.7-7 .7-8.5 0-6.2-3.3-6.8-12.6-1-16.7 1.7-1.2 8-1.8 9.1-.8m33 19.4a15.4 15.4 0 019.7 8.2c1 1 1.7 10 .8 10.6-.2.1-.4.6-.4 1.1 0 .5-.4 1.4-.8 1.9l-.8 1.4c-.1 1.4-6.2 5.8-8 5.8-.4 0-.9.2-1 .4-.1.2-1.8.4-3.6.4-2 0-3.4-.2-3.4-.4s-.3-.4-.8-.4c-.4 0-.9-.2-1-.4-.1-.2-.7-.4-1.2-.4-.6 0-1-.1-1-.3 0-.2-.6-.7-1.2-1-5.7-3.4-8.1-12.8-4.8-18.9 1.2-2.3 4.6-6.2 5.4-6.2.2 0 .7-.3 1-.6 1.8-1.6 7.4-2.2 11-1.2m-57.9 35.8l2.7 1.3a17.2 17.2 0 014.4 27.3c-5 4.8-12.4 6.5-18 4.2l-2.1-.9c-.7-.3-1.3-.6-1.3-.8 0-.2-.2-.3-.5-.3-1.2 0-5.9-5.5-5.9-6.9 0-.3-.1-.7-.3-.8-1.5-1.6-1.9-9.2-.5-12 .4-.9.8-1.9.8-2.2 0-.3.2-.5.4-.5s.4-.2.4-.5.4-1 .8-1.4c.4-.5.8-1 .8-1.3 0-.2.1-.4.3-.4.2 0 1-.6 1.8-1.4 3.6-3.5 12.5-5.3 16.2-3.4" fill="#6ce394"/><path d="M222.4 124a50.8 50.8 0 00-11 1.2c-2.8 0-8.6 2.2-9.5 3.6-2.1 3.4 8.7 9.9 21.9 13.2l5.8 1.5a208.7 208.7 0 0022.8 4.7l5 .8a236 236 0 0041.7 2.3c22.5-1.3 29.2-4.5 20.7-10A122 122 0 00281 129a143.9 143.9 0 00-20-3.1 98 98 0 00-7.6-.8l-10-.7c-7-.6-13.5-.8-21-.4m-18.2 41c-4 1.9-5.3 8.2-2.3 11.5 4.7 5 12.3 2.1 12.3-4.8 0-5.8-4.9-9-10-6.6M343 176.9l-2.8 2.9 2.9-2.8a54.8 54.8 0 00-.1-.1m-129 29c-8.7 3-9.8 16.6-1.7 20.6 4.5 2.3 11 1.4 13.8-1.8 8-9.1-.9-22.9-12.1-18.9m-53 .6c-10.8 4.8-10 21.2 1.4 24.8 13 4.2 22.8-12 13.2-22a14.4 14.4 0 00-14.6-2.8m-50.4 38c-4.7 2.5-6.2 7.4-3.6 11.8 4.4 7.4 15.5 4.4 15.5-4.1 0-6.2-6.7-10.4-12-7.7m32.9 19.2c-13.4 3.5-13.7 23.1-.4 27 16.3 4.7 25.5-18.2 10.3-26a18.3 18.3 0 00-9.9-1m-57.4 35c-17 3-19.5 25.8-3.4 31.6 17.3 6.3 29.7-17.7 14.7-28.5-2.8-2-8.4-3.5-11.3-3" fill="#16bd65"/><path d="M285 .8c-.1.2-.7.4-1.2.4-1 0-4.7 1.6-5 2.1 0 .2-.3.3-.7.3-.3 0-.4.2-.3.4.1.2-.1.4-.5.4-.5 0-1 .3-1 .7-.3.8-1.6 2.2-8 8.4a41.3 41.3 0 01-4.7 4.1c-.2 0-.5.4-.6.8a139.3 139.3 0 00-13 13c-.2-.1-.4 0-.4.2a31 31 0 01-3.7 4.2c-2 2-4.2 4.3-4.7 5-.5.6-1.3 1.3-1.7 1.4-.4.1-.7.5-.7.8 0 .3-.2.6-.4.6s-1.7 1.4-3.4 3-3.2 3-3.4 3c-.3 0-.3.2-.2.4.1.2 0 .4-.2.4-.3 0-.7.3-1 .6-.4.3-.5.6-.4.6.2 0-.5.8-1.6 1.7a22.7 22.7 0 00-4.5 4.4 28 28 0 00-4.5 4.8c0 .2-.1.3-.3.2-.2-.2-.7.2-1.1.8A241 241 0 01197.4 84c-.4 0-1.5 1.2-1.1 1.2a265.5 265.5 0 00-16.4 16.6l-5.4 5.5c-2.2 2.3-10 9.7-11 10.5-.6.4-1.2 1.1-1.3 1.5-.2.4-.3.7-.4.6-.2-.2-3.4 3-7.1 6.8a17.5 17.5 0 01-2.9 2.6c-.3.4-.6.7-.6.9a325.8 325.8 0 01-22.3 22.2 77.7 77.7 0 01-9.2 9.1c.3.4-.7 1.3-1 1a40 40 0 01-4.6 5 96.3 96.3 0 00-6.1 6.5c-1.1 1.1-2.2 2-2.4 2-.2 0-.4.3-.4.6s-.2.6-.4.6-1.7 1.4-3.3 3c-1.7 1.7-3.2 3-3.5 3-.3 0-.4.1-.3.2.3.3-.6 1.4-1.1 1.4l-.9.6c-.3.3-.4.6-.3.6.2 0-.8 1-2.2 2.3-1.3 1.2-2.3 2.4-2.1 2.6.1.2 0 .3-.2.2-.2-.2-1.4.8-2.7 2.2a12 12 0 01-2.2 2.1c0-.1-.3 0-.6.3l-.6.9c0 .5-1.1 1.4-1.4 1.1a17.1 17.1 0 01-3.2 3.8c-1.7 1.6-3 3.1-3 3.3 0 .2-.3.4-.6.4s-.6.2-.6.4c0 .5-2.7 3.2-3.2 3.2-.2 0-.4.3-.4.7 0 .3 0 .5-.2.4-.1 0-2.2 1.8-4.7 4.3a53.9 53.9 0 01-5.7 5.4l-1.8 1.9c-1 1-1.9 2-1.8 2.2.2.2 0 .3-.3.2-.3 0-.5.1-.4.4 0 .3 0 .5-.3.3-.2-.1-.7.3-1.3 1-.5.5-1.3 1.3-1.9 1.7-.5.4-.8.7-.6.7.2 0 0 .2-.6.5a352.7 352.7 0 01-24.7 24.7l-2 2.3a16 16 0 00-2.1 2.6c0 .2-.3.3-.6.3-.8 0-1.9 1-1.5 1.4.1 0 0 .2-.4.2s-.7.3-.7.6-.4.8-.8 1c-.4.2-.8.6-.7.7 0 .3-.8 1.5-2.4 3.1-.5.5-.9 1.2-.9 1.4 0 .2-.2.4-.4.4s-.4.2-.4.5c0 .2-.4.7-.9 1.2-.4.4-.7.7-.5.7.3 0-.9 2.2-1.7 3.2a24.8 24.8 0 00-3.3 6.8c-.2 0-.4.4-.4.8s-.1.8-.3.8c-.2 0-.6.6-.9 1.4-.3.8-.7 1.4-.9 1.4-.2 0-.3.6-.3 1.4 0 .9-.2 1.3-.4 1.2-.2-.1-.4.3-.4 1 0 .6-.1 1.2-.3 1.2-.2 0-.4.5-.4 1 0 .7-.2 1.3-.4 1.4-.2.1-.4.8-.4 1.6a7 7 0 01-.5 2c-.2.4-.4 1.3-.4 1.9 0 .6-.2 1.3-.4 1.5-.3.4-.6 2.4-1 6.8a92.6 92.6 0 00.3 25c.1.1.3 1.1.3 2.3.1 1.1.3 2 .5 1.9.2-.2.3.5.3 1.4 0 .9.2 1.6.4 1.6s.4.7.4 1.6c0 .9.2 1.6.4 1.6s.4.6.4 1.4c0 .8.2 1.4.4 1.4s.4.5.4 1.2c0 .6.2 1.3.4 1.4.2.1.4.7.4 1.2 0 .6.2 1 .4 1s.4.3.4.6a14 14 0 002.1 4.5c.2.1.3.4.3.8 0 .8 1.2 3 2 3.6.3.2.5.6.3.7-.2.2 0 .5.4.8.4.3.7.7.7.9.1.7.8 2 1.5 2.8.5.5.7.9.5.9-.2 0 0 .3.4.6.5.3.7.6.5.6l1 1.2c.6.6 1.1 1.4 1.1 1.8 0 .4.2.5.4.4.2-.1.4 0 .4.4 0 .3.4.8.8 1 .4.4.8.8.8 1 0 .2.4.7.9 1l1.9 1.7c1.9 2.1 3.3 3.5 3.6 3.5.2 0 .5.4.6.8.1.4.4.7.6.6.2-.1.4 0 .4.4 0 .3.2.6.4.6.5 0 2.6 2 2.1 2-.2 0 .2.3.9.6s1.8 1.1 2.6 1.8 1.6 1.2 1.8 1.2c.2 0 .8.5 1.5 1.2.6.7 1.4 1.2 1.7 1.2.3 0 .6.2.6.4s.5.5 1.2.6c.7.1 1.2.4 1.2.5 0 .2.6.6 1.3.9l1.5.8a37.5 37.5 0 014.3 2c1.7 1 3.3 1.6 3.7 1.6.4 0 .9.2 1 .4.1.2.7.4 1.2.4s1 .2 1 .4c.1.2.7.4 1.3.5.6 0 1.1.2 1.1.4s.6.3 1.4.3c.7 0 1.5.2 1.6.4.1.2.9.4 1.6.4.8 0 1.4.2 1.4.4s.7.4 1.5.4a153.5 153.5 0 0029.5 1.2c-.2-.2.8-.4 2.6-.4 1.5 0 2.9-.2 3-.4.1-.2.9-.4 1.6-.4.8 0 1.4-.2 1.4-.4s.7-.4 1.6-.4c.8 0 1.6-.2 1.7-.4 0-.2.8-.4 1.6-.5.8 0 1.5-.2 1.5-.4s.5-.3 1.2-.3 1.2-.2 1.2-.4.5-.4 1.2-.4 1.2-.2 1.2-.4.3-.4.6-.4c.4 0 1.4-.4 2.3-.9l2.7-1.3c.6-.3 1.2-.4 1.4-.3.2.2.2 0 0-.2-.2-.4.2-.7 1.1-.5.2 0 .3-.2.3-.4s.1-.4.3-.3c.6.1 2.1-.6 2.1-1 0-.2.2-.3.3-.1.2 0 .8-.2 1.3-.6.5-.5 1.4-1 1.9-1 .5-.2 1.6-1 2.5-1.8l2-1.6c.4 0 1.5-.9 2.9-2.1l.7-.5 1.2-1c.6-.7 1.3-1.2 1.5-1.2.2 0 .6-.4 1-.9.2-.4 1.7-2 3.2-3.5a177.2 177.2 0 0012-12.4 42.5 42.5 0 015.8-5.8l3.7-3.4 4.9-4.7 5.2-5.2c2.1-2.1 4.2-4.2 4.7-4.5.4-.3.8-.8.8-1.1 0-.3.2-.4.4-.3.2.1.4 0 .4-.2s1.5-2 3.4-3.9 3.4-3.6 3.4-3.8c0-.2.3-.3.6-.3.4 0 .5-.2.4-.4-.1-.2 0-.4.4-.4.3 0 .6-.2.6-.4s1-1.4 2.3-2.6l5.9-5.7c2-2 3.7-3.5 3.8-3.4.2 0 .9-.6 1.6-1.4l2.2-2.5c.6-.6 1-1.3 1-1.6 0-.3.1-.4.3-.3.3.4 2.5-1.7 2.3-2.2-.2-.1 0-.3.3-.3s1-.4 1.5-1l2.5-2.2c.8-.7 1.4-1.4 1.4-1.6a1649.8 1649.8 0 009.1-9.7c1.2-1.3 2.4-2.3 2.6-2.3.2 0 .4-.3.4-.6 0-.4.2-.5.4-.4.2.1.4 0 .4-.4 0-.3.1-.6.3-.6.2 0 2-1.5 3.8-3.4a27 27 0 014-3.4c.2 0 .2-.2.1-.4s0-.4.3-.4.8-.4 1.1-.8c.3-.5 2.4-2.6 4.5-4.7l5.2-5.2 4.7-5a62 62 0 003.3-3.5 42.5 42.5 0 015.8-5.8l3.4-3.2a70.3 70.3 0 016.6-6c.2-.7 7.7-8.2 8.2-8.2.2 0 .3-.3.3-.7 0-.3.1-.5.2-.4.4.3 1.4-.7 1.4-1.3 0-.2.2-.3.4-.2a46.1 46.1 0 017.8-7.5c.1.1.2 0 .2-.5 0-.3.2-.5.4-.4.4.2.6-.3.4-1.1 0-.2.2-.3.5-.2.3 0 .5-.1.4-.4 0-.3.1-.5.4-.4.3 0 .5-.1.4-.4 0-.3.1-.5.4-.4.3 0 .7-.3.9-.8.2-.5.7-1 1.1-1.1.4-.2.7-.5.7-.9 0-.3.2-.4.4-.3.2.1.7-.2 1.1-.8l1-1c.2 0 .7-.4 1.2-.8s.7-.8.5-.8c-.1 0 0-.3.3-.6l.9-.6c.1 0 1-.7 1.8-1.5s1.9-1.8 2.3-2a87 87 0 017.2-7.5 56 56 0 006.7-7c.3 0 .5-.2.4-.4-.1-.2 0-.4.4-.4s.5-.2.4-.4c-.1-.2 0-.4.4-.4s.5-.2.4-.4c-.1-.2 0-.4.4-.4.3 0 .6-.3.6-.6 0-.4.2-.5.4-.4.2.1.4 0 .4-.4s.1-.6.2-.5c.3.3 2.2-1.5 2.2-2 0-.2.4-.6 1-1 .5-.5.9-1 .8-1.2-.2-.2-.1-.3 0-.2.6.1 3-2 3-2.5 0-.2.2-.3.4-.2.2.1.4 0 .4-.4s.1-.6.2-.5c.3.3 3.8-3 3.8-3.6 0-.2.2-.5.4-.6.9-.3 4.4-3.7 4.4-4.2 0-.4.1-.5.2-.4.2.1 1.3-.8 2.6-2.1a13 13 0 012.8-2.4 406.7 406.7 0 0122.4-22.3c0-.5 3.7-4.3 4-4.2a36.1 36.1 0 017.2-7.1c.3 0 .3-.2.2-.4-.1-.2 0-.4.4-.4.3 0 .8-.4 1-.9.1-.5.5-.9.6-.9.2 0 .4-.1.3-.3 0-.2.1-.3.4-.3.3 0 .8-.4 1.1-1 .3-.5.9-1 1.3-1.2a43.5 43.5 0 015.2-5.5 58 58 0 007.9-9.6c0-.4.2-.7.4-.7s.4-.6.4-1.4c0-.8.2-1.3.4-1.2.2.1.4-2.6.4-6.6 0-4.3-.1-6.8-.4-7-.2-.1-.4-1-.4-1.8 0-.9-.2-1.7-.4-1.8-.2-.1-.4-.6-.4-1 0-1.2-.7-3.3-1.7-5.4-.4-.9-.8-2-.8-2.5s-.2-.8-.4-.6c-.2 0-.3-.2-.3-.7 0-.4-.2-.9-.4-1-.2-.1-.4-.6-.4-1 0-.5-.2-.8-.4-.8s-.4-.4-.4-.8-.2-.8-.4-.8-.4-.4-.4-.8-.2-.8-.4-.8-.4-.4-.4-.8-.2-.8-.4-.8-.4-.4-.4-.8-.1-.8-.3-.8c-.2 0-.6-.6-1-1.4-.2-.8-.7-1.6-1-1.9-.3-.2-.5-.7-.5-1.1 0-.5-.2-.8-.4-.8s-.4-.3-.4-.7c0-.4-.4-1-.8-1.2-.4-.3-.8-.8-.8-1.2 0-.4-.4-1-.8-1.3-.4-.3-.8-1-.8-1.3 0-.4-.2-.6-.4-.5-.2.1-.4 0-.4-.4 0-.3-.2-.6-.4-.6-.1 0-.5-.5-.8-1.2-.3-.7-.7-1.2-.9-1.2-.2 0-.5-.5-.7-1-.2-.6-.6-1-.8-1-.2 0-.4-.3-.4-.6s-.3-.6-.6-.8c-.4 0-.6-.4-.4-.6.1-.2 0-.4-.4-.6-.4 0-.5-.4-.4-.6.1-.2-.2-.5-.6-.6-.4-.1-.8-.6-.8-1 0-.5-.3-.8-.6-.8s-.7-.4-.8-.8c-.1-.4-.4-.7-.6-.6-.2.1-.3 0-.2-.3.2-.6-1.5-2.3-2.3-2.3-.3 0-.3-.1.1-.4.5-.3.5-.4-.1-.4-.4 0-.7-.1-.6-.3 0-.2-.9-1.2-2-2.4a10 10 0 01-2.1-2.6c0-.2 0-.3-.2-.2-.3.2-3.8-3.3-3.8-3.8 0-.2-.1-.3-.2-.2a26.4 26.4 0 01-6.1-6.1c-.5 0-3.7-3.2-3.7-3.7 0-.1-.3-.3-.6-.3-.4 0-.5-.2-.4-.4.1-.2 0-.4-.4-.4s-.6-.1-.4-.3c0-.2-.2-.6-.7-1-.5-.2-1.2-1-1.7-1.4-.5-.5-1.1-.9-1.4-.9-.2 0-.4-.1-.3-.3.2-.2-.3-.6-1-.9l-1-.7c.2-.1-.4-.6-1.2-1.1-.8-.5-1.5-1-1.4-1.4 0-.2 0-.4-.2-.2-.3 0-.5 0-.6-.4-.2-.3-.7-.6-1.1-.6-.5 0-.7-.2-.6-.4.1-.2 0-.4-.4-.4-.3 0-.7-.3-1-.7-.4-.9-2.6-2.2-3-1.8-.2.2-.2 0 0-.2.1-.3 0-.5-.4-.5s-.5-.2-.4-.4c.1-.2-.1-.4-.6-.4-.4 0-.8-.1-.8-.3 0-.2-.9-.9-2-1.5-1-.6-2-1.4-2.2-1.7 0-.3-.5-.5-.8-.5-.3 0-.6-.2-.6-.4s-.4-.4-.8-.4-1-.3-1.3-.7c-.3-.4-.7-.8-1-.8-.3 0-.8-.4-1.2-.7-.3-.3-.9-.6-1.3-.6s-.8-.3-1-.6c-.1-.4-.5-.6-.8-.5-.3.1-.9-.1-1.3-.5-.5-.5-1.1-.8-1.5-.8-.3 0-.6-.2-.6-.4 0-.3-.2-.3-.4-.2-.2.1-.6 0-1-.4-.3-.3-1-.6-1.4-.6-.4 0-.8-.1-.8-.3 0-.4-2-1.3-2.7-1.3l-1.9-.8c-.8-.4-1.9-.8-2.4-.8s-1-.2-1.2-.4c-.1-.2-.8-.4-1.4-.4-.6 0-1.3-.2-1.4-.4-.1-.2-.8-.4-1.4-.4a38.3 38.3 0 00-15-1.1c-.6.4-.7.4-.5 0 .2-.3.3-.5.1-.5l-.4.4M311.6 19c9 2.7 26.2 15.2 40.2 29.2 6.4 6.4 12 12.7 18.8 21.6 10.1 13 14.1 24.8 9.2 27.2-8.1 3.8-31.2-12.2-55.5-38.4a155.7 155.7 0 01-16.6-22.3c-7.7-12.7-6-20.2 4-17.3m-27.8 30.3a190.5 190.5 0 0010.5 16.3 240.7 240.7 0 0035 36c4.4 3.9 10 7.8 18.1 12.7a55 55 0 015.6 3.6c0 .2-6.4 6.8-14.4 14.8l-15.2 15.2A39757 39757 0 01114 356.7a51.5 51.5 0 01-62.7-2.7 54.6 54.6 0 01-15.8-26.4c-1-3.3-1.1-18.5-.3-22a51.6 51.6 0 017.7-17.6C45 284.5 281 47.6 282.3 47.6c.2 0 1 .8 1.6 1.7" fill="#8b9ca4"/><path d="M306.1 19.5c-2.4.4-3.2 4.6-1.7 8.3 2.3 5.6 3 7 6.4 12A193 193 0 00364.1 92l2.2 1.1c19.7 11.7 19.4-3.7-.7-28.5A149.6 149.6 0 00354 51.5a279 279 0 00-21.8-19.6c-11.5-8.6-21.4-13.4-26-12.4m-62.4 67.3c-22.1 22-37.7 38-37.3 38l2.4-.4c7.2-1.6 24.5-2.2 36.1-1.2l9.2.8a285.8 285.8 0 0146.1 8.4c1.1 0 13.4 4.3 16.9 6 3.5 1.5 7.2 4.7 7.2 6 0 .5.1.8.3.8.5 0 26.9-26.6 26.9-27 0-.3-1.3-1.2-3-2.1a177 177 0 01-12.4-8.2 233.3 233.3 0 01-43.4-43.3l-3.4-4.8c-.7-.9-2.5-3.7-4-6.3-1.5-2.6-3-4.7-3.2-4.7-.2 0-17.5 17.1-38.4 38m133 56.3l-2.6 2.7 2.7-2.6a47.5 47.5 0 00-.1-.1" fill="#cbd3db"/><path d="M228.9 123.5h1.4c.4-.1 0-.2-.7-.2-.8 0-1 0-.7.2m15.6.8h2.2c.6-.1.1-.2-1.1-.2-1.2 0-1.7 0-1.1.2m5 .4h1.8c.5-.1 0-.2-.9-.2-1 0-1.4 0-.9.2m6 .4h1.6c.4-.1 0-.2-.9-.2s-1.2 0-.7.2m13 1.6h1.4c.4-.1 0-.2-.7-.2-.8 0-1 0-.7.2m-68 3c-1.2 3.3 11.8 11 22.7 13.5l2.8.8a44 44 0 006.6 1.6 142.5 142.5 0 0010.6 2.4 1129.7 1129.7 0 019.4 1.6 1224.7 1224.7 0 0110.8 1.4c1.5.2 3.2.5 3.7.7 3.4 1.2 38 1.2 43.9 0 .9-.3 3-.7 4.6-1 3-.4 6.1-1.5 6.6-2.2.1-.3-.8 0-2 .5-9.9 3.9-43.9 4.1-64.8.4l-5-.8c-8.6-1.2-25.2-5.2-34-8.3-9.6-3.5-16.2-8-15.3-10.6.2-.7-.3-.6-.5 0m5 33.9c-1.7.2-4.4 2-4.4 2.7 0 .3-.1.5-.3.5-1.6 0-2 6.9-.5 9.5 1.5 2.7 5.6 4.9 8 4.3 11.5-2.8 8.8-19-2.8-17m5.5 1.2c8.6 5 2.2 18.3-6.8 14.2-5.7-2.6-6.2-10.9-1-14a8.6 8.6 0 017.8-.2m-48.4 39.9c-.1.2 1.5.3 3.7.3s3.8-.1 3.7-.3a13 13 0 00-3.7-.3c-2 0-3.6.1-3.7.3m49.8.6c-1.8.8-5.7 4.8-5.7 5.7 0 .3-.2.6-.4.6s-.4.6-.4 1.3c0 1.2 0 1.2.4.3 1.2-4.1 4.7-7.4 9-8.4l1.6-.3h-1.4c-.8 0-2.2.3-3.1.8m8.4-.3c6 1.6 10 7.9 8.8 13.7a12 12 0 01-20.3 6.2c-1-1-1.8-1.6-1.8-1.3 0 .5 2.6 3.2 3.2 3.2.2 0 .4.2.4.4s.3.4.8.4c.4 0 .9.2 1 .4.1.2.7.4 1.2.4s1 .2 1.2.4c.5.9 7.4 0 7.4-.9 0-.2.4-.3.8-.3s.8-.2.8-.4.2-.4.5-.4c.6 0 2.7-1.8 2.7-2.3 0-.2.3-.7.7-1.1 2.3-2.5 2.9-7.9 1.3-11l-.4-1.3c0-1.9-6.5-6.7-9-6.7-1 0-1 .1.7.6m-61.1.8c-6.3 2.8-9.7 12-6.8 18.4 2 4.2 7.3 8.3 10.6 8.1 1.3 0 1.3 0 .2-.2-12.8-1.6-15.2-20.8-3.2-26.1.9-.4 1.3-.7 1-.7-.3 0-1.1.2-1.8.5m11-.4l1.8 1c9 4 10.2 17.3 2 23.2-.9.7-1.3 1.2-1 1.2a19 19 0 005.6-5.4l.8-2.1c2-4.1.6-10.5-3-14.3-2.3-2.2-6.2-4.6-6.2-3.6m35.2 14.4c0 1 .9 3 1.3 3a79.1 79.1 0 01-1-3.2c-.2-.4-.2-.4-.3.2M172 231.2c-.4.3-1.5.6-2.4.8l-1.7.3h1.4c1.5.1 3.6-.6 3.6-1.2 0-.4 0-.4-.9.1m-63 12.8c-1.8 1.3-3.7 4-3.7 5.3 0 .7.1.7.6-.5 1-2.4 2.6-4 4.8-5 1.5-.8 1.8-1 1-1-.5 0-1.7.6-2.6 1.2m9-.1a11 11 0 015.2 6.2l.3 1.3v-1.1c0-.7-.2-1.7-.6-2.2l-1.1-1.9c-.3-.4-1-1.2-1.8-1.7l-1.9-1.3c-.2-.2-.9-.4-1.4-.4-.6 0-.2.3 1.3 1.1m5.1 9.8c-.5 3-3.4 6.2-6.3 7-1.3.4-1.3.4-.3.5 3 0 7.3-4.8 7-7.8-.1-1.2-.1-1.2-.4.3m-17.9 1.1c0 2.1 4.7 6.5 6.9 6.4.7 0 .5-.2-.6-.6-2.2-.6-4-2.3-5.3-4.7-.8-1.6-1-1.8-1-1m37.5 7.7c-1 .3-2.3.8-2.7 1.2-.3.3-.8.6-1 .6-.8 0-4.2 3.9-5.4 6.2-3.3 6-1 15.5 4.8 18.8l1.2 1c0 .3.4.4.9.4.6 0 .4-.3-1.1-1.2-11.3-7.2-8.1-23.7 5.1-26.8 5.1-1.2 12.7 2.1 15 6.5.3.6.6 1 .8 1 .6-.6-3.1-4.8-5.6-6.3-3.2-1.9-8-2.5-12-1.4m18.7 14.4c0 2.5.1 4.4.3 4.3.4-.2.4-7.8 0-8.4-.2-.2-.3 1.6-.3 4.1m-1.2 6.7c-2.3 5-7.5 8-13.3 8-1.8.1-3.3.2-3.3.4 0 .5 6.7.4 7-.1.1-.2.6-.4 1-.4 1.7 0 8-4.4 8-5.7l.8-1.5c.5-.7.8-1.5.7-1.8 0-.3-.5.2-.9 1.1M84.6 298c-2.4.5-6 2.3-7.7 3.9-.8.8-1.6 1.4-1.8 1.4-.2 0-.3.2-.3.4s-.4.8-.8 1.3-.8 1-.8 1.4c0 .3-.2.5-.4.5s-.4.3-.4.7c0 .4.7-.4 1.6-1.8a16.7 16.7 0 0130.3 6.1c1.3 6.6-1.2 12.5-7.1 17.1-.8.6-1.2 1-1 1.1.4 0 1.8-1.1 3.8-3 8.3-7.7 6-22.4-4.2-27.4l-2.7-1.2c-1-.5-6.6-.8-8.5-.5m-13.2 12a8 8 0 00-.6 2.6c0 1.1.1 1 .6-.7l.8-2.7c.2-.4.2-.7 0-.7l-.8 1.4m-.6 7.4c0 1.1.9 3.8 1.4 4.3.3.3.2 0-.8-3.5-.4-1.3-.5-1.5-.6-.8m1.6 5.2c0 1.3 4.7 6.8 5.9 6.8.3 0 .5.1.5.3 0 .2.6.5 1.3.8l2 1 1.6.3c.5 0-.1-.4-1.5-1a16.5 16.5 0 01-8.6-6.8c-.6-1-1.2-1.7-1.2-1.4m20.6 8.4c-1.5.6-1.7.8-1 .8 1 0 3.6-1 3.6-1.4 0-.3-.4-.2-2.6.6m-7.8 1.2c.7.5 3.9.5 5 0 .5-.2-.2-.4-2.4-.4-2.2 0-3 .1-2.6.4" fill="#5cd98a"/><path d="M233.70000000000002 123.5h3.8c1 0 .2-.2-1.9-.2-2 0-3 .1-1.9.2m9.2.4h1.4c.4-.1 0-.2-.7-.2-.8 0-1 0-.7.2m5.6.4h2c.5-.1 0-.2-1.1-.2s-1.5 0-.9.2M124 205.5c-69 69-79.3 79.5-81.2 82.5-4 6.1-6 10.8-7.7 17.6-.8 3.5-.7 18.7.2 22A54.6 54.6 0 0051.2 354l1.3.9a51.5 51.5 0 0061.4 1.8c1.9-1.4 193.7-192.4 209.7-208.9.5-.4.8-1.3.7-2 0-1 0-1-.2-.2a21533 21533 0 01-206.5 206.9 48 48 0 01-12.2 8.3c-7 3.4-10.4 4.2-19.4 4.7a49.5 49.5 0 01-50.2-39 59.4 59.4 0 011.8-27c0-.8 3.2-7 5-10 3.4-5.2 9.8-11.8 78.4-80.3l75.3-75.4c3.3-3.2 6.4-6.2 7.1-6.7 1-.6 1-.7.4-.7s-26.7 26-79.8 79.1m-99.5 51.2c-.8.7-1.3 1.4-1.2 1.5 0 .1.8-.4 1.5-1.2l1.2-1.5c-.1-.1-.8.4-1.5 1.2" fill="#7bb29c"/><path d="M305.4 19.4c-2 .8-2.9 4.3-1.8 6.8.2.5.3-.2.1-1.8-.7-8.8 10.3-6 28.5 7.5 2 1.5 2.2 1.6.8.3-8.7-7.9-23.4-14.7-27.6-12.8m-1.4 8.2l.4 1.2c.3.5.4.5.4 0l-.4-1.2c-.3-.5-.4-.5-.4 0m.8 2.3a10 10 0 001.6 2.8c0-.4-1.2-3.1-1.4-3.1-.1 0-.2.1-.2.3m2.8 5.5c9.3 17.2 37 45.6 54.6 55.8 2.4 1.4 1.2.4-2.4-2a186.8 186.8 0 01-52.2-53.8m29.2 0a244 244 0 0126.1 25.8c1.7.1-17.7-19.3-25.1-25.1-2.2-1.8-2.5-2-1-.6m-93.9 51.4c-21.5 21.5-39 39.2-38.9 39.3l2.4-.6c6.7-2.3 27.3-3.1 41.6-1.6l8.2.7a120 120 0 0113 1.7 90.8 90.8 0 019.8 1.6 90.1 90.1 0 018.2 1.6 168.8 168.8 0 0122.3 5.9 66.3 66.3 0 00-12.3-3.9 285.8 285.8 0 00-52.2-8.4 153.3 153.3 0 00-38.5 1.6c-.7 0 74.7-75.7 75.6-76 .3 0 1.7 2 3.3 4.7a101.4 101.4 0 007.4 11 227.3 227.3 0 0043.4 43.4 177 177 0 0012.4 8.2c1.7.9 3 1.9 3 2 0 .3-6.1 6.6-13.6 14a362.8 362.8 0 00-13.4 13.8c.3.3 27.8-27.3 27.8-27.8 0-.2-1.2-1.1-2.7-2-7.7-4.2-14.6-9.2-24.3-17.3a198.7 198.7 0 01-42.8-50.4c-.5-.4-5.8 4.7-39.7 38.5m122.8-22.3c11.4 14.5 17 26 15 30.4-.5 1.1-1 1.4-3.7 1.8l-2 .3h2.3c4.1-.3 5.2-2.8 3.5-8.4a89 89 0 00-16-25.6c-1-1-.5-.3.9 1.5M364 92.2c0 .2 3.7 2.2 3.9 2l-1.7-1.2c-2-1-2.2-1.1-2.2-.8m5.6 3a6 6 0 002 .8c.3 0-.1-.4-1-.8-2.1-1-2.8-1-1 0m-57.8 41.3c6.9 2.8 11.4 5.7 12.2 7.7.2.5.4.6.4.2 0-1.3-3.8-4.5-7.2-6a52.1 52.1 0 00-7-2.8c-.2 0 .5.4 1.6.9" fill="#abc1c4"/><path d="M217.6 124c-1 .2 9.5.1 10.8-.2l-4.6-.1a45 45 0 00-6.2.3m13.4-.2a95.8 95.8 0 0011.6.2c-1.2-.3-12.4-.5-11.6-.2m-18.8 1l-2 .3h1.8c1 0 2.2-.1 2.6-.3 1-.4.5-.4-2.4 0m35.6 0c.8.3 6.1.6 5.8.3a23.7 23.7 0 00-5.8-.3m10.6.8c.6.2 1.5.3 2 .3.9 0 .9 0-.2-.3-1.7-.4-3.1-.4-1.8 0m5 .8c.8.3 5 .6 4.6.3l-2.8-.4c-1.6-.2-2.3-.1-1.8.1m-60.7 1.1c-4.7 3 1 8.3 13.8 12.8a221.2 221.2 0 0038.9 9.1c16.5 3 42.2 3.6 56.6 1.4 10.5-1.6 14-4 10.8-7.6-.8-1-.8-1 0 .7 1.7 3.3-.9 4.7-11.4 6.3a218.6 218.6 0 01-72-4.4 208.7 208.7 0 01-15.6-3.8c-15.3-3.8-26.2-11.4-20.7-14.2 1.1-.6 1.6-1 1-1a5 5 0 00-1.4.7m67.9-.3c.4.2 1 .3 1.4.3.4 0 .3 0-.2-.3-.4-.2-1-.3-1.4-.3-.4 0-.3 0 .2.3m5.7 1c.5.2 1.2.2 1.6 0l-.9-.1c-.9 0-1.2 0-.7.2m7.1 1.3c.8.3 3.7.6 3.4.3l-2.2-.4c-1.3-.2-1.7-.1-1.2.1m8.7 1.9h1.4c.4-.1 0-.2-.7-.2-.8 0-1 0-.7.2m13.9 3.7l2.4.8c.5-.1-3-1.5-3.8-1.6-.4 0 .2.4 1.4.8m9.2 3.3c.4.4 2.8 1.5 2.8 1.3 0-.2-2.2-1.4-2.6-1.4-.2 0-.3 0-.2.1m3.2 1.6l1.7 1.3c1 .6 1.5.8 1.1.4-.5-.6-2.8-2-2.8-1.7m-115 24.9c-3.6 2.1-4.8 7.7-2.4 11.3 4.8 7.2 15.5 2.4 14-6.2-.8-5-7.2-7.8-11.6-5.1m7.2.2c5.2 2.6 5 10.8-.4 13.2-5.4 2.5-11.1-2.4-9.8-8.4a7 7 0 0110.2-4.8m4.8 39.6c-5.4 1.3-9 5.5-9.3 11-.9 14.3 19.2 17.7 23.3 4 2.5-8.4-5.6-17-14-15m-53.8.8c-2.2.8-2.9 1.3-5.3 3.7-5.4 5.5-5 14.6 1 19.6 2.4 2 4.7 3.1 6.2 3 .8 0 .3-.2-1.4-.8-13.9-4.6-10.5-25.5 4.1-25.5 15.9 0 18.2 22.3 2.8 26.1-.7.2-.6.2.2.3 3 0 8-4 9.9-7.9 4.8-10.7-6.4-22.6-17.5-18.5m61.7 1a11.4 11.4 0 01-4.4 21.3c-10.4 1.2-16.4-12-8.8-19.4 3.6-3.5 9.2-4.3 13.2-2m-57.8 25.8h1.8c.5-.1 0-.2-.9-.2-1 0-1.4 0-.9.2m-55 11.5a9 9 0 00-4.3 12.1c3.5 7 12.7 6.9 16.1 0 3.7-7.4-4.3-15.6-11.7-12.1m7.7 1a8 8 0 014.2 7.3c0 8.5-11.1 11.5-15.5 4a8.3 8.3 0 0111.3-11.3m25.3 18.2a14.6 14.6 0 00-2.5 27.5c14.6 7 28-13.3 15.9-24a14.5 14.5 0 00-13.4-3.5m9.7 1.6c13 6.7 8.5 26.6-6 26.6-12.6 0-19-15.1-10.2-23.9a14.4 14.4 0 0116.2-2.7m-68.1 33.8c-13 2-19 20.3-9.3 28.4 11 9.4 26.4 4.3 28.5-9.5 1.7-11-8-20.6-19.2-19m7.9 1.3c17 5.5 12.8 31.6-5.2 31.6-14.4 0-21.6-18.1-11.1-28 4.7-4.4 10-5.6 16.3-3.6" fill="#4cd47c"/><path d="M304.9 19c-1.3 1-2.1 2.7-2 4.7v1.7l.3-2c1-7.3 9.6-5.6 24.6 4.9 1.7 1.2 3 2 2.7 1.6-1-1.1-9.6-6.7-13.2-8.5-5.9-2.9-10.4-3.8-12.4-2.4m-1.7 6.9a34 34 0 004.5 10.4 155.7 155.7 0 0016.6 22.3c24.3 26.2 47.4 42.2 55.5 38.4 4.9-2.4 1-14.2-9.2-27.2a205.2 205.2 0 00-39.4-39.3c0 .1 2.1 2 4.8 4C367.4 60 392 97.1 376.8 97c-17-.2-64.4-45.2-72.7-69-.5-1.4-1-2.4-1-2.1m-60.5 60.8a5541 5541 0 00-39.1 39.3l39.2-39c33.6-33.5 39.3-39 39.8-38.6.4.3 2 2.7 3.5 5.4a142.7 142.7 0 0012.2 16.8 127.8 127.8 0 01-11.9-17.2c-2-3.6-3.6-5.8-4.1-5.8-.3 0-18.1 17.6-39.6 39.1M302.4 76a236.1 236.1 0 0021.7 21.1c-2.5-2-12.6-12-18.7-18.3-2.6-2.8-4-4-3-2.8m24 23.5a137 137 0 0023.3 16.7c1.5.8 2.7 1.7 2.7 1.9 0 .2-6.3 6.7-14 14.4l-13.7 13.9c.6 0 28.7-28.4 28.4-28.7l-5.7-3.5c-8.3-5-12.6-8-19.5-13.8-.8-.7-1.5-1.1-1.5-1" fill="#a4afbc"/></g></svg>