<svg xmlns="http://www.w3.org/2000/svg" viewBox="0 0 400 400"><defs/><g fill-rule="evenodd"><path d="M192 4.4c0 .1-2.3.3-5 .4a120 120 0 00-10.3.9 201.9 201.9 0 00-62.9 18.1 192 192 0 00-53.7 38.3A196.2 196.2 0 0098 369.8l4.5 2.7a208.4 208.4 0 0074 24 83.4 83.4 0 017 .7 337.2 337.2 0 0030.2.2 197.1 197.1 0 00150.2-88.5A196.6 196.6 0 00247 10.2a224.3 224.3 0 00-33.8-5.4c-1.5-.2-21-.5-21.2-.4M226.4 30c29.8 5.3 50 24.1 50 46.7 0 26-26.9 46.6-61.6 47.5l-7 .2-1.1 2a45 45 0 01-30.6 22.7l-2.3.4-1 2c-10 23.2-46 21.4-53.5-2.7a26 26 0 015.3-23.8l2-2.2-1-2.8A44.5 44.5 0 01149 65.4c2.8-1.3 2.8-1.3 3.4-3 5.4-15 24.5-28.4 45.8-32.2 7.8-1.4 21.1-1.5 28.2-.2m-43.3 41.5c0 1 0 1.3.1.7a6 6 0 000-1.6l-.1.9m37 9.4h1.2c.3 0 0-.2-.6-.2-.7 0-1 .1-.6.2m15.4 15.7v1.9h16v-3.7 1.8l-.2 1.7h-15.6l-.1-1.8-.2-1.8v1.9m6.1 30.9c25.6 5.5 35.9 29.4 20 46.7-11.4 12.5-35 15.1-49.8 5.5l-2.5-1.6-2 1.3a16 16 0 01-8.8 2.6H196l-1.5 1.5c-4 4-10 5.2-15 2.9a13.2 13.2 0 01-.3-24c2.1-1 2.5-1.2 2.8-2.3 2.1-6.6 8.8-11.7 15.3-11.8 1.1 0 1.2 0 1.8-1.6a34.7 34.7 0 0126.6-19.3l3.3-.5c1.7-.3 10.2.1 12.5.6m-81 55.5l-.1 7.3h-27.6v-.7l.7-7.3.6-6.6h26.4v7.3m24.4 8h12.4v14.7H169.6l.2-1.6.7-7.1c.6-6.3.6-6.5 1.4-6.2.3.1 6.1.2 13 .2m-24.5 16.3l.1 7h-30.2l.2-1.2a317.7 317.7 0 001.4-12.8c0-.2 6.5-.3 14.3-.2h14.2v7.2m37 15.2v7.2h-15c-8.3 0-15-.1-15-.3a527.6 527.6 0 011.3-13.7c0-.3 3-.4 14.3-.4h14.3v7.2m-37 1.8c0 50.4.1 74.5.2 74.2l.8-7.5a6108 6108 0 015-51.5s7-.2 15.5-.2h15.5l.1 24.1.1 24 5.1-7a23109.6 23109.6 0 0123-32l3.2-4.5.2 21.6.2 21.6 1.3-2 5-7a7388.3 7388.3 0 0024.6-33.8c.1 0 .3 9.6.3 21.4l.1 21.3 3.9-5.4A2265.4 2265.4 0 01285 253a474.2 474.2 0 006.4-8.7c.1 0 .3 19 .3 42.3l.1 42.2 6.3.1 6.2.1v15H102.7v-7.5l.1-7.5h7.9c4.3 0 8-.1 8.2-.2.2-.2.8-5.8 1.6-13.1a17960.4 17960.4 0 018.8-91.3c0-.3 2.7-.4 15.5-.4 8.6 0 15.5.1 15.5.3m37 76v4h12.3l12.2-.1.1-3.3c.2-5 1.5-4.6-12.6-4.6h-12v4m31.6-3.8l-.2 4v3.8H253v-3.8c0-2.9-.1-3.8-.5-4a347 347 0 00-23.6 0m31 0l-.2 4v3.8h12.2l12.3-.1v-3.6c0-3.2 0-3.6-.6-4-.6-.3-23.4-.4-23.7 0m-63.2 16.7v4H221v-8H196.7v4m31.3-3.9l-.2 4-.2 4H252.3v-8H228m31 4v4H283.3v-8H259v4" fill="#7c8484"/><path d="M206.8 29.2c-26 2.4-47.7 15.8-54.3 33.6-.5 1.3-.8 1.7-1.6 2a44.6 44.6 0 00-25.2 54.8c1.1 3.5 1.1 3.5.4 4a25.2 25.2 0 00-7.5 20.8c2.7 21 28.5 30.7 46 17.3 3.7-2.8 8.7-9.7 8.7-11.9 0-.2 1.3-.6 2.8-1a45 45 0 0030.5-22.6l1-2h6.3c51.8-.8 80.7-45.2 49.4-76.2a74.1 74.1 0 00-56.5-18.8m-5.8 29a9.4 9.4 0 015.3 7.3c.3 1.4.2 1.5-.4 1.7l-5.7.8-.2-1c0-5-7.6-6.2-10-1.5a25 25 0 00-.6 11c.8 3.4 5 5.1 8.7 3.5 1-.5 1.6-1.5 2-3.5.3-1 .6-1.7.8-1.7l3 .3 2.8.3-.2 1.4c-1.5 10.2-17.7 12.6-22 3.2-3-6.9-1.5-17.7 3.1-20.8 3-2 10-2.5 13.4-1m23.8-.4c6.2 1.6 9 7.5 7.9 16.7-1 7.7-4.6 11-12.2 11-8.3 0-11.5-3.5-11.8-13-.4-12 5.7-17.5 16.1-14.7m-7 5.2c-4.5 1.8-4.5 14.8 0 17 6 2.9 10.1-2.4 9-11.2-.8-5.2-4.5-7.7-9-5.8m30.5 14c3.1 1.2 4.3 5.7 2.3 9-.4.6-2 1.9-4.5 3.4-3.7 2.3-6.1 4.3-6.1 5 0 .1 2.3.3 5.8.3h5.9v4h-16.4v-2.1c0-4.5 1.4-6.4 7-9.8 4.1-2.4 4.4-2.7 4.4-4.2.1-2.5-5.4-2.9-6.4-.4-.3.9 0 .9-3.8.3-1.3-.2-1.4-.7-.1-2.8 1.7-2.8 7.9-4.2 11.9-2.7M229 127c-13.3 1.3-25.2 9-29.6 19.3l-.9 2-1.9.2c-6.8.8-14.7 7.3-14.7 12.2 0 .4-.7 1-2.4 1.7a13 13 0 1014.4 21.3l1.8-1.8h2.8c3.7-.2 6.6-1.2 10.1-3.6.4-.3.8-.2 2 .6 16.3 11.2 42.4 7.4 53.1-7.7 15-21-5.4-47-34.7-44.2m-95 50.3l-1.1 12.3v.7H160.3v-14.6h-25.9l-.2 1.6m37 14.8c-.3 1.7-1.2 11.3-1.2 12.5v1H197.3V191h-26l-.1 1M2.4 196.3c0 .9.1 1.2.2.7a6 6 0 000-1.7c-.1-.4-.2 0-.2 1M132 201a255 255 0 00-1.2 12.5v.7h29.6v-14H132l-.1.8M2.4 205.8c0 .8 0 1 .2.6v-1.3c-.1-.3-.2 0-.2.7m166.4 10c-.2.9-1.2 12.9-1 13.4.2.4 2 .5 14.9.5h14.6v-14.4h-14.1c-11 0-14.3.1-14.4.4m-39.3 9l-.6 6.3a69408.5 69408.5 0 01-9.6 97.8l-8.2.3h-8.3v14.4h201.4v-14.3l-6.4-.1-6.5-.1v-42.2l-.1-42.2-1.4 2-1.5 2c0 .2-2.5 3.5-5.3 7.4a7945.5 7945.5 0 01-22.7 31.3c-.2 0-.3-9.6-.4-21.3v-21.4l-1.4 2a1057.3 1057.3 0 01-17.5 24.2 15289 15289 0 00-12 16.4v-21.3c0-11.7-.1-21.2-.3-21.2a11451.8 11451.8 0 01-28.6 39.3l-2.6 3.7v-24.2l-.2-24.2h-30.6l-.2.8-.8 7.9a11152 11152 0 01-5.2 51.8l-.1-37.7V224H129.6l-.2.8m92.5 75.5v4H197.3v-8H222v4m31-3.6l.1 4v3.6h-24.8v-8h12.4a52 52 0 0112.3.4m31.3 3.6v4h-24.6v-8h24.6v4m-63 13v4h-24.6v-8h24.6v4m31 0v4h-24.6v-8h24.6v4m31.4 0v4H259v-2.6a75 75 0 00-.1-5.1c0-.2 5.7-.3 12.5-.3h12.3v4" fill="#fbfbfb"/><path d="M192.5 57.7c-6.7 1-9 4.4-9 13.8 0 10.4 2.9 14 11.5 14 6.6 0 10-2.6 11.4-8.9.3-1 .2-1-3.8-1.5l-2-.2-.1 1.4c-.8 5.1-8 6.2-10.7 1.7-1-1.9-1-11 .2-13 2.4-4.1 8.9-3.5 10 1 .5 1.9.4 1.8 3.8 1.3l2.6-.4-.2-1.2c-.9-4.7-3.6-7.3-8.4-8-2.6-.4-2.6-.4-5.3 0m25.5 0c-6.4 1-9.3 5.3-9.3 14 0 9.5 4.4 14.3 13 13.8 6.9-.4 10.5-4.5 10.9-12.7.6-11.3-4.6-16.7-14.6-15.1m6.3 5.5c3.5 2.7 4 13.1.5 16a6.2 6.2 0 01-9.8-2c-1.3-2.9-.7-11 1-13s6.2-2.5 8.3-1m15.9 14c-2.4.9-4.5 3.1-4.5 4.7 0 1 4 .8 5-.3 2-2.3 6.3-1.5 6.3 1 0 1.4-1 2.3-4.8 4.6-5.2 3-6.5 4.8-6.5 8.8v2.3h15.6v-3.6h-5.6c-4.5 0-5.7-.1-5.7-.5 0-.7 2.4-2.7 5.2-4.4 6-3.6 7.8-7 5.4-10.5-1.6-2.4-7-3.5-10.4-2.1" fill="#050505"/><path d="M190 4.6h1.4c.4-.1 0-.2-.7-.2-.9 0-1.2 0-.8.2m28.5 24.6h1.2l-.6-.1c-.6 0-.9 0-.6.1m38.3 13l1 .8c.5.4 1 .6 1 .5l-1-.8-1-.6m-94.5 6l-1.7 1.7 1.8-1.6 1.7-1.8c0-.2-.3 0-1.8 1.7m101.3-.1l1.5 1.3-1.2-1.3a9.3 9.3 0 00-1.4-1.3l1.1 1.3m70.2 9.4l1 1.1 1.1 1-1-1c-.9-1-1.1-1.3-1.1-1m-274.2 5l-1 1 1-1c1-.9 1.3-1.2 1-1.2l-1 1.1m135 .2h1c.4-.1.1-.2-.5-.2s-.9 0-.6.2m25.7 0h1.2c.3-.1 0-.2-.6-.2-.7 0-1 0-.6.2m-73.5 4c-1.3.6-1.2.9 0 .2l1-.6c0-.3 0-.2-1 .3m67.8 5c0 1.5.1 2 .2 1.2v-2.6c-.1-.7-.2 0-.2 1.4m18.4 0c0 1 0 1.3.1.7a6 6 0 000-1.6l-.1.9m-97 3.3l-2 2 2.1-2c2-1.8 2.3-2.1 2-2.1l-2 2m140.2-1c0 .6 0 .9.1.5v-1.1l-.1.6m-32.9 2.9h1.6c.4-.1 0-.2-.8-.2s-1.2 0-.8.2m32.9 3c0 .7 0 1 .1.7V79l-.1.6m-32.7.9h1.2c.3-.1 0-.2-.6-.2s-.9 0-.6.2m8 1.9c0 .7 0 1 .2.6v-1.4c-.1-.3-.2 0-.2.8m-128 19.3c0 .8 0 1 .2.6v-1.3c-.1-.3-.2 0-.2.7m137 6.3l-.9 1 1-1 1.2-1c0-.3-.3 0-1.2 1m-53 16.1a1 1 0 00-.2.6c0 .2.1.2.3 0 .1-.2.7-.5 1.2-.6l1-.1h-1l-1.2.1m10 0h1.3l-.7-.1c-.8 0-1 0-.6.1m12.7 2.7h1.3c.3 0 0-.2-.8-.1-.7 0-1 0-.5.1m4.8 0h1.2c.3 0 0-.2-.6-.2-.7 0-1 .1-.6.2m-36.6 10.2l-2.3 2.4 2.4-2.3a46 46 0 00-.1-.1m6.8.5l-2.1 2.2 2.2-2.1a39.5 39.5 0 000-.1m55.4 0c1.1 1.2 2 2 2.2 2l-1.8-2c-1.1-1-2-2-2.2-2 0 0 .7 1 1.8 2m-135.3 21.7a14 14 0 001.8 1.7l-1.5-1.7a14 14 0 00-1.8-1.6l1.5 1.6m50 5.8l-1.3 1.4 1.4-1.3c1.3-1.2 1.6-1.5 1.3-1.5l-1.4 1.4m-32.4 2.8h1.2c.3 0 0-.2-.6-.2-.7 0-1 .1-.6.2m5.7 0h1.1c.3 0 0-.2-.6-.2s-.9.1-.6.2m23 6.4c0 1.4.1 2 .2 1.3V173c0-.7-.1-.1-.1 1.2m88.7.8l-1.7 1.7 1.8-1.6 1.7-1.8c0-.2-.3 0-1.8 1.7m-47.5 5.4c0 .2 2.7 1.6 2.9 1.4l-1.4-.8-1.5-.6m18.6 5H233.2h-1.6m-47.5 2h.9-1M2.9 189.3c0 .7 0 1 .1.5v-1.3c0-.3-.2 0-.1.8m129 11a1 1 0 00-.1.6c0 .2 0 .2.2 0 .3-.4 3.3-.5 14.5-.4 7.8 0 14.1 0 14-.2-.1-.3-28.2-.3-28.5 0m35.4 28.5c0 .5.2 1 .3 1 .2 0 .2-.5.1-1 0-.6-.2-1-.2-1-.1 0-.2.4-.2 1M228 245l-.8 1 1-.9c.5-.5.8-1 .7-1 0-.2-.5.3-1 .9m31.6-.4a169.7 169.7 0 01.5 21.3c0 11.7.1 21.3.3 21.3 0 0 .2-9.6.1-21.5 0-20-.2-22.3-1-21m31.4 0a675.8 675.8 0 01.5 42.1c0 23.1.1 42.1.3 42.1.1 0 .2-19 .1-42.3 0-26-.2-42.4-.3-42.4-.2 0-.5.2-.6.4m-33.1 2.6l-.6 1c.1 0 .5-.4.9-1 .4-.5.6-1 .5-1l-.8 1m-37.4 8.4c-.4.5-.6 1-.5 1l.9-1 .5-1s-.5.4-.9 1M250 258l-.5 1 .8-1 .6-1c-.1 0-.5.4-.9 1m30.3 1.3l-.5 1s.5-.4.9-1c.4-.5.6-1 .5-1l-.9 1m-116.2 3.4c0 .6 0 .9.1.6V262l-.1.6m108.6 7.3l-.6 1c.1 0 .5-.4.9-1l.5-1-.8 1m-64.4 2.3l-.5 1s.5-.4.9-1c.4-.5.6-1 .5-1l-.9 1m-45.6 4c0 .7.1 1 .2.6v-1.1c0-.4-.2-.1-.2.5m72.6 2l-.5 1s.5-.4.9-1c.4-.5.6-1 .5-1l-.9 1m-4.3 6l-.5 1 .8-1 .6-1-.9 1m-69.3 2c0 .7.1 1 .2.6v-1.1c0-.4-.2-.1-.2.5m66.7 14.1c0 4.2.2 3.7.3-1.3l-.1-2.8a17 17 0 00-.2 4.1m-7.3 13c0 2.2 0 3.2.1 2a44.5 44.5 0 000-2m62.3 0v2a44.5 44.5 0 000-2m54.8 26.9l-1.1 1.2 1.2-1.1 1.3-1.3c0-.3-.3 0-1.4 1.1m-235.6 3.6s45.3.2 100.8.2 100.8-.1 100.8-.3c0 0-45.3-.2-100.8-.2s-100.8.1-100.8.3m94.9 54.1h2l-1.1-.1c-1.1 0-1.5 0-1 .1m5 0h2c.6 0 .1-.1-1-.1s-1.5 0-1 .1" fill="#c4c4c4"/></g></svg>