<svg id="svg" version="1.1" xmlns="http://www.w3.org/2000/svg" xmlns:xlink="http://www.w3.org/1999/xlink" width="400" height="400" viewBox="0, 0, 400,400"><g id="svgg"><path id="path0" d="M192.000 4.427 C 191.908 4.509,189.658 4.674,187.000 4.793 C 184.342 4.913,181.717 5.075,181.167 5.153 C 180.617 5.231,178.592 5.461,176.667 5.663 C 158.352 7.591,134.893 14.000,119.000 21.417 C 117.808 21.973,115.483 23.060,113.833 23.832 C 94.811 32.735,76.399 45.873,60.147 62.140 C 35.889 86.420,17.838 117.332,9.521 148.833 C 9.037 150.667,8.505 152.617,8.340 153.167 C 7.047 157.463,4.749 170.530,3.504 180.667 C 0.427 205.715,4.053 238.434,12.719 263.833 C 15.247 271.244,16.758 275.105,19.482 281.113 C 20.134 282.550,20.667 283.796,20.667 283.880 C 20.667 284.237,25.578 293.795,27.578 297.331 C 44.469 327.189,69.395 352.857,97.943 369.791 C 99.836 370.914,101.861 372.120,102.443 372.469 C 116.968 381.206,143.906 391.144,161.333 394.196 C 161.792 394.276,162.842 394.480,163.667 394.649 C 164.492 394.818,165.842 395.052,166.667 395.168 C 167.492 395.284,169.539 395.588,171.217 395.843 C 172.895 396.099,175.220 396.394,176.384 396.500 C 177.548 396.605,178.950 396.755,179.500 396.833 C 180.050 396.910,181.775 397.059,183.333 397.165 C 184.892 397.270,186.917 397.432,187.833 397.525 C 190.842 397.829,208.733 397.705,213.500 397.347 C 246.861 394.837,277.845 384.426,306.385 366.135 C 310.107 363.750,321.610 355.473,322.333 354.658 C 322.425 354.555,323.804 353.390,325.397 352.068 C 331.270 347.198,341.698 337.042,346.515 331.500 C 347.790 330.034,348.998 328.684,349.199 328.500 C 350.943 326.910,359.773 315.066,363.791 308.928 C 405.570 245.101,406.794 163.341,366.944 98.231 C 361.679 89.629,352.208 76.702,347.897 72.234 C 347.495 71.818,346.267 70.443,345.167 69.179 C 324.176 45.056,291.938 24.190,259.655 13.831 C 254.915 12.311,249.394 10.705,248.023 10.450 C 247.578 10.367,247.113 10.236,246.989 10.160 C 245.460 9.215,224.357 5.701,216.833 5.138 C 215.367 5.029,213.717 4.879,213.167 4.806 C 211.654 4.604,192.191 4.256,192.000 4.427 M226.434 29.957 C 256.206 35.289,276.333 54.129,276.333 76.667 C 276.333 102.620,249.530 123.339,214.791 124.237 L 207.748 124.420 206.661 126.460 C 200.533 137.958,188.377 146.947,176.112 149.050 L 173.763 149.452 172.878 151.485 C 162.777 174.671,126.878 172.893,119.334 148.833 C 116.887 141.029,119.096 131.038,124.605 124.989 L 126.589 122.812 125.652 119.989 C 118.464 98.332,128.520 74.823,149.000 65.408 C 151.759 64.140,151.849 64.062,152.434 62.431 C 157.794 47.486,176.946 33.982,198.167 30.184 C 205.974 28.786,219.302 28.679,226.434 29.957 M183.095 71.500 C 183.098 72.417,183.163 72.752,183.239 72.245 C 183.316 71.739,183.314 70.989,183.235 70.579 C 183.156 70.169,183.093 70.583,183.095 71.500 M220.083 80.896 C 220.404 80.980,220.929 80.980,221.250 80.896 C 221.571 80.813,221.308 80.744,220.667 80.744 C 220.025 80.744,219.762 80.813,220.083 80.896 M235.473 96.582 L 235.500 98.500 243.500 98.500 L 251.500 98.500 251.525 96.667 L 251.550 94.833 251.425 96.583 L 251.300 98.333 243.500 98.333 L 235.700 98.333 235.573 96.498 L 235.445 94.663 235.473 96.582 M241.500 127.489 C 267.069 133.008,277.372 156.945,261.590 174.167 C 250.131 186.671,226.557 189.300,211.665 179.734 L 209.163 178.127 207.187 179.403 C 204.541 181.110,201.545 182.000,198.446 182.000 L 195.961 182.000 194.518 183.464 C 190.455 187.586,184.551 188.726,179.484 186.369 C 169.243 181.605,169.057 167.352,179.172 162.487 C 181.324 161.452,181.672 161.156,182.019 160.070 C 184.108 153.529,190.839 148.371,197.333 148.337 C 198.413 148.331,198.547 148.212,199.128 146.749 C 202.935 137.157,213.982 129.090,225.667 127.370 C 227.042 127.168,228.542 126.936,229.000 126.856 C 230.662 126.564,239.223 126.998,241.500 127.489 M160.441 183.008 L 160.382 190.349 146.608 190.342 L 132.833 190.335 132.872 189.584 C 132.894 189.171,133.184 185.871,133.517 182.250 L 134.123 175.667 147.312 175.667 L 160.500 175.667 160.441 183.008 M184.861 191.000 L 197.333 191.000 197.333 198.333 L 197.333 205.667 183.469 205.667 L 169.604 205.667 169.803 204.083 C 169.912 203.213,170.232 200.025,170.514 197.000 C 171.097 190.743,171.145 190.523,171.863 190.799 C 172.152 190.909,178.001 191.000,184.861 191.000 M160.430 207.250 L 160.500 214.333 145.413 214.333 L 130.325 214.333 130.495 213.083 C 130.588 212.396,130.901 209.288,131.191 206.177 C 131.481 203.066,131.791 200.401,131.881 200.256 C 131.970 200.111,138.415 200.032,146.202 200.080 L 160.361 200.167 160.430 207.250 M197.333 222.500 L 197.333 229.667 182.333 229.667 C 174.083 229.667,167.334 229.554,167.336 229.417 C 167.337 229.279,167.634 226.242,167.996 222.667 C 168.358 219.092,168.657 215.979,168.660 215.750 C 168.665 215.423,171.759 215.333,183.000 215.333 L 197.333 215.333 197.333 222.500 M160.334 224.250 C 160.374 274.723,160.436 298.763,160.524 298.500 C 160.586 298.317,160.943 294.942,161.316 291.000 C 161.690 287.058,162.519 278.546,163.158 272.084 C 164.721 256.270,166.333 239.740,166.333 239.516 C 166.333 239.415,173.307 239.333,181.831 239.333 L 197.329 239.333 197.414 263.401 L 197.500 287.468 202.643 280.317 C 205.472 276.385,211.086 268.592,215.119 263.000 C 219.153 257.408,223.888 250.818,225.643 248.354 L 228.833 243.875 229.000 265.466 L 229.167 287.057 230.520 285.112 C 231.265 284.042,233.504 280.917,235.496 278.167 C 241.368 270.063,256.754 248.675,258.337 246.417 C 259.141 245.271,259.917 244.333,260.063 244.333 C 260.209 244.333,260.367 253.943,260.414 265.688 L 260.500 287.042 264.383 281.604 C 266.518 278.614,269.732 274.142,271.524 271.667 C 273.317 269.192,276.237 265.142,278.012 262.667 C 279.788 260.192,282.922 255.842,284.976 253.000 C 287.030 250.158,289.247 247.046,289.903 246.083 C 290.558 245.121,291.223 244.333,291.379 244.333 C 291.536 244.333,291.702 263.346,291.749 286.583 L 291.833 328.833 298.083 328.924 L 304.333 329.015 304.333 336.507 L 304.333 344.000 203.494 344.000 L 102.654 344.000 102.744 336.477 L 102.833 328.953 110.667 328.978 C 114.975 328.991,118.661 328.889,118.857 328.751 C 119.060 328.608,119.749 322.964,120.456 315.667 C 121.139 308.608,122.363 296.083,123.177 287.833 C 126.040 258.805,129.333 224.895,129.333 224.450 C 129.333 224.079,132.042 224.000,144.833 224.000 C 153.358 224.000,160.333 224.112,160.334 224.250 M197.333 300.337 L 197.333 304.342 209.583 304.254 L 221.833 304.167 221.929 300.917 C 222.077 295.865,223.365 296.333,209.322 296.333 L 197.333 296.333 197.333 300.337 M228.900 296.544 C 228.772 296.673,228.667 298.478,228.667 300.556 L 228.667 304.333 240.833 304.333 L 253.000 304.333 253.000 300.536 C 253.000 297.604,252.895 296.698,252.537 296.560 C 251.836 296.291,229.169 296.276,228.900 296.544 M259.865 296.580 C 259.756 296.689,259.667 298.480,259.667 300.560 L 259.667 304.342 271.917 304.254 L 284.167 304.167 284.223 300.580 C 284.273 297.356,284.214 296.960,283.640 296.652 C 282.960 296.288,260.225 296.219,259.865 296.580 M196.667 313.349 L 196.667 317.333 208.833 317.333 L 221.000 317.333 221.000 313.326 L 221.000 309.319 208.833 309.342 L 196.667 309.364 196.667 313.349 M227.972 309.434 C 227.957 309.470,227.867 311.262,227.774 313.417 L 227.603 317.333 239.968 317.333 L 252.333 317.333 252.333 313.338 L 252.333 309.342 240.167 309.355 C 233.475 309.362,227.987 309.397,227.972 309.434 M259.000 313.333 L 259.000 317.333 271.167 317.333 L 283.333 317.333 283.333 313.333 L 283.333 309.333 271.167 309.333 L 259.000 309.333 259.000 313.333 " stroke="none" fill="#7c8484" fill-rule="evenodd"></path><path id="path1" d="M206.833 29.241 C 180.708 31.637,159.096 44.977,152.482 62.788 C 152.013 64.052,151.655 64.488,150.857 64.765 C 146.626 66.235,140.605 70.320,136.316 74.632 C 124.363 86.644,120.532 102.925,125.728 119.625 C 126.797 123.061,126.800 123.086,126.138 123.625 C 121.032 127.781,117.692 137.013,118.635 144.366 C 121.336 165.430,147.059 175.135,164.645 161.725 C 168.298 158.939,173.333 152.035,173.333 149.811 C 173.333 149.606,174.576 149.193,176.095 148.895 C 188.913 146.376,200.426 137.819,206.617 126.207 L 207.662 124.248 213.914 124.159 C 265.741 123.415,294.568 78.997,263.343 48.000 C 250.076 34.831,227.523 27.344,206.833 29.241 M201.004 58.222 C 203.805 59.470,205.646 61.995,206.297 65.483 C 206.559 66.883,206.524 67.021,205.874 67.159 C 205.134 67.316,200.509 68.000,200.186 68.000 C 200.084 68.000,200.000 67.543,200.000 66.983 C 200.000 61.958,192.372 60.844,190.000 65.523 C 189.112 67.275,188.793 73.404,189.433 76.424 C 190.164 79.874,194.471 81.623,198.131 79.956 C 199.122 79.504,199.713 78.502,200.170 76.500 C 200.379 75.583,200.689 74.837,200.859 74.841 C 201.028 74.846,202.421 74.970,203.955 75.118 L 206.743 75.386 206.536 76.776 C 205.008 87.013,188.755 89.422,184.543 80.036 C 181.432 73.103,183.047 62.263,187.645 59.220 C 190.650 57.232,197.615 56.711,201.004 58.222 M224.849 57.789 C 231.018 59.432,233.765 65.305,232.661 74.495 C 231.734 82.206,228.083 85.508,220.500 85.491 C 212.224 85.473,209.049 81.971,208.740 72.523 C 208.346 60.502,214.365 54.997,224.849 57.789 M217.833 62.985 C 213.343 64.842,213.312 77.811,217.792 79.980 C 223.756 82.867,227.921 77.646,226.734 68.773 C 226.042 63.597,222.275 61.147,217.833 62.985 M248.292 77.046 C 251.400 78.219,252.578 82.717,250.614 85.913 C 250.190 86.602,248.553 87.867,246.084 89.413 C 242.375 91.734,240.000 93.660,240.000 94.344 C 240.000 94.540,242.301 94.667,245.833 94.667 L 251.667 94.667 251.667 96.667 L 251.667 98.667 243.500 98.667 L 235.333 98.667 235.335 96.583 C 235.339 92.119,236.695 90.230,242.338 86.830 C 246.421 84.371,246.699 84.106,246.740 82.640 C 246.812 80.117,241.257 79.738,240.320 82.202 C 239.983 83.088,240.241 83.069,236.483 82.482 C 235.153 82.274,235.140 81.829,236.400 79.747 C 238.103 76.935,244.283 75.531,248.292 77.046 M229.084 127.019 C 215.802 128.261,203.931 135.994,199.451 146.325 L 198.597 148.294 196.715 148.506 C 189.897 149.274,182.000 155.819,182.000 160.701 C 182.000 161.135,181.297 161.640,179.583 162.438 C 169.456 167.152,169.304 181.164,179.326 186.102 C 184.052 188.431,190.308 187.391,194.043 183.655 L 195.762 181.936 198.631 181.852 C 202.311 181.745,205.196 180.719,208.700 178.272 C 209.123 177.977,209.537 178.108,210.700 178.906 C 226.960 190.067,253.136 186.258,263.831 171.175 C 278.724 150.171,258.353 124.284,229.084 127.019 M134.190 177.250 C 133.876 179.666,133.002 188.735,133.001 189.583 L 133.000 190.333 146.667 190.333 L 160.333 190.333 160.333 183.000 L 160.333 175.667 147.365 175.667 L 134.396 175.667 134.190 177.250 M171.189 192.083 C 170.910 193.805,169.999 203.390,169.999 204.583 L 170.000 205.667 183.667 205.667 L 197.333 205.667 197.333 198.333 L 197.333 191.000 184.348 191.000 L 171.364 191.000 171.189 192.083 M2.429 196.167 C 2.431 197.083,2.496 197.419,2.573 196.912 C 2.649 196.405,2.647 195.655,2.568 195.245 C 2.489 194.835,2.426 195.250,2.429 196.167 M131.853 201.083 C 131.666 201.962,130.667 212.496,130.667 213.588 L 130.667 214.333 145.500 214.333 L 160.333 214.333 160.333 207.333 L 160.333 200.333 146.173 200.333 L 132.013 200.333 131.853 201.083 M2.417 205.833 C 2.421 206.567,2.489 206.827,2.569 206.413 C 2.649 205.998,2.646 205.398,2.562 205.079 C 2.479 204.761,2.414 205.100,2.417 205.833 M168.848 215.750 C 168.557 216.678,167.604 228.690,167.785 229.160 C 167.955 229.603,169.834 229.667,182.656 229.667 L 197.333 229.667 197.333 222.500 L 197.333 215.333 183.156 215.333 C 172.106 215.333,168.950 215.425,168.848 215.750 M129.528 224.763 C 129.448 225.168,129.147 227.975,128.858 231.000 C 128.569 234.025,126.308 257.236,123.833 282.581 C 121.358 307.926,119.333 328.736,119.333 328.825 C 119.333 328.915,115.621 329.028,111.083 329.078 L 102.833 329.167 102.833 336.333 L 102.833 343.500 203.500 343.500 L 304.167 343.500 304.167 336.333 L 304.167 329.167 297.751 329.076 L 291.336 328.986 291.251 286.786 L 291.167 244.586 289.838 246.543 C 289.107 247.619,288.424 248.575,288.321 248.667 C 288.217 248.758,285.819 252.058,282.991 256.000 C 280.163 259.942,276.271 265.357,274.341 268.034 C 272.412 270.711,268.508 276.144,265.667 280.107 C 262.825 284.071,260.389 287.318,260.252 287.323 C 260.116 287.329,259.966 277.720,259.919 265.971 L 259.833 244.609 258.473 246.555 C 257.725 247.625,255.167 251.200,252.788 254.500 C 250.410 257.800,245.112 265.150,241.015 270.833 C 236.918 276.517,232.578 282.544,231.370 284.226 C 230.163 285.909,229.131 287.242,229.078 287.189 C 229.024 287.135,228.976 277.546,228.971 265.879 C 228.966 254.212,228.858 244.672,228.731 244.679 C 228.604 244.685,226.914 246.898,224.976 249.595 C 217.129 260.517,209.042 271.745,206.027 275.907 C 204.270 278.331,201.633 281.984,200.167 284.023 L 197.500 287.733 197.414 263.533 L 197.329 239.333 182.004 239.333 L 166.679 239.333 166.506 240.083 C 166.411 240.496,166.029 244.058,165.657 248.000 C 164.997 255.004,164.202 263.180,161.816 287.500 C 161.168 294.100,160.581 299.650,160.512 299.833 C 160.443 300.017,160.374 283.026,160.360 262.077 L 160.333 223.988 145.003 224.007 L 129.673 224.025 129.528 224.763 M222.000 300.333 L 222.000 304.333 209.667 304.333 L 197.333 304.333 197.333 300.333 L 197.333 296.333 209.667 296.333 L 222.000 296.333 222.000 300.333 M253.021 296.750 C 253.032 296.979,253.069 298.779,253.104 300.750 L 253.167 304.333 240.750 304.333 L 228.333 304.333 228.333 300.333 L 228.333 296.333 240.667 296.333 C 250.300 296.333,253.005 296.425,253.021 296.750 M284.333 300.333 L 284.333 304.333 272.000 304.333 L 259.667 304.333 259.667 300.333 L 259.667 296.333 272.000 296.333 L 284.333 296.333 284.333 300.333 M221.333 313.333 L 221.333 317.333 209.000 317.333 L 196.667 317.333 196.667 313.333 L 196.667 309.333 209.000 309.333 L 221.333 309.333 221.333 313.333 M252.333 313.333 L 252.333 317.333 240.000 317.333 L 227.667 317.333 227.667 313.333 L 227.667 309.333 240.000 309.333 L 252.333 309.333 252.333 313.333 M283.667 313.333 L 283.667 317.333 271.333 317.333 L 259.000 317.333 258.971 314.750 C 258.956 313.329,258.901 311.642,258.850 311.000 C 258.799 310.358,258.820 309.721,258.898 309.583 C 258.976 309.446,264.580 309.333,271.353 309.333 L 283.667 309.333 283.667 313.333 " stroke="none" fill="#fbfbfb" fill-rule="evenodd"></path><path id="path2" d="M192.509 57.705 C 185.790 58.683,183.531 62.148,183.516 71.500 C 183.499 81.917,186.403 85.447,195.000 85.457 C 201.576 85.466,204.958 82.856,206.450 76.620 C 206.684 75.644,206.601 75.613,202.593 75.147 L 200.686 74.926 200.464 76.314 C 199.651 81.401,192.510 82.510,189.833 77.965 C 188.738 76.106,188.839 67.071,189.978 65.083 C 192.372 60.903,198.884 61.521,200.042 66.038 C 200.508 67.857,200.358 67.808,203.848 67.289 L 206.391 66.910 206.172 65.705 C 205.312 60.956,202.609 58.375,197.762 57.674 C 195.220 57.306,195.247 57.306,192.509 57.705 M217.995 57.674 C 211.581 58.659,208.664 63.039,208.675 71.667 C 208.687 81.234,213.127 85.960,221.667 85.497 C 228.598 85.121,232.151 80.996,232.573 72.833 C 233.158 61.529,227.977 56.142,217.995 57.674 M224.260 63.228 C 227.839 65.901,228.212 76.322,224.834 79.288 C 221.600 82.127,216.749 81.080,215.014 77.167 C 213.746 74.305,214.319 66.194,215.924 64.286 C 217.652 62.233,222.160 61.661,224.260 63.228 M240.197 77.172 C 237.827 78.075,235.667 80.341,235.667 81.924 C 235.667 82.945,239.644 82.703,240.608 81.624 C 242.651 79.337,247.000 80.058,247.000 82.683 C 247.000 83.987,246.038 84.879,242.174 87.157 C 236.967 90.226,235.667 91.986,235.667 95.967 L 235.667 98.333 243.500 98.333 L 251.333 98.333 251.333 96.500 L 251.333 94.667 245.667 94.667 C 241.246 94.667,240.000 94.572,240.000 94.234 C 240.000 93.503,242.366 91.476,245.167 89.806 C 251.237 86.187,252.962 82.848,250.582 79.317 C 248.976 76.934,243.688 75.842,240.197 77.172 " stroke="none" fill="#050505" fill-rule="evenodd"></path><path id="path3" d="M189.917 4.569 C 190.329 4.648,191.004 4.648,191.417 4.569 C 191.829 4.489,191.492 4.424,190.667 4.424 C 189.842 4.424,189.504 4.489,189.917 4.569 M218.417 29.230 C 218.737 29.314,219.262 29.314,219.583 29.230 C 219.904 29.146,219.642 29.077,219.000 29.077 C 218.358 29.077,218.096 29.146,218.417 29.230 M256.667 42.121 C 256.667 42.213,257.117 42.608,257.667 43.000 C 258.217 43.392,258.667 43.637,258.667 43.545 C 258.667 43.454,258.217 43.058,257.667 42.667 C 257.117 42.275,256.667 42.030,256.667 42.121 M162.154 48.083 L 160.500 49.833 162.250 48.179 C 163.212 47.269,164.000 46.482,164.000 46.429 C 164.000 46.180,163.691 46.457,162.154 48.083 M263.500 48.000 C 264.216 48.733,264.877 49.333,264.969 49.333 C 265.060 49.333,264.549 48.733,263.833 48.000 C 263.117 47.267,262.456 46.667,262.365 46.667 C 262.273 46.667,262.784 47.267,263.500 48.000 M333.667 57.438 C 333.667 57.495,334.154 57.983,334.750 58.521 L 335.833 59.500 334.854 58.417 C 333.942 57.407,333.667 57.180,333.667 57.438 M59.479 62.417 L 58.500 63.500 59.583 62.521 C 60.593 61.608,60.820 61.333,60.562 61.333 C 60.505 61.333,60.017 61.821,59.479 62.417 M194.417 62.563 C 194.737 62.647,195.262 62.647,195.583 62.563 C 195.904 62.479,195.642 62.411,195.000 62.411 C 194.358 62.411,194.096 62.479,194.417 62.563 M220.083 62.563 C 220.404 62.647,220.929 62.647,221.250 62.563 C 221.571 62.479,221.308 62.411,220.667 62.411 C 220.025 62.411,219.762 62.479,220.083 62.563 M146.583 66.524 C 145.337 67.200,145.413 67.482,146.667 66.833 C 147.217 66.549,147.667 66.245,147.667 66.158 C 147.667 65.944,147.631 65.956,146.583 66.524 M214.448 71.500 C 214.449 72.967,214.507 73.525,214.578 72.741 C 214.648 71.957,214.647 70.757,214.576 70.075 C 214.504 69.392,214.446 70.033,214.448 71.500 M232.762 71.500 C 232.765 72.417,232.829 72.752,232.906 72.245 C 232.982 71.739,232.980 70.989,232.901 70.579 C 232.822 70.169,232.760 70.583,232.762 71.500 M135.823 74.750 L 133.833 76.833 135.917 74.844 C 137.852 72.996,138.153 72.667,137.906 72.667 C 137.855 72.667,136.917 73.604,135.823 74.750 M276.077 73.667 C 276.077 74.308,276.146 74.571,276.230 74.250 C 276.314 73.929,276.314 73.404,276.230 73.083 C 276.146 72.762,276.077 73.025,276.077 73.667 M243.250 76.569 C 243.662 76.648,244.338 76.648,244.750 76.569 C 245.162 76.489,244.825 76.424,244.000 76.424 C 243.175 76.424,242.838 76.489,243.250 76.569 M276.077 79.667 C 276.077 80.308,276.146 80.571,276.230 80.250 C 276.314 79.929,276.314 79.404,276.230 79.083 C 276.146 78.762,276.077 79.025,276.077 79.667 M243.417 80.563 C 243.737 80.647,244.262 80.647,244.583 80.563 C 244.904 80.479,244.642 80.411,244.000 80.411 C 243.358 80.411,243.096 80.479,243.417 80.563 M251.417 82.500 C 251.421 83.233,251.489 83.494,251.569 83.079 C 251.649 82.665,251.646 82.065,251.562 81.746 C 251.479 81.427,251.414 81.767,251.417 82.500 M123.417 101.833 C 123.421 102.567,123.489 102.827,123.569 102.413 C 123.649 101.998,123.646 101.398,123.562 101.079 C 123.479 100.761,123.414 101.100,123.417 101.833 M260.479 108.083 L 259.500 109.167 260.583 108.188 C 261.179 107.649,261.667 107.162,261.667 107.104 C 261.667 106.847,261.392 107.074,260.479 108.083 M207.556 124.222 C 207.433 124.344,207.336 124.607,207.338 124.806 C 207.342 125.043,207.428 125.034,207.590 124.780 C 207.725 124.567,208.285 124.327,208.834 124.247 L 209.833 124.100 208.806 124.050 C 208.240 124.022,207.678 124.100,207.556 124.222 M217.587 124.236 C 218.002 124.315,218.602 124.312,218.921 124.229 C 219.239 124.146,218.900 124.080,218.167 124.084 C 217.433 124.088,217.173 124.156,217.587 124.236 M230.254 126.902 C 230.669 126.982,231.269 126.979,231.587 126.896 C 231.906 126.812,231.567 126.747,230.833 126.751 C 230.100 126.754,229.839 126.823,230.254 126.902 M235.083 126.896 C 235.404 126.980,235.929 126.980,236.250 126.896 C 236.571 126.813,236.308 126.744,235.667 126.744 C 235.025 126.744,234.762 126.813,235.083 126.896 M198.491 137.083 L 196.167 139.500 198.583 137.176 C 199.912 135.897,201.000 134.810,201.000 134.759 C 201.000 134.514,200.650 134.839,198.491 137.083 M205.324 137.583 L 203.167 139.833 205.417 137.676 C 206.654 136.490,207.667 135.477,207.667 135.426 C 207.667 135.181,207.327 135.493,205.324 137.583 M260.833 137.667 C 261.922 138.767,262.887 139.667,262.979 139.667 C 263.071 139.667,262.255 138.767,261.167 137.667 C 260.078 136.567,259.113 135.667,259.021 135.667 C 258.929 135.667,259.745 136.567,260.833 137.667 M125.500 159.333 C 126.403 160.250,127.217 161.000,127.308 161.000 C 127.400 161.000,126.736 160.250,125.833 159.333 C 124.930 158.417,124.117 157.667,124.025 157.667 C 123.933 157.667,124.597 158.417,125.500 159.333 M175.484 165.083 L 174.167 166.500 175.583 165.182 C 176.901 163.957,177.153 163.667,176.901 163.667 C 176.847 163.667,176.209 164.304,175.484 165.083 M143.083 167.896 C 143.404 167.980,143.929 167.980,144.250 167.896 C 144.571 167.813,144.308 167.744,143.667 167.744 C 143.025 167.744,142.762 167.813,143.083 167.896 M148.750 167.896 C 149.071 167.980,149.596 167.980,149.917 167.896 C 150.237 167.813,149.975 167.744,149.333 167.744 C 148.692 167.744,148.429 167.813,148.750 167.896 M171.779 174.333 C 171.779 175.708,171.838 176.271,171.909 175.583 C 171.981 174.896,171.981 173.771,171.909 173.083 C 171.838 172.396,171.779 172.958,171.779 174.333 M260.487 175.083 L 258.833 176.833 260.583 175.179 C 261.546 174.269,262.333 173.482,262.333 173.429 C 262.333 173.180,262.025 173.457,260.487 175.083 M213.000 180.498 C 213.000 180.723,215.708 182.070,215.858 181.919 C 215.928 181.850,215.314 181.466,214.493 181.067 C 213.672 180.668,213.000 180.412,213.000 180.498 M231.595 185.579 C 232.563 185.647,234.063 185.646,234.928 185.578 C 235.793 185.509,235.000 185.454,233.167 185.455 C 231.333 185.456,230.626 185.512,231.595 185.579 M184.083 187.572 C 184.588 187.648,185.412 187.648,185.917 187.572 C 186.421 187.496,186.008 187.433,185.000 187.433 C 183.992 187.433,183.579 187.496,184.083 187.572 M2.751 189.167 C 2.754 189.900,2.823 190.161,2.902 189.746 C 2.982 189.331,2.979 188.731,2.896 188.413 C 2.812 188.094,2.747 188.433,2.751 189.167 M131.889 200.222 C 131.767 200.344,131.669 200.607,131.672 200.806 C 131.675 201.015,131.790 200.989,131.946 200.743 C 132.158 200.409,135.211 200.338,146.409 200.410 C 154.216 200.459,160.534 200.387,160.449 200.250 C 160.258 199.941,132.197 199.914,131.889 200.222 M167.333 228.667 C 167.333 229.217,167.457 229.667,167.609 229.667 C 167.761 229.667,167.818 229.217,167.738 228.667 C 167.657 228.117,167.533 227.667,167.462 227.667 C 167.391 227.667,167.333 228.117,167.333 228.667 M227.990 245.064 L 227.240 246.167 228.154 245.228 C 228.656 244.712,228.994 244.216,228.903 244.126 C 228.813 244.035,228.402 244.458,227.990 245.064 M259.468 244.718 C 259.321 244.957,259.377 245.013,259.615 244.865 C 259.905 244.686,260.000 249.925,260.000 265.980 C 260.000 277.724,260.112 287.333,260.250 287.333 C 260.387 287.333,260.460 277.658,260.412 265.833 C 260.330 245.758,260.228 243.489,259.468 244.718 M290.802 244.718 C 290.654 244.957,290.710 245.013,290.948 244.865 C 291.239 244.686,291.333 255.010,291.333 286.814 C 291.333 310.016,291.446 329.000,291.583 329.000 C 291.721 329.000,291.795 309.950,291.747 286.667 C 291.695 260.742,291.541 244.333,291.350 244.333 C 291.179 244.333,290.932 244.507,290.802 244.718 M257.667 247.333 C 257.275 247.883,257.030 248.333,257.121 248.333 C 257.213 248.333,257.608 247.883,258.000 247.333 C 258.392 246.783,258.637 246.333,258.545 246.333 C 258.454 246.333,258.058 246.783,257.667 247.333 M220.333 255.667 C 219.942 256.217,219.696 256.667,219.788 256.667 C 219.880 256.667,220.275 256.217,220.667 255.667 C 221.058 255.117,221.304 254.667,221.212 254.667 C 221.120 254.667,220.725 255.117,220.333 255.667 M250.000 258.000 C 249.608 258.550,249.363 259.000,249.455 259.000 C 249.546 259.000,249.942 258.550,250.333 258.000 C 250.725 257.450,250.970 257.000,250.879 257.000 C 250.787 257.000,250.392 257.450,250.000 258.000 M280.333 259.333 C 279.942 259.883,279.696 260.333,279.788 260.333 C 279.880 260.333,280.275 259.883,280.667 259.333 C 281.058 258.783,281.304 258.333,281.212 258.333 C 281.120 258.333,280.725 258.783,280.333 259.333 M164.077 262.667 C 164.077 263.308,164.146 263.571,164.230 263.250 C 164.314 262.929,164.314 262.404,164.230 262.083 C 164.146 261.762,164.077 262.025,164.077 262.667 M272.667 270.000 C 272.275 270.550,272.030 271.000,272.121 271.000 C 272.213 271.000,272.608 270.550,273.000 270.000 C 273.392 269.450,273.637 269.000,273.545 269.000 C 273.454 269.000,273.058 269.450,272.667 270.000 M208.333 272.333 C 207.942 272.883,207.696 273.333,207.788 273.333 C 207.880 273.333,208.275 272.883,208.667 272.333 C 209.058 271.783,209.304 271.333,209.212 271.333 C 209.120 271.333,208.725 271.783,208.333 272.333 M162.744 276.333 C 162.744 276.975,162.813 277.237,162.896 276.917 C 162.980 276.596,162.980 276.071,162.896 275.750 C 162.813 275.429,162.744 275.692,162.744 276.333 M235.333 278.333 C 234.942 278.883,234.696 279.333,234.788 279.333 C 234.880 279.333,235.275 278.883,235.667 278.333 C 236.058 277.783,236.304 277.333,236.212 277.333 C 236.120 277.333,235.725 277.783,235.333 278.333 M231.000 284.333 C 230.608 284.883,230.363 285.333,230.455 285.333 C 230.546 285.333,230.942 284.883,231.333 284.333 C 231.725 283.783,231.970 283.333,231.879 283.333 C 231.787 283.333,231.392 283.783,231.000 284.333 M161.744 286.333 C 161.744 286.975,161.813 287.237,161.896 286.917 C 161.980 286.596,161.980 286.071,161.896 285.750 C 161.813 285.429,161.744 285.692,161.744 286.333 M228.392 300.417 C 228.451 304.561,228.581 304.068,228.744 299.083 C 228.793 297.570,228.721 296.332,228.583 296.333 C 228.446 296.333,228.360 298.171,228.392 300.417 M221.128 313.333 C 221.128 315.625,221.182 316.563,221.247 315.417 C 221.312 314.271,221.312 312.396,221.247 311.250 C 221.182 310.104,221.128 311.042,221.128 313.333 M283.462 313.333 C 283.462 315.625,283.515 316.563,283.580 315.417 C 283.645 314.271,283.645 312.396,283.580 311.250 C 283.515 310.104,283.462 311.042,283.462 313.333 M338.315 340.250 L 337.167 341.500 338.417 340.351 C 339.104 339.719,339.667 339.157,339.667 339.101 C 339.667 338.847,339.385 339.087,338.315 340.250 M102.667 343.750 C 102.667 343.887,148.042 344.000,203.500 344.000 C 258.958 344.000,304.333 343.887,304.333 343.750 C 304.333 343.613,258.958 343.500,203.500 343.500 C 148.042 343.500,102.667 343.613,102.667 343.750 M197.589 397.908 C 198.188 397.982,199.088 397.981,199.589 397.905 C 200.090 397.829,199.600 397.768,198.500 397.770 C 197.400 397.772,196.990 397.834,197.589 397.908 M202.589 397.908 C 203.188 397.982,204.088 397.981,204.589 397.905 C 205.090 397.829,204.600 397.768,203.500 397.770 C 202.400 397.772,201.990 397.834,202.589 397.908 " stroke="none" fill="#c4c4c4" fill-rule="evenodd"></path></g></svg>