<svg xmlns="http://www.w3.org/2000/svg" viewBox="0 0 400 400"><defs/><g fill-rule="evenodd"><path d="M190 3c-24 1-54 8-68 16l-3 1a225 225 0 00-32 18 64 64 0 00-8 6 47 47 0 00-5 4l-4 3-17 17-3 3a198 198 0 00102 321 214 214 0 0065 5 243 243 0 0038-7 161 161 0 0017-6 215 215 0 0047-26l3-3 9-6a220 220 0 0027-30 194 194 0 0035-78 182 182 0 00-7-107 226 226 0 00-14-32l-1-1a188 188 0 00-42-50 178 178 0 00-27-20A197 197 0 00190 3m58 44l-10 18-13 22c-9 15-8 14-6 16s1 4-2 6l-2 2a2152 2152 0 0128 116 6314 6314 0 01-29-85l-2-6-1-12v-11l-8 1v213h78l3-155h-5c-5 1-7 0-7-5v-2l6-2c6-1 7-1 5-2-5-3-44-38-43-40a4873 4873 0 0019 13 486 486 0 0134 26l2 1h1v-3l1-3 4-6 27-34-19 33c-8 14-8 13-7 14 2 2 1 4-1 5s-2 0 1 9l19 78-10-26-10-31-4-10v-8c-1-10 0-9-4-9l-3 1v81l1 75h9v15H100v-15h13v-11l2-108h-4c-4 1-5 0-5-4v-2l4-1c5-1 5-1 4-2-3-1-25-21-31-27-4-5-4-5 11 6l23 17c6 5 7 5 7 2l20-28c7-8 7-9-12 24l-3 7c1 2 1 4-1 4v6l15 61-9-26-9-25v-7l-1-6h-2a7 7 0 00-2 0v120h71v-24a88226 88226 0 003-180v-9h-1l-5 1c-8 1-9 0-10-6v-3l1-1 9-2c8-2 8-2 6-3a535 535 0 01-59-52l-1-1h1l36 26a582 582 0 0133 25l4 2c2 0 2 0 2-3l1-5a549 549 0 0137-45" fill="#b3d333"/><path d="M251 41a605 605 0 00-36 46c-5 7-5 6-5 10 0 3 0 3-2 3l-4-2a582 582 0 00-33-25l-36-26-1-1 1 1c5 8 52 50 59 53 2 1 2 1-6 3l-9 2-1 1v2c1 7 2 8 10 7l5-1h1v9a29181 29181 0 00-3 180v24h-71V207a7 7 0 012 0h2l1 6v6l9 26 9 26a1727 1727 0 00-15-67c2 0 2-2 1-4l3-7c19-33 19-32 12-24l-20 28c0 3-1 3-7-2l-23-17c-15-11-15-11-11-6 6 6 28 26 31 27 1 1 1 1-4 2l-4 1v2c0 4 1 4 5 4h4l-2 108v11h-13v15h200v-15h-9V173l-1-2 3-1c4 0 3-1 4 9v8l4 10 10 31 10 26-19-78c-3-9-3-8-1-9s3-3 1-5c-1-1-1 0 7-14l19-33c-1 0-16 18-27 34l-4 6-1 3v2l-1 1-2-1-34-26-15-10a23 23 0 00-4-3c-1 1 38 37 43 40 2 0 2 1-5 2l-6 2v2c1 5 2 6 7 5l5-1-2 156h-79V114l8-1v11l1 12 2 6 6 17 24 68-6-28-3-11a2196 2196 0 00-18-79c3-2 4-4 2-6s-3-1 6-16l13-22 10-18 5-9-2 3" fill="#fbfbfa"/></g></svg>