<svg id="svg" version="1.1" xmlns="http://www.w3.org/2000/svg" xmlns:xlink="http://www.w3.org/1999/xlink" width="400" height="400" viewBox="0, 0, 400,400"><g id="svgg"><path id="path0" d="M189.833 2.685 C 166.296 4.122,135.650 11.296,121.776 18.616 C 121.441 18.793,120.042 19.415,118.667 19.998 C 115.040 21.535,104.702 26.871,100.876 29.180 C 99.066 30.273,96.966 31.528,96.209 31.970 C 94.395 33.028,86.880 38.043,86.667 38.337 C 86.575 38.463,86.131 38.761,85.681 38.999 C 84.975 39.371,81.248 42.162,80.120 43.163 C 79.911 43.348,79.321 43.800,78.808 44.167 C 78.296 44.533,77.416 45.208,76.855 45.666 C 76.293 46.125,75.683 46.607,75.500 46.738 C 75.317 46.869,74.567 47.490,73.833 48.118 C 73.100 48.746,71.450 50.154,70.167 51.247 C 65.478 55.238,57.482 63.136,52.868 68.333 C 51.810 69.525,50.610 70.875,50.203 71.333 C 40.879 81.809,30.128 97.990,23.147 112.054 C 12.820 132.858,6.296 155.099,3.689 178.384 C -1.690 226.438,11.080 275.554,39.161 314.818 C 42.535 319.535,47.614 326.011,50.154 328.833 C 50.813 329.567,52.061 330.977,52.927 331.968 C 55.164 334.529,65.437 344.820,67.933 347.000 C 69.087 348.008,70.962 349.695,72.099 350.747 C 73.236 351.800,74.279 352.663,74.417 352.664 C 74.554 352.665,74.951 352.929,75.298 353.250 C 76.097 353.988,77.327 354.977,78.511 355.833 C 79.018 356.200,79.898 356.910,80.466 357.411 C 81.035 357.913,81.589 358.325,81.698 358.328 C 81.807 358.331,82.332 358.713,82.865 359.177 C 84.412 360.525,91.714 365.455,96.464 368.358 C 98.867 369.828,101.058 371.167,101.333 371.335 C 105.755 374.037,115.858 379.089,122.610 381.974 C 131.263 385.671,145.416 390.421,152.430 391.982 C 164.722 394.718,171.334 395.854,181.000 396.894 C 187.988 397.645,210.339 397.746,217.333 397.057 C 221.785 396.618,230.068 395.539,231.653 395.191 C 232.104 395.092,233.079 394.928,233.820 394.826 C 238.350 394.204,248.015 392.028,254.500 390.170 C 259.163 388.834,267.798 385.963,268.150 385.632 C 268.324 385.468,268.699 385.332,268.983 385.331 C 269.268 385.330,269.930 385.105,270.455 384.831 C 270.980 384.557,271.558 384.333,271.740 384.333 C 273.821 384.333,301.536 370.609,302.667 369.019 C 302.758 368.890,303.110 368.682,303.448 368.557 C 303.982 368.360,311.250 363.671,312.167 362.933 C 312.350 362.785,313.719 361.802,315.208 360.749 C 316.698 359.695,318.348 358.495,318.875 358.083 C 319.402 357.670,321.035 356.395,322.505 355.249 C 325.532 352.889,325.708 352.743,330.450 348.653 C 336.753 343.217,350.643 328.980,352.099 326.462 C 352.245 326.209,352.883 325.439,353.517 324.751 C 354.150 324.063,354.753 323.237,354.857 322.917 C 354.960 322.596,355.164 322.333,355.310 322.333 C 355.457 322.333,356.008 321.696,356.537 320.917 C 357.066 320.137,357.587 319.425,357.697 319.333 C 358.993 318.245,367.041 306.222,370.972 299.500 C 381.219 281.978,389.820 259.641,393.507 240.975 C 396.857 224.010,397.490 217.535,397.492 200.167 C 397.495 175.450,394.444 157.190,386.495 134.365 C 384.103 127.495,378.166 113.552,376.333 110.500 C 376.003 109.950,374.950 108.000,373.994 106.167 C 373.038 104.333,371.973 102.435,371.628 101.949 C 371.282 101.462,371.000 100.983,371.000 100.884 C 371.000 100.501,365.605 91.943,362.667 87.667 C 358.603 81.752,352.218 73.527,349.694 70.957 C 349.221 70.475,348.083 69.207,347.167 68.140 C 344.909 65.511,334.636 55.229,332.206 53.165 C 331.127 52.249,329.763 51.050,329.175 50.500 C 326.258 47.773,318.011 41.335,313.802 38.500 C 312.169 37.400,310.758 36.422,310.667 36.328 C 310.367 36.017,304.862 32.462,303.667 31.806 C 303.025 31.455,302.425 31.074,302.333 30.962 C 301.691 30.171,288.224 22.987,283.000 20.649 C 281.258 19.869,279.083 18.892,278.167 18.479 C 273.976 16.588,256.833 10.346,256.833 10.711 C 256.833 10.746,256.083 10.531,255.167 10.233 C 254.250 9.934,253.125 9.610,252.667 9.512 C 252.208 9.415,249.133 8.678,245.833 7.875 C 228.446 3.645,206.871 1.645,189.833 2.685 M248.315 47.400 C 245.512 52.222,240.864 60.217,237.988 65.167 C 235.111 70.117,229.287 80.135,225.045 87.430 C 216.310 102.453,216.920 100.977,218.667 102.872 C 220.868 105.261,220.175 107.389,216.605 109.198 C 215.395 109.811,215.008 110.179,215.131 110.598 C 218.756 122.970,228.089 159.898,234.694 188.000 C 235.792 192.675,236.979 197.700,237.330 199.167 C 241.452 216.376,243.960 227.901,243.387 227.000 C 243.114 226.571,232.093 194.831,219.659 158.667 C 217.673 152.892,215.043 145.317,213.814 141.833 L 211.580 135.500 211.207 124.276 C 211.001 118.103,210.755 112.975,210.660 112.881 C 210.421 112.644,203.255 113.608,202.965 113.917 C 202.835 114.054,202.813 162.054,202.915 220.583 L 203.101 327.000 242.217 327.000 C 263.731 327.000,281.351 326.962,281.373 326.917 C 281.595 326.452,283.847 171.754,283.635 171.525 C 283.462 171.338,281.765 171.460,279.302 171.838 C 273.688 172.699,272.360 171.777,272.225 166.922 L 272.167 164.833 278.255 163.333 C 284.500 161.795,285.003 161.531,283.335 160.667 C 278.124 157.967,239.054 122.502,240.118 121.437 C 240.224 121.332,242.078 122.515,244.239 124.068 C 246.399 125.621,252.892 130.250,258.667 134.355 C 273.863 145.156,288.473 156.251,292.578 160.108 C 293.554 161.024,293.769 161.091,294.850 160.810 L 296.044 160.500 296.118 158.095 C 296.174 156.252,296.355 155.468,296.893 154.741 C 297.279 154.219,299.204 151.551,301.172 148.812 C 312.140 133.551,326.952 114.841,327.574 115.463 C 327.743 115.632,325.626 119.325,308.772 148.277 C 300.604 162.306,301.002 161.450,302.153 162.517 C 303.936 164.169,303.479 166.069,300.995 167.336 C 299.376 168.162,299.269 167.020,301.849 176.500 C 306.443 193.383,320.736 252.486,320.657 254.272 C 320.613 255.249,320.570 255.129,311.215 228.000 C 307.453 217.092,302.703 203.367,300.658 197.500 L 296.941 186.833 296.757 178.916 C 296.537 169.461,296.736 169.931,293.167 170.447 L 290.500 170.833 290.509 173.583 C 290.514 175.096,290.551 210.229,290.592 251.658 L 290.667 326.982 295.417 327.074 L 300.167 327.167 300.167 334.667 L 300.167 342.167 200.167 342.167 L 100.167 342.167 100.167 334.667 L 100.167 327.167 106.530 327.076 L 112.893 326.986 113.100 315.910 C 113.792 279.045,114.748 207.970,114.555 207.778 C 114.430 207.652,112.924 207.742,111.209 207.977 C 106.871 208.573,105.667 207.685,105.667 203.892 L 105.667 202.429 110.333 201.322 C 115.062 200.200,115.524 199.971,114.341 199.337 C 111.218 197.666,89.384 178.244,83.452 171.861 C 79.390 167.490,79.296 167.436,93.833 177.793 C 106.064 186.506,110.806 190.035,117.125 195.127 C 123.541 200.298,124.180 200.485,124.393 197.250 C 124.562 194.688,133.574 181.866,144.014 169.333 C 151.000 160.949,151.416 160.112,132.263 192.962 C 128.309 199.744,128.303 199.758,128.946 200.462 C 130.304 201.948,129.839 203.916,127.991 204.503 C 127.084 204.791,127.146 205.490,128.523 210.503 C 131.939 222.936,136.838 243.034,143.189 270.667 C 144.011 274.242,141.469 267.319,133.831 245.182 L 124.991 219.559 124.745 213.196 L 124.500 206.833 122.500 206.940 C 121.400 206.998,120.387 207.156,120.249 207.291 C 120.111 207.425,120.036 234.377,120.082 267.184 L 120.167 326.833 155.417 326.918 L 190.667 327.003 190.667 324.752 C 190.668 323.513,190.819 313.650,191.003 302.833 C 191.188 292.017,191.854 249.192,192.485 207.667 C 193.115 166.142,193.725 128.154,193.840 123.250 L 194.049 114.333 193.108 114.336 C 192.590 114.337,190.442 114.636,188.333 115.000 C 180.221 116.402,178.585 115.357,178.099 108.468 L 177.905 105.718 179.202 105.380 C 179.916 105.194,183.762 104.253,187.750 103.289 C 195.610 101.389,195.677 101.354,193.583 100.301 C 186.990 96.984,140.198 54.886,134.896 47.500 L 134.178 46.500 135.172 47.131 C 136.542 48.000,163.471 67.122,170.833 72.454 C 184.484 82.340,197.347 92.241,204.035 98.010 C 206.569 100.196,206.823 100.333,208.344 100.333 C 210.354 100.333,210.346 100.348,210.430 96.593 C 210.490 93.928,210.612 93.339,211.309 92.333 C 224.825 72.844,252.315 37.537,253.248 38.470 C 253.338 38.560,251.118 42.579,248.315 47.400 " stroke="none" fill="#b3d333" fill-rule="evenodd"></path><path id="path1" d="M250.934 40.736 C 241.660 51.216,230.795 65.252,215.121 87.000 C 210.066 94.014,210.509 93.109,210.430 96.593 C 210.346 100.348,210.354 100.333,208.344 100.333 C 206.823 100.333,206.569 100.196,204.035 98.010 C 197.347 92.241,184.484 82.340,170.833 72.454 C 163.471 67.122,136.542 48.000,135.172 47.131 L 134.178 46.500 134.896 47.500 C 140.198 54.886,186.990 96.984,193.583 100.301 C 195.677 101.354,195.610 101.389,187.750 103.289 C 183.762 104.253,179.916 105.194,179.202 105.380 L 177.905 105.718 178.099 108.468 C 178.585 115.357,180.221 116.402,188.333 115.000 C 190.442 114.636,192.590 114.337,193.108 114.336 L 194.049 114.333 193.840 123.250 C 193.725 128.154,193.115 166.142,192.485 207.667 C 191.854 249.192,191.188 292.017,191.003 302.833 C 190.819 313.650,190.668 323.513,190.667 324.752 L 190.667 327.003 155.417 326.918 L 120.167 326.833 120.082 267.184 C 120.036 234.377,120.111 207.425,120.249 207.291 C 120.387 207.156,121.400 206.998,122.500 206.940 L 124.500 206.833 124.745 213.196 L 124.991 219.559 133.831 245.182 C 141.469 267.319,144.011 274.242,143.189 270.667 C 136.838 243.034,131.939 222.936,128.523 210.503 C 127.146 205.490,127.084 204.791,127.991 204.503 C 129.839 203.916,130.304 201.948,128.946 200.462 C 128.303 199.758,128.309 199.744,132.263 192.962 C 151.416 160.112,151.000 160.949,144.014 169.333 C 133.574 181.866,124.562 194.688,124.393 197.250 C 124.180 200.485,123.541 200.298,117.125 195.127 C 110.806 190.035,106.064 186.506,93.833 177.793 C 79.296 167.436,79.390 167.490,83.452 171.861 C 89.384 178.244,111.218 197.666,114.341 199.337 C 115.524 199.971,115.062 200.200,110.333 201.322 L 105.667 202.429 105.667 203.892 C 105.667 207.685,106.871 208.573,111.209 207.977 C 112.924 207.742,114.430 207.652,114.555 207.778 C 114.748 207.970,113.792 279.045,113.100 315.910 L 112.893 326.986 106.530 327.076 L 100.167 327.167 100.167 334.667 L 100.167 342.167 200.167 342.167 L 300.167 342.167 300.167 334.667 L 300.167 327.167 295.417 327.074 L 290.667 326.982 290.592 251.658 C 290.551 210.229,290.514 175.096,290.509 173.583 L 290.500 170.833 293.167 170.447 C 296.736 169.931,296.537 169.461,296.757 178.916 L 296.941 186.833 300.658 197.500 C 302.703 203.367,307.453 217.092,311.215 228.000 C 320.570 255.129,320.613 255.249,320.657 254.272 C 320.736 252.486,306.443 193.383,301.849 176.500 C 299.269 167.020,299.376 168.162,300.995 167.336 C 303.479 166.069,303.936 164.169,302.153 162.517 C 301.002 161.450,300.604 162.306,308.772 148.277 C 325.626 119.325,327.743 115.632,327.574 115.463 C 326.952 114.841,312.140 133.551,301.172 148.812 C 299.204 151.551,297.279 154.219,296.893 154.741 C 296.355 155.468,296.174 156.252,296.118 158.095 L 296.044 160.500 294.850 160.810 C 293.769 161.091,293.554 161.024,292.578 160.108 C 288.473 156.251,273.863 145.156,258.667 134.355 C 252.892 130.250,246.399 125.621,244.239 124.068 C 242.078 122.515,240.224 121.332,240.118 121.437 C 239.054 122.502,278.124 157.967,283.335 160.667 C 285.003 161.531,284.500 161.795,278.255 163.333 L 272.167 164.833 272.225 166.922 C 272.360 171.777,273.688 172.699,279.302 171.838 C 281.765 171.460,283.462 171.338,283.635 171.525 C 283.847 171.754,281.595 326.452,281.373 326.917 C 281.351 326.962,263.731 327.000,242.217 327.000 L 203.101 327.000 202.915 220.583 C 202.813 162.054,202.835 114.054,202.965 113.917 C 203.255 113.608,210.421 112.644,210.660 112.881 C 210.755 112.975,211.001 118.103,211.207 124.276 L 211.580 135.500 213.814 141.833 C 215.043 145.317,217.673 152.892,219.659 158.667 C 232.093 194.831,243.114 226.571,243.387 227.000 C 243.960 227.901,241.452 216.376,237.330 199.167 C 236.979 197.700,235.792 192.675,234.694 188.000 C 228.089 159.898,218.756 122.970,215.131 110.598 C 215.008 110.179,215.395 109.811,216.605 109.198 C 220.175 107.389,220.868 105.261,218.667 102.872 C 216.920 100.977,216.310 102.453,225.045 87.430 C 229.287 80.135,235.111 70.117,237.988 65.167 C 240.864 60.217,245.512 52.222,248.315 47.400 C 251.118 42.579,253.338 38.560,253.248 38.470 C 253.158 38.380,252.116 39.400,250.934 40.736 " stroke="none" fill="#fbfbfa" fill-rule="evenodd"></path></g></svg>