<svg id="svg" version="1.1" xmlns="http://www.w3.org/2000/svg" xmlns:xlink="http://www.w3.org/1999/xlink" width="400" height="400" viewBox="0, 0, 400,400"><g id="svgg"><path id="path0" d="M195.555 2.556 C 195.407 2.704,193.609 2.849,191.559 2.877 C 188.058 2.925,186.683 3.004,181.333 3.461 C 180.142 3.563,178.690 3.647,178.108 3.648 C 177.526 3.649,176.955 3.804,176.838 3.992 C 176.721 4.181,176.260 4.244,175.814 4.132 C 175.367 4.020,174.739 4.042,174.417 4.180 C 173.888 4.409,172.388 4.587,170.433 4.652 C 170.030 4.666,169.612 4.818,169.506 4.991 C 169.399 5.163,169.124 5.232,168.895 5.144 C 166.750 4.321,131.333 13.652,131.333 15.040 C 131.333 15.223,131.192 15.286,131.020 15.179 C 130.611 14.926,123.000 17.972,123.000 18.388 C 123.000 18.563,122.864 18.622,122.697 18.519 C 121.401 17.718,90.333 34.532,90.333 36.034 C 90.333 36.199,90.221 36.310,90.083 36.280 C 89.534 36.164,88.684 36.760,88.889 37.118 C 89.009 37.328,88.990 37.394,88.846 37.265 C 88.419 36.880,78.356 44.090,77.709 45.245 C 77.561 45.510,77.348 45.675,77.236 45.613 C 76.228 45.053,56.478 63.905,49.942 71.667 C 44.575 78.039,41.008 82.740,41.235 83.139 C 41.348 83.338,41.317 83.388,41.166 83.251 C 40.839 82.955,37.618 87.318,37.867 87.721 C 37.962 87.875,37.878 88.000,37.681 88.000 C 37.140 88.000,31.965 96.002,32.219 96.447 C 32.341 96.659,32.317 96.721,32.166 96.585 C 31.865 96.312,31.700 96.561,28.289 102.455 C 27.001 104.680,25.928 106.762,25.903 107.083 C 25.878 107.404,25.740 107.667,25.597 107.667 C 24.803 107.667,14.733 130.298,15.194 131.045 C 15.292 131.204,15.226 131.333,15.046 131.333 C 14.744 131.333,10.524 143.654,10.233 145.389 C 10.161 145.817,10.012 146.392,9.902 146.667 C 9.377 147.976,8.696 150.778,8.845 151.018 C 8.936 151.166,8.868 151.376,8.693 151.484 C 8.519 151.591,8.377 151.939,8.379 152.257 C 8.382 152.866,8.232 153.510,7.897 154.333 C 7.570 155.139,6.294 160.874,6.370 161.201 C 6.408 161.366,6.356 161.725,6.255 162.000 C 5.794 163.255,5.332 166.275,5.524 166.777 C 5.642 167.084,5.577 167.333,5.379 167.333 C 5.054 167.333,4.971 168.027,4.973 170.750 C 4.973 171.254,4.826 171.667,4.645 171.667 C 4.465 171.667,4.318 172.229,4.319 172.917 C 4.323 174.979,4.166 176.476,3.902 176.896 C 3.765 177.114,3.650 177.714,3.646 178.229 C 3.628 180.856,3.458 182.877,3.225 183.246 C 3.082 183.473,2.959 184.448,2.951 185.413 C 2.943 186.377,2.854 188.967,2.753 191.167 C 2.446 197.867,2.635 209.820,3.128 214.833 C 3.254 216.117,3.358 217.767,3.358 218.500 C 3.359 219.233,3.451 220.058,3.563 220.333 C 3.675 220.608,3.808 221.358,3.859 222.000 C 3.911 222.642,4.026 223.767,4.116 224.500 C 4.205 225.233,4.352 226.433,4.441 227.167 C 4.530 227.900,4.685 228.950,4.784 229.500 C 4.884 230.050,5.050 231.380,5.154 232.456 C 5.258 233.532,5.446 234.579,5.572 234.784 C 5.699 234.988,5.848 235.458,5.905 235.827 C 5.962 236.197,6.086 236.950,6.180 237.500 C 6.274 238.050,6.349 238.830,6.347 239.233 C 6.345 239.637,6.494 240.060,6.677 240.173 C 6.861 240.287,6.925 240.519,6.819 240.690 C 6.714 240.860,6.734 241.172,6.864 241.383 C 6.994 241.594,7.147 242.284,7.204 242.917 C 7.261 243.550,7.476 244.271,7.682 244.519 C 7.889 244.767,7.965 245.121,7.851 245.304 C 7.738 245.487,7.862 246.157,8.128 246.791 C 8.393 247.426,8.533 248.023,8.438 248.117 C 8.344 248.212,8.390 248.486,8.541 248.728 C 8.691 248.969,8.848 249.317,8.888 249.500 C 8.928 249.683,9.041 250.208,9.139 250.667 C 9.723 253.399,10.103 254.691,10.372 254.857 C 10.540 254.961,10.599 255.173,10.503 255.328 C 10.407 255.484,10.504 256.036,10.718 256.555 C 10.932 257.075,11.083 257.612,11.054 257.750 C 11.024 257.887,11.131 258.000,11.292 258.000 C 11.452 258.000,11.583 258.340,11.583 258.755 C 11.583 259.826,12.730 263.333,13.081 263.333 C 13.241 263.333,13.290 263.467,13.189 263.631 C 13.087 263.795,13.255 264.508,13.561 265.215 C 13.867 265.922,14.161 266.725,14.215 267.000 C 14.392 267.906,17.341 275.464,17.590 275.651 C 17.724 275.751,17.886 276.133,17.950 276.500 C 18.014 276.867,18.164 277.242,18.283 277.333 C 18.402 277.425,18.548 277.725,18.606 278.000 C 18.834 279.071,21.768 285.333,22.043 285.333 C 22.203 285.333,22.296 285.449,22.250 285.590 C 21.666 287.389,33.945 307.873,42.176 318.833 C 48.236 326.902,57.798 337.831,58.448 337.429 C 58.625 337.320,58.677 337.381,58.563 337.564 C 58.296 337.997,60.124 339.756,60.493 339.421 C 60.647 339.281,60.679 339.332,60.564 339.535 C 60.301 339.995,61.781 341.432,62.162 341.086 C 62.315 340.947,62.340 341.008,62.218 341.222 C 62.091 341.444,62.546 342.088,63.276 342.722 C 63.980 343.333,66.277 345.412,68.381 347.341 C 74.364 352.828,87.883 363.305,88.695 363.083 C 88.863 363.037,89.000 363.138,89.000 363.306 C 89.000 363.676,96.003 368.202,96.393 368.083 C 96.543 368.037,96.667 368.175,96.667 368.389 C 96.667 368.603,96.764 368.680,96.884 368.561 C 97.003 368.441,97.266 368.557,97.467 368.818 C 97.926 369.412,104.340 373.111,104.912 373.111 C 105.144 373.111,105.333 373.234,105.333 373.383 C 105.333 373.763,108.539 375.350,108.793 375.096 C 108.907 374.982,109.000 375.073,109.000 375.297 C 109.000 375.522,109.150 375.613,109.333 375.500 C 109.517 375.387,109.667 375.462,109.667 375.667 C 109.667 375.872,109.817 375.947,110.000 375.833 C 110.183 375.720,110.333 375.811,110.333 376.036 C 110.333 376.261,110.426 376.352,110.540 376.238 C 110.653 376.125,110.965 376.251,111.233 376.519 C 111.501 376.787,111.858 376.921,112.027 376.817 C 112.195 376.713,112.333 376.795,112.333 377.000 C 112.333 377.205,112.483 377.280,112.667 377.167 C 112.850 377.053,113.000 377.128,113.000 377.333 C 113.000 377.538,113.150 377.613,113.333 377.500 C 113.517 377.387,113.667 377.462,113.667 377.667 C 113.667 377.872,113.817 377.947,114.000 377.833 C 114.183 377.720,114.333 377.761,114.333 377.923 C 114.333 378.221,117.065 379.577,118.000 379.744 C 118.275 379.793,118.590 379.956,118.700 380.106 C 119.026 380.549,128.363 384.355,128.665 384.167 C 128.818 384.073,128.993 384.145,129.055 384.327 C 129.453 385.508,159.432 394.346,160.253 393.525 C 160.355 393.423,160.616 393.486,160.832 393.665 C 161.048 393.845,161.827 394.046,162.563 394.112 C 163.298 394.178,164.044 394.321,164.220 394.430 C 164.396 394.539,165.281 394.707,166.186 394.805 C 167.092 394.903,168.499 395.143,169.312 395.340 C 170.126 395.537,171.101 395.669,171.479 395.633 C 171.857 395.597,172.431 395.682,172.755 395.821 C 173.079 395.961,173.641 395.997,174.005 395.902 C 174.368 395.807,174.752 395.868,174.857 396.038 C 174.961 396.207,175.599 396.343,176.274 396.340 C 176.948 396.337,178.175 396.428,179.000 396.543 C 180.729 396.782,183.052 396.981,186.833 397.213 C 190.178 397.418,209.919 397.421,213.500 397.218 C 214.967 397.134,216.807 397.058,217.590 397.049 C 218.372 397.039,219.197 396.918,219.422 396.779 C 219.646 396.640,220.431 396.495,221.165 396.457 C 221.899 396.418,223.250 396.306,224.167 396.208 C 225.083 396.109,226.186 396.022,226.617 396.013 C 227.048 396.005,227.545 395.909,227.722 395.799 C 227.899 395.690,228.880 395.541,229.902 395.469 C 230.923 395.397,231.945 395.184,232.171 394.997 C 232.397 394.809,232.819 394.746,233.108 394.857 C 233.398 394.968,233.829 394.938,234.067 394.790 C 234.305 394.642,234.838 394.564,235.250 394.617 C 235.662 394.671,236.001 394.591,236.002 394.441 C 236.004 394.290,236.715 394.134,237.582 394.093 C 238.450 394.053,239.212 393.865,239.275 393.675 C 239.338 393.485,239.535 393.418,239.711 393.527 C 240.066 393.747,241.105 393.529,248.708 391.645 C 260.189 388.800,282.333 380.877,282.333 379.615 C 282.333 379.439,282.476 379.382,282.651 379.490 C 283.084 379.758,293.000 374.761,293.000 374.276 C 293.000 374.063,293.098 373.987,293.218 374.106 C 293.733 374.622,311.667 363.790,311.667 362.962 C 311.667 362.800,311.805 362.704,311.974 362.750 C 313.171 363.075,334.628 345.746,334.095 344.885 C 333.986 344.708,334.042 344.654,334.220 344.763 C 335.237 345.392,351.401 327.732,358.869 317.833 C 364.075 310.934,375.060 293.333,374.160 293.333 C 374.046 293.333,374.214 293.072,374.534 292.752 C 375.109 292.176,379.207 283.964,379.400 283.000 C 379.455 282.725,379.595 282.425,379.711 282.333 C 380.246 281.911,384.111 272.616,384.111 271.752 C 384.111 271.522,384.224 271.333,384.362 271.333 C 384.603 271.333,385.108 269.578,384.997 269.126 C 384.967 269.006,385.091 268.816,385.273 268.704 C 385.632 268.481,389.561 257.017,389.740 255.667 C 389.800 255.208,389.954 254.668,390.081 254.466 C 390.368 254.009,393.364 242.124,393.283 241.763 C 393.251 241.618,393.330 241.125,393.460 240.667 C 393.590 240.208,393.736 239.452,393.785 238.986 C 393.835 238.520,393.969 237.986,394.085 237.799 C 394.265 237.508,394.574 235.445,394.778 233.167 C 394.811 232.800,394.950 232.326,395.087 232.113 C 395.305 231.775,395.633 229.235,395.792 226.667 C 395.820 226.208,395.955 225.659,396.090 225.445 C 396.226 225.232,396.342 224.557,396.349 223.945 C 396.370 221.829,396.573 219.831,396.826 219.237 C 396.966 218.909,396.986 218.047,396.870 217.321 C 396.733 216.463,396.786 216.000,397.021 216.000 C 397.250 216.000,397.374 215.114,397.360 213.583 C 397.347 212.254,397.389 206.292,397.454 200.333 C 397.518 194.375,397.483 189.350,397.376 189.167 C 397.184 188.836,397.040 186.124,397.035 182.744 C 397.033 181.778,396.917 180.803,396.776 180.577 C 396.519 180.163,396.358 178.536,396.350 176.274 C 396.348 175.599,396.193 174.952,396.005 174.836 C 395.818 174.721,395.754 174.269,395.863 173.832 C 395.973 173.395,395.950 172.856,395.813 172.633 C 395.675 172.411,395.520 171.352,395.467 170.281 C 395.415 169.209,395.259 168.149,395.120 167.924 C 394.981 167.699,394.817 166.912,394.756 166.174 C 394.694 165.437,394.557 164.608,394.450 164.333 C 394.344 164.058,394.197 163.246,394.124 162.529 C 394.051 161.812,393.830 161.031,393.634 160.794 C 393.437 160.557,393.373 160.206,393.491 160.015 C 393.609 159.823,393.599 159.494,393.469 159.284 C 393.339 159.073,393.182 158.337,393.120 157.648 C 393.058 156.958,392.842 155.968,392.640 155.447 C 392.439 154.926,392.208 153.992,392.128 153.370 C 392.048 152.749,391.883 152.081,391.762 151.885 C 391.641 151.689,391.509 151.222,391.468 150.847 C 391.380 150.030,389.666 143.971,389.392 143.506 C 389.285 143.326,389.176 142.951,389.150 142.673 C 389.045 141.583,388.211 139.333,387.912 139.333 C 387.738 139.333,387.675 139.127,387.771 138.875 C 387.868 138.623,387.743 138.023,387.493 137.541 C 387.244 137.060,387.102 136.667,387.179 136.667 C 387.367 136.667,385.638 131.879,385.374 131.667 C 385.260 131.575,385.158 131.350,385.148 131.167 C 385.102 130.337,384.564 129.000,384.278 129.000 C 384.103 129.000,384.042 128.869,384.141 128.709 C 384.309 128.436,383.041 124.976,382.231 123.500 C 382.030 123.133,381.838 122.683,381.805 122.500 C 381.672 121.758,378.573 115.152,378.270 114.963 C 378.090 114.851,377.954 114.626,377.968 114.463 C 378.019 113.845,377.607 113.000,377.255 113.000 C 377.054 113.000,376.982 112.906,377.097 112.792 C 377.293 112.596,376.149 110.027,375.705 109.667 C 375.592 109.575,375.461 109.309,375.414 109.075 C 375.201 108.025,371.508 101.667,371.111 101.667 C 370.866 101.667,370.667 101.508,370.667 101.314 C 370.667 101.120,370.845 101.071,371.064 101.206 C 371.282 101.341,371.145 100.937,370.758 100.309 C 370.372 99.681,369.390 98.083,368.575 96.758 C 367.761 95.434,366.974 94.459,366.827 94.592 C 366.680 94.725,366.655 94.666,366.771 94.462 C 367.660 92.903,342.990 61.736,341.527 62.569 C 341.329 62.681,341.281 62.647,341.421 62.493 C 341.766 62.113,339.993 60.303,339.532 60.565 C 339.331 60.680,339.278 60.651,339.414 60.501 C 339.752 60.128,339.009 59.288,338.577 59.555 C 338.387 59.673,338.324 59.618,338.438 59.433 C 338.747 58.934,329.963 50.917,323.312 45.626 C 316.605 40.291,306.920 33.525,306.538 33.907 C 306.425 34.019,306.333 33.956,306.333 33.766 C 306.333 33.374,299.720 29.232,299.083 29.226 C 298.854 29.224,298.667 29.088,298.667 28.925 C 298.667 28.761,298.517 28.720,298.333 28.833 C 298.150 28.947,298.000 28.893,298.000 28.713 C 298.000 28.344,292.424 25.222,291.763 25.222 C 291.527 25.222,291.333 25.088,291.333 24.925 C 291.333 24.761,291.183 24.720,291.000 24.833 C 290.817 24.947,290.667 24.891,290.667 24.710 C 290.667 24.295,285.982 21.972,285.609 22.202 C 285.457 22.296,285.333 22.235,285.333 22.066 C 285.333 21.772,279.018 18.775,278.008 18.590 C 277.737 18.540,277.305 18.304,277.048 18.064 C 276.791 17.824,276.375 17.707,276.124 17.804 C 275.872 17.900,275.667 17.855,275.667 17.704 C 275.667 16.761,249.117 7.961,247.798 8.467 C 247.566 8.556,247.328 8.484,247.269 8.306 C 247.209 8.128,246.637 7.929,245.997 7.863 C 245.357 7.797,244.608 7.655,244.333 7.547 C 243.176 7.091,237.517 5.986,237.120 6.139 C 236.882 6.230,236.610 6.178,236.515 6.024 C 236.351 5.759,234.605 5.410,232.000 5.123 C 230.622 4.970,229.486 4.791,227.000 4.331 C 225.992 4.145,224.838 4.069,224.437 4.164 C 224.036 4.258,223.611 4.180,223.493 3.989 C 223.376 3.799,222.729 3.637,222.056 3.631 C 221.384 3.624,220.008 3.551,219.000 3.468 C 217.992 3.385,216.117 3.230,214.833 3.125 C 213.550 3.019,210.925 2.868,209.000 2.789 C 198.606 2.361,195.799 2.312,195.555 2.556 M127.527 102.299 C 129.218 103.067,131.192 105.062,131.658 106.475 L 132.010 107.542 136.255 108.095 C 177.651 113.488,210.902 146.745,216.160 188.014 C 216.345 189.459,216.418 189.546,217.794 189.953 C 224.982 192.075,225.172 202.252,218.083 205.402 C 216.887 205.933,216.667 206.181,216.667 206.999 C 216.667 208.598,215.683 215.619,214.986 219.000 C 207.202 256.730,175.757 286.533,138.167 291.807 C 135.967 292.116,133.701 292.438,133.131 292.524 C 132.306 292.647,131.972 292.954,131.485 294.033 C 128.836 299.907,120.387 300.228,117.041 294.581 C 116.125 293.036,115.720 292.652,114.874 292.526 C 114.302 292.441,112.108 292.126,110.000 291.826 C 75.140 286.864,44.963 260.466,35.017 226.234 C 33.324 220.406,31.674 211.419,31.662 207.957 C 31.655 206.169,31.520 205.971,29.783 205.205 C 23.079 202.250,23.516 192.217,30.448 189.906 L 31.806 189.454 32.541 184.977 C 39.261 144.072,72.936 112.148,113.931 107.819 C 116.001 107.601,116.038 107.579,116.695 106.182 C 118.523 102.292,123.547 100.491,127.527 102.299 M112.667 111.561 C 112.208 111.636,110.483 111.921,108.833 112.193 C 80.139 116.930,54.237 137.120,42.515 163.888 C 39.262 171.315,36.354 181.575,35.794 187.598 L 35.582 189.884 36.574 190.295 C 42.819 192.882,42.558 203.224,36.195 205.324 L 34.954 205.734 35.169 207.950 C 39.205 249.643,70.613 282.648,111.833 288.513 C 116.169 289.130,115.892 289.171,116.325 287.860 C 118.653 280.804,128.679 280.463,131.637 287.339 L 132.367 289.036 133.934 288.828 C 175.618 283.304,206.926 252.843,212.483 212.405 C 213.316 206.341,213.264 205.887,211.640 205.155 C 205.506 202.388,205.702 191.706,211.917 190.119 C 212.875 189.875,212.870 189.480,211.842 183.912 C 204.992 146.827,175.568 118.045,138.333 112.009 C 132.329 111.036,132.589 110.989,131.458 113.250 C 128.225 119.717,118.566 119.266,116.348 112.544 C 115.928 111.272,115.357 111.119,112.667 111.561 M127.513 130.626 C 129.131 131.361,131.444 133.892,131.877 135.402 C 132.188 136.486,132.215 136.499,135.985 137.264 C 176.019 145.388,197.467 188.351,179.869 225.167 C 171.207 243.286,153.829 256.175,133.593 259.490 C 132.494 259.670,132.306 259.847,131.951 261.033 C 129.714 268.498,118.523 268.440,116.279 260.952 C 115.950 259.852,115.733 259.649,114.699 259.468 C 98.331 256.605,84.402 248.386,75.051 236.073 C 47.020 199.163,66.974 146.224,112.286 137.284 L 115.919 136.567 116.656 134.788 C 118.315 130.786,123.494 128.801,127.513 130.626 M318.194 130.632 C 319.984 131.446,321.783 133.335,322.463 135.117 L 323.012 136.553 326.653 137.271 C 375.583 146.926,393.720 207.504,358.128 242.404 C 331.484 268.530,287.610 265.266,265.345 235.500 C 237.879 198.782,258.018 146.131,302.909 137.291 C 306.601 136.564,306.657 136.539,307.010 135.470 C 308.461 131.074,313.944 128.702,318.194 130.632 M111.165 141.152 C 78.423 148.735,58.683 182.130,67.961 214.240 C 73.727 234.196,89.598 249.661,109.449 254.666 C 115.652 256.230,116.147 256.255,116.655 255.028 C 119.137 249.037,128.349 248.874,131.380 254.768 C 132.152 256.269,132.515 256.264,138.850 254.651 C 159.994 249.266,176.962 231.412,181.345 209.936 C 187.743 178.590,167.755 147.922,136.410 140.991 C 132.420 140.109,132.165 140.131,131.640 141.399 C 129.029 147.701,119.816 147.840,116.646 141.626 C 115.863 140.092,115.775 140.085,111.165 141.152 M302.333 141.028 C 260.717 150.412,242.585 199.385,268.173 233.293 C 294.539 268.232,348.560 262.774,367.500 223.258 C 383.722 189.411,363.919 148.980,327.225 141.030 C 322.995 140.113,322.834 140.125,322.306 141.399 C 320.756 145.141,316.302 147.138,312.205 145.928 C 310.604 145.455,307.481 142.539,307.146 141.204 C 306.880 140.145,306.340 140.125,302.333 141.028 M128.432 181.163 C 141.540 184.577,146.081 200.954,136.553 210.453 C 125.330 221.642,106.720 213.856,106.675 197.952 C 106.643 186.675,117.483 178.311,128.432 181.163 M320.217 181.506 C 332.760 185.717,336.457 201.143,327.167 210.505 C 316.158 221.599,297.313 213.707,297.337 198.013 C 297.356 186.188,309.044 177.756,320.217 181.506 " stroke="none" fill="#04abc4" fill-rule="evenodd"></path><path id="path1" d="M121.000 102.695 C 119.054 103.577,118.116 104.476,117.139 106.395 C 116.397 107.854,116.238 107.972,114.755 108.172 C 71.399 114.012,39.911 143.664,32.991 185.167 C 32.139 190.278,32.325 189.877,30.569 190.398 C 23.922 192.373,23.663 201.961,30.179 204.851 L 31.858 205.596 32.261 209.620 C 36.436 251.382,69.688 285.952,111.000 291.482 C 116.739 292.250,116.470 292.160,116.940 293.461 C 119.213 299.744,128.145 299.717,131.303 293.417 C 131.901 292.225,132.171 292.000,133.009 292.000 C 133.556 292.000,135.541 291.770,137.419 291.489 C 180.060 285.108,212.096 251.061,216.169 207.794 L 216.392 205.421 217.613 205.053 C 224.499 202.978,224.541 192.877,217.673 190.438 C 216.512 190.025,215.931 189.622,215.844 189.167 C 215.775 188.800,215.476 186.925,215.180 185.000 C 209.113 145.481,176.249 113.805,135.817 108.505 C 133.650 108.221,131.853 107.954,131.823 107.911 C 131.793 107.868,131.350 107.052,130.839 106.097 C 128.909 102.494,124.673 101.029,121.000 102.695 M116.266 111.085 C 116.457 111.315,116.715 111.912,116.841 112.410 C 118.483 118.954,129.407 118.847,131.390 112.267 C 131.888 110.617,131.996 110.599,137.004 111.334 C 175.841 117.034,206.326 147.039,212.671 185.809 C 213.372 190.098,213.393 190.010,211.496 190.931 C 205.803 193.697,206.206 202.092,212.167 204.896 L 213.500 205.523 213.423 207.511 C 211.866 247.546,175.116 285.638,134.618 289.195 L 132.069 289.419 131.350 287.793 C 128.370 281.055,119.173 281.167,116.801 287.970 L 116.383 289.167 114.095 289.125 C 109.129 289.035,98.140 286.371,91.161 283.564 C 60.707 271.316,39.359 243.987,35.179 211.900 C 34.416 206.043,34.455 205.502,35.680 204.994 C 42.187 202.299,42.521 193.863,36.250 190.631 C 34.752 189.859,34.761 190.012,35.844 184.106 C 42.828 146.007,72.570 117.275,111.167 111.341 C 116.163 110.573,115.853 110.588,116.266 111.085 M121.583 130.809 C 119.150 131.677,117.338 133.686,116.532 136.407 C 116.438 136.722,116.018 137.044,115.598 137.121 C 83.522 143.039,62.914 166.758,62.851 197.833 C 62.789 228.328,84.037 253.895,113.492 258.769 L 116.150 259.209 116.699 260.743 C 119.498 268.568,129.222 268.030,131.798 259.909 C 132.021 259.206,131.983 259.218,136.000 258.493 C 159.501 254.253,179.143 234.929,184.276 211.000 C 191.494 177.351,169.244 143.903,135.500 137.676 C 134.400 137.473,133.166 137.236,132.757 137.149 C 132.253 137.042,131.791 136.472,131.320 135.376 C 129.615 131.413,125.413 129.442,121.583 130.809 M312.588 130.665 C 310.214 131.380,307.333 134.334,307.333 136.054 C 307.333 136.810,306.578 137.190,304.500 137.482 C 266.409 142.820,242.691 186.061,258.124 222.033 C 280.525 274.247,355.772 271.012,373.332 217.081 C 384.822 181.790,361.141 142.656,325.167 137.488 C 322.925 137.165,322.428 136.858,322.157 135.625 C 321.410 132.220,316.271 129.556,312.588 130.665 M116.989 141.134 C 118.953 147.084,128.503 147.240,131.153 141.365 C 131.935 139.629,131.908 139.634,136.167 140.497 C 156.153 144.548,173.015 159.384,179.774 178.864 C 191.241 211.915,170.940 248.260,136.892 255.637 C 132.266 256.639,131.816 256.597,131.037 255.083 C 128.071 249.316,119.419 249.494,116.984 255.373 L 116.551 256.416 114.526 256.205 C 111.779 255.917,105.795 254.288,102.277 252.869 C 73.217 241.148,58.413 209.071,68.323 179.300 C 74.642 160.318,90.959 145.416,110.428 140.848 C 116.105 139.517,116.461 139.532,116.989 141.134 M307.608 140.975 C 309.791 147.236,319.385 147.313,321.963 141.089 C 322.552 139.667,322.669 139.653,326.833 140.497 C 364.299 148.091,384.597 189.824,367.584 224.280 C 348.270 263.396,294.141 268.457,267.826 233.607 C 241.858 199.215,260.716 149.059,302.833 140.499 C 306.947 139.663,307.158 139.684,307.608 140.975 M121.333 181.223 C 107.830 183.370,102.355 200.269,111.998 210.038 C 121.666 219.833,137.992 214.999,140.831 201.500 C 143.245 190.022,133.001 179.368,121.333 181.223 M310.927 181.518 C 297.951 184.663,293.350 200.760,302.747 210.137 C 312.876 220.247,329.683 214.459,331.745 200.151 C 333.389 188.740,322.253 178.772,310.927 181.518 " stroke="none" fill="#f9fbfb" fill-rule="evenodd"></path><path id="path2" d="M193.083 2.896 C 193.404 2.980,193.929 2.980,194.250 2.896 C 194.571 2.813,194.308 2.744,193.667 2.744 C 193.025 2.744,192.762 2.813,193.083 2.896 M206.083 2.896 C 206.404 2.980,206.929 2.980,207.250 2.896 C 207.571 2.813,207.308 2.744,206.667 2.744 C 206.025 2.744,205.762 2.813,206.083 2.896 M120.512 102.352 C 118.730 103.241,117.494 104.481,116.695 106.182 C 116.038 107.579,116.001 107.601,113.931 107.819 C 72.936 112.148,39.261 144.072,32.541 184.977 L 31.806 189.454 30.448 189.906 C 23.516 192.217,23.079 202.250,29.783 205.205 C 31.520 205.971,31.655 206.169,31.662 207.957 C 31.674 211.419,33.324 220.406,35.017 226.234 C 44.963 260.466,75.140 286.864,110.000 291.826 C 112.108 292.126,114.302 292.441,114.874 292.526 C 115.720 292.652,116.125 293.036,117.041 294.581 C 120.387 300.228,128.836 299.907,131.485 294.033 C 131.972 292.954,132.306 292.647,133.131 292.524 C 133.701 292.438,135.967 292.116,138.167 291.807 C 175.757 286.533,207.202 256.730,214.986 219.000 C 215.683 215.619,216.667 208.598,216.667 206.999 C 216.667 206.181,216.887 205.933,218.083 205.402 C 225.172 202.252,224.982 192.075,217.794 189.953 C 216.418 189.546,216.345 189.459,216.160 188.014 C 210.902 146.745,177.651 113.488,136.255 108.095 L 132.010 107.542 131.658 106.475 C 130.391 102.634,124.394 100.416,120.512 102.352 M126.307 102.326 C 128.177 102.862,129.853 104.257,130.839 106.097 C 131.350 107.052,131.793 107.868,131.823 107.911 C 131.853 107.954,133.650 108.221,135.817 108.505 C 176.249 113.805,209.113 145.481,215.180 185.000 C 215.476 186.925,215.775 188.800,215.844 189.167 C 215.931 189.622,216.512 190.025,217.673 190.438 C 224.541 192.877,224.499 202.978,217.613 205.053 L 216.392 205.421 216.169 207.794 C 212.096 251.061,180.060 285.108,137.419 291.489 C 135.541 291.770,133.556 292.000,133.009 292.000 C 132.171 292.000,131.901 292.225,131.303 293.417 C 128.145 299.717,119.213 299.744,116.940 293.461 C 116.470 292.160,116.739 292.250,111.000 291.482 C 69.688 285.952,36.436 251.382,32.261 209.620 L 31.858 205.596 30.179 204.851 C 23.663 201.961,23.922 192.373,30.569 190.398 C 32.325 189.877,32.139 190.278,32.991 185.167 C 39.911 143.664,71.399 114.012,114.755 108.172 C 116.238 107.972,116.397 107.854,117.139 106.395 C 118.914 102.907,122.612 101.266,126.307 102.326 M111.167 111.341 C 72.570 117.275,42.828 146.007,35.844 184.106 C 34.761 190.012,34.752 189.859,36.250 190.631 C 42.521 193.863,42.187 202.299,35.680 204.994 C 34.455 205.502,34.416 206.043,35.179 211.900 C 39.359 243.987,60.707 271.316,91.161 283.564 C 98.140 286.371,109.129 289.035,114.095 289.125 L 116.383 289.167 116.801 287.970 C 119.173 281.167,128.370 281.055,131.350 287.793 L 132.069 289.419 134.618 289.195 C 175.116 285.638,211.866 247.546,213.423 207.511 L 213.500 205.523 212.167 204.896 C 206.206 202.092,205.803 193.697,211.496 190.931 C 213.393 190.010,213.372 190.098,212.671 185.809 C 206.326 147.039,175.841 117.034,137.004 111.334 C 131.996 110.599,131.888 110.617,131.390 112.267 C 129.407 118.847,118.483 118.954,116.841 112.410 C 116.569 111.329,116.059 110.656,115.543 110.696 C 115.336 110.712,113.367 111.003,111.167 111.341 M116.348 112.544 C 118.566 119.266,128.225 119.717,131.458 113.250 C 132.589 110.989,132.329 111.036,138.333 112.009 C 175.568 118.045,204.992 146.827,211.842 183.912 C 212.870 189.480,212.875 189.875,211.917 190.119 C 205.702 191.706,205.506 202.388,211.640 205.155 C 213.264 205.887,213.316 206.341,212.483 212.405 C 206.926 252.843,175.618 283.304,133.934 288.828 L 132.367 289.036 131.637 287.339 C 128.679 280.463,118.653 280.804,116.325 287.860 C 115.892 289.171,116.169 289.130,111.833 288.513 C 70.613 282.648,39.205 249.643,35.169 207.950 L 34.954 205.734 36.195 205.324 C 42.558 203.224,42.819 192.882,36.574 190.295 L 35.582 189.884 35.794 187.598 C 36.354 181.575,39.262 171.315,42.515 163.888 C 54.237 137.120,80.139 116.930,108.833 112.193 C 110.483 111.921,112.208 111.636,112.667 111.561 C 115.357 111.119,115.928 111.272,116.348 112.544 M120.833 130.622 C 118.743 131.575,117.456 132.859,116.656 134.788 L 115.919 136.567 112.286 137.284 C 66.974 146.224,47.020 199.163,75.051 236.073 C 84.402 248.386,98.331 256.605,114.699 259.468 C 115.733 259.649,115.950 259.852,116.279 260.952 C 118.523 268.440,129.714 268.498,131.951 261.033 C 132.306 259.847,132.494 259.670,133.593 259.490 C 153.829 256.175,171.207 243.286,179.869 225.167 C 197.467 188.351,176.019 145.388,135.985 137.264 C 132.215 136.499,132.188 136.486,131.877 135.402 C 130.691 131.269,124.907 128.765,120.833 130.622 M311.035 130.878 C 309.183 131.801,307.640 133.562,307.010 135.470 C 306.657 136.539,306.601 136.564,302.909 137.291 C 258.018 146.131,237.879 198.782,265.345 235.500 C 287.610 265.266,331.484 268.530,358.128 242.404 C 393.720 207.504,375.583 146.926,326.653 137.271 L 323.012 136.553 322.463 135.117 C 320.772 130.688,315.409 128.699,311.035 130.878 M126.708 130.848 C 128.584 131.509,130.441 133.332,131.320 135.376 C 131.791 136.472,132.253 137.042,132.757 137.149 C 133.166 137.236,134.400 137.473,135.500 137.676 C 169.244 143.903,191.494 177.351,184.276 211.000 C 179.143 234.929,159.501 254.253,136.000 258.493 C 131.983 259.218,132.021 259.206,131.798 259.909 C 129.222 268.030,119.498 268.568,116.699 260.743 L 116.150 259.209 113.492 258.769 C 73.241 252.108,50.832 207.461,69.189 170.500 C 78.135 152.486,93.944 141.116,115.598 137.121 C 116.018 137.044,116.438 136.722,116.532 136.407 C 117.925 131.703,122.322 129.301,126.708 130.848 M317.167 130.701 C 318.826 131.153,321.825 134.112,322.157 135.625 C 322.428 136.858,322.925 137.165,325.167 137.488 C 361.141 142.656,384.822 181.790,373.332 217.081 C 355.772 271.012,280.525 274.247,258.124 222.033 C 242.691 186.061,266.409 142.820,304.500 137.482 C 306.578 137.190,307.333 136.810,307.333 136.054 C 307.333 132.602,312.942 129.549,317.167 130.701 M114.833 139.931 C 105.727 141.007,94.352 146.279,85.905 153.338 C 63.735 171.865,58.723 205.583,74.520 229.920 C 83.652 243.987,99.923 254.678,114.526 256.205 L 116.551 256.416 116.984 255.373 C 119.419 249.494,128.071 249.316,131.037 255.083 C 131.816 256.597,132.266 256.639,136.892 255.637 C 170.940 248.260,191.241 211.915,179.774 178.864 C 173.015 159.384,156.153 144.548,136.167 140.497 C 131.908 139.634,131.935 139.629,131.153 141.365 C 128.503 147.240,118.953 147.084,116.989 141.134 C 116.593 139.934,116.282 139.760,114.833 139.931 M302.833 140.499 C 260.716 149.059,241.858 199.215,267.826 233.607 C 289.175 261.880,330.407 265.053,355.779 240.374 C 389.519 207.557,372.784 149.810,326.833 140.497 C 322.669 139.653,322.552 139.667,321.963 141.089 C 319.385 147.313,309.791 147.236,307.608 140.975 C 307.158 139.684,306.947 139.663,302.833 140.499 M116.646 141.626 C 119.816 147.840,129.029 147.701,131.640 141.399 C 132.165 140.131,132.420 140.109,136.410 140.991 C 167.755 147.922,187.743 178.590,181.345 209.936 C 176.962 231.412,159.994 249.266,138.850 254.651 C 132.515 256.264,132.152 256.269,131.380 254.768 C 128.349 248.874,119.137 249.037,116.655 255.028 C 116.147 256.255,115.652 256.230,109.449 254.666 C 89.598 249.661,73.727 234.196,67.961 214.240 C 58.683 182.130,78.423 148.735,111.165 141.152 C 115.775 140.085,115.863 140.092,116.646 141.626 M307.146 141.204 C 307.481 142.539,310.604 145.455,312.205 145.928 C 316.302 147.138,320.756 145.141,322.306 141.399 C 322.834 140.125,322.995 140.113,327.225 141.030 C 363.919 148.980,383.722 189.411,367.500 223.258 C 348.560 262.774,294.539 268.232,268.173 233.293 C 242.585 199.385,260.717 150.412,302.333 141.028 C 306.340 140.125,306.880 140.145,307.146 141.204 M119.133 181.296 C 106.730 184.847,102.471 200.640,111.355 210.137 C 120.957 220.402,138.453 215.492,141.301 201.734 C 143.959 188.891,131.791 177.673,119.133 181.296 M310.230 181.167 C 297.344 184.709,292.985 200.829,302.333 210.367 C 313.281 221.537,332.333 213.788,332.333 198.167 C 332.333 186.731,321.184 178.156,310.230 181.167 M127.969 181.513 C 136.914 183.622,142.700 192.613,140.831 201.500 C 137.992 214.999,121.666 219.833,111.998 210.038 C 100.077 197.962,111.465 177.623,127.969 181.513 M318.587 181.502 C 332.730 184.836,336.622 203.252,324.992 211.813 C 314.645 219.430,300.098 213.484,297.941 200.755 C 295.968 189.110,307.045 178.781,318.587 181.502 M397.463 200.167 C 397.463 202.550,397.517 203.481,397.581 202.236 C 397.645 200.991,397.645 199.041,397.580 197.903 C 397.515 196.765,397.462 197.783,397.463 200.167 M2.757 206.667 C 2.757 207.492,2.822 207.829,2.902 207.417 C 2.981 207.004,2.981 206.329,2.902 205.917 C 2.822 205.504,2.757 205.842,2.757 206.667 M198.750 397.580 C 199.804 397.646,201.529 397.646,202.583 397.580 C 203.637 397.514,202.775 397.459,200.667 397.459 C 198.558 397.459,197.696 397.514,198.750 397.580 " stroke="none" fill="#5ec8d5" fill-rule="evenodd"></path></g></svg>