<svg xmlns="http://www.w3.org/2000/svg" viewBox="0 0 400 400"><defs/><g fill-rule="evenodd"><path d="M195.6 2.6l-4 .3a113.3 113.3 0 00-17.2 1.3c-.5.2-2 .4-4 .5-.4 0-.8.1-.9.3a187.7 187.7 0 00-46.8 13.5 171.3 171.3 0 00-33.8 18.6c.1.2 0 .3 0 .2a55.7 55.7 0 00-11.7 8.3c-1-.5-20.7 18.3-27.3 26a67.4 67.4 0 00-8.7 11.7c-.4-.3-3.6 4-3.3 4.4 0 .2 0 .3-.2.3a37.3 37.3 0 00-5.5 8.6c-.3-.3-.5 0-4 5.9a32.3 32.3 0 00-2.6 5.2A150.8 150.8 0 0015 131.3a127.8 127.8 0 00-7.1 23 56.9 56.9 0 00-1.6 7.7c-.5 1.3-1 4.3-.8 4.8.1.3 0 .5-.1.5-.3 0-.4.7-.4 3.4 0 .6-.2 1-.4 1-.1 0-.3.5-.3 1.2 0 2-.1 3.6-.4 4-.1.2-.3.8-.3 1.3 0 2.7-.1 4.7-.4 5l-.2 2.2-.2 5.8A225.4 225.4 0 004 224.5l.3 2.7a50.6 50.6 0 00.8 5.3 9.9 9.9 0 00.7 3.3 130.1 130.1 0 004.8 20.8l.4 1.1c0 .2 0 .3.2.3s.3.3.3.8c0 1 1.1 4.5 1.5 4.5.1 0 .2.2 0 .3 0 .2.2 1 .5 1.6l.6 1.8a87.4 87.4 0 004.4 11 43.7 43.7 0 003.6 7.6c-.5 1.8 11.7 22.3 20 33.2a123.1 123.1 0 0016.4 18.8c-.3.4 1.5 2.2 1.9 1.8.1-.1.2 0 0 .1-.2.5 1.3 2 1.7 1.6.1-.2.1 0 0 .1-.1.2.3.9 1 1.5l5.2 4.6a156 156 0 0020.6 16 41.6 41.6 0 007.7 5c0 .3 0 .4.2.3a43.2 43.2 0 008.4 4.8c0 .4 3.2 2 3.5 1.7.1-.1.2 0 .2.2s.2.3.3.2c.2-.1.4 0 .4.2s.1.2.3.1c.2 0 .3 0 .3.2 0 .3.1.4.2.2.2 0 .5 0 .7.3.3.3.7.4.8.3.2 0 .3 0 .3.2s.2.3.4.2c.1-.1.3 0 .3.1 0 .2.2.3.3.2.2-.1.4 0 .4.2s.1.2.3.1l.3.1c0 .3 2.8 1.7 3.7 1.8a67.2 67.2 0 0011 4.6 173.3 173.3 0 0037.2 10.5l3.1.5a9 9 0 002.2.3c.4 0 1 0 1.3.2.3.2.8.2 1.2.1l.9.1c0 .2.7.3 1.4.3l2.7.2c1.7.3 4 .5 7.8.7a581 581 0 0030.8-.2c.8 0 1.6 0 1.8-.2a69.1 69.1 0 0013.7-2c.3.2.7.1 1 0 .2-.2.7-.2 1.2-.2.4 0 .7 0 .7-.2 0-.1.7-.3 1.6-.3.8 0 1.6-.2 1.7-.4 0-.2.2-.3.4-.2.4.2 1.4 0 9-1.9 11.5-2.8 33.6-10.7 33.6-12a51.8 51.8 0 0010.9-5.5 109.6 109.6 0 0018.8-11.4 134.4 134.4 0 0022.2-18c1 .7 17.2-17 24.7-26.9a172.2 172.2 0 0015.6-25 77 77 0 005.2-10.5 66 66 0 004.7-11c.2 0 .7-1.7.6-2.2 0 0 0-.3.3-.4a118 118 0 004.8-14.2 171.6 171.6 0 006-29l.2-1.6c0-2 .3-4 .5-4.7.2-.3.2-1.2 0-1.9 0-.8 0-1.3.2-1.3.3 0 .4-.9.4-2.4v-13.3a167.1 167.1 0 00-1.4-25.5c-.2 0-.2-.5-.1-1v-1.2c-.2-.2-.4-1.2-.4-2.3 0-1-.2-2.2-.4-2.4-.1-.2-.3-1-.3-1.7-.1-.8-.2-1.6-.4-1.9l-.3-1.8c0-.7-.3-1.5-.5-1.7-.2-.2-.2-.6-.1-.8v-.7c-.2-.2-.3-1-.4-1.7 0-.6-.3-1.6-.5-2.2l-.5-2c0-.7-.2-1.3-.3-1.5a70.6 70.6 0 00-2.6-9.2c-.2-1.1-1-3.4-1.3-3.4-.2 0-.2-.2-.1-.4 0-.3 0-.9-.3-1.4-.3-.4-.4-.8-.3-.8a26.7 26.7 0 00-2-5.5c-.1-.9-.6-2.2-1-2.2-.1 0-.2-.1 0-.3.1-.3-1.2-3.7-2-5.2l-.4-1a59.4 59.4 0 00-3.8-8c0-.7-.4-1.5-.7-1.5-.2 0-.3 0-.2-.2.2-.2-1-2.8-1.4-3.1l-.3-.6c-.2-1-3.9-7.4-4.3-7.4-.2 0-.4-.2-.4-.4s.1-.2.4 0c.2 0 0-.4-.3-1l-2.2-3.5c-.8-1.4-1.6-2.3-1.8-2.2-.1.1-.1 0 0-.1.9-1.6-23.8-32.8-25.3-32-.2.2-.2.1 0 0 .3-.4-1.5-2.2-2-2-.2.2-.2.2 0 0 .3-.4-.5-1.2-1-1-.1.2-.2.1 0 0 .2-.6-8.5-8.6-15.2-13.9a118.8 118.8 0 00-17-11.8 36.8 36.8 0 00-7.6-4.9c0-.1-.2-.2-.4 0-.2 0-.3 0-.3-.2a26.5 26.5 0 00-6.7-3.8c0-.1-.1-.2-.3 0-.2 0-.3 0-.3-.2 0-.4-4.7-2.7-5-2.5a41 41 0 00-8.6-4.1c-.3-.3-.7-.4-1-.3a160.8 160.8 0 00-31.8-10.3 39.6 39.6 0 00-7.8-1.5c-.1-.2-1.9-.6-4.5-.9a64 64 0 01-5-.8c-1-.2-2.2-.2-2.6-.1-.4 0-.8 0-1-.2 0-.2-.7-.4-1.3-.4l-3.1-.1-4.2-.4-5.8-.3a82.7 82.7 0 00-13.4-.2m-68 99.7a9 9 0 014 4.2l.4 1 4.3.6a93.2 93.2 0 0179.9 80c.1 1.4.2 1.4 1.6 1.9 7.2 2 7.4 12.3.3 15.4-1.2.5-1.4.8-1.4 1.6a93 93 0 01-83.5 85.5c-.9.1-1.2.5-1.7 1.5-2.7 6-11.1 6.2-14.5.6-.9-1.6-1.3-2-2.1-2-.6-.2-2.8-.5-4.9-.8A93.3 93.3 0 0131.7 208c0-1.8-.2-2-2-2.8-6.6-3-6.2-13 .7-15.3l1.4-.4.7-4.5a93 93 0 0181.4-77.2c2.1-.2 2.1-.2 2.8-1.6a8.4 8.4 0 0110.8-3.9m-14.8 9.3l-3.9.6a90 90 0 00-73 75.4l-.2 2.3 1 .4c6.2 2.6 6 13-.4 15l-1.2.4.2 2.3a89.5 89.5 0 0076.6 80.5c4.4.6 4 .7 4.5-.6 2.4-7.1 12.4-7.4 15.3-.6l.8 1.7 1.5-.2c41.7-5.5 73-36 78.6-76.4.8-6 .8-6.5-.9-7.2-6-2.8-5.9-13.5.3-15 1-.3 1-.7 0-6.3a89.3 89.3 0 00-73.6-71.9c-6-1-5.7-1-6.8 1.3-3.3 6.4-13 6-15.2-.8-.4-1.2-1-1.4-3.6-1m14.8 19.1c1.6.8 4 3.3 4.4 4.8.3 1 .3 1.1 4 1.9a62 62 0 01-2.3 122.2c-1.1.2-1.3.3-1.6 1.5-2.3 7.5-13.5 7.4-15.7 0-.3-1.1-.6-1.4-1.6-1.5a62 62 0 01-2.4-122.2l3.6-.7.8-1.8c1.6-4 6.8-6 10.8-4.2m190.7 0a9 9 0 014.3 4.5l.5 1.5 3.7.7a62 62 0 11-61.4 98.2 62 62 0 0137.6-98.2c3.7-.7 3.8-.8 4.1-1.8 1.5-4.4 7-6.8 11.2-4.9m-207 10.6a58.5 58.5 0 00-1.8 113.5c6.3 1.5 6.7 1.6 7.3.3 2.4-6 11.6-6.1 14.7-.2.8 1.5 1.1 1.5 7.4-.1a59 59 0 0042.5-44.8 58.6 58.6 0 00-44.9-69c-4-.8-4.2-.8-4.8.5-2.6 6.3-11.8 6.4-15 .2-.7-1.5-.8-1.5-5.4-.4m191.1-.2a58.4 58.4 0 1024.9 0c-4.2-.9-4.4-.9-4.9.4a8.4 8.4 0 01-10.1 4.5c-1.6-.4-4.7-3.4-5-4.7-.3-1-.9-1-4.9-.2m-173.9 40.2a17.5 17.5 0 018.2 29.3 17.4 17.4 0 01-30-12.5 17.4 17.4 0 0121.8-16.8m191.8.3a17.4 17.4 0 017 29c-11 11.1-29.9 3.2-29.9-12.5a17.4 17.4 0 0123-16.5" fill="#04abc4"/><path d="M121 102.7a7 7 0 00-3.9 3.7c-.7 1.5-.9 1.6-2.3 1.8-43.4 5.8-74.9 35.5-81.8 77-.9 5-.7 4.7-2.4 5.2-6.7 2-7 11.6-.4 14.5l1.7.7.4 4a92.6 92.6 0 0078.7 81.9c5.7.8 5.5.7 6 2 2.2 6.2 11.1 6.2 14.3 0 .6-1.3.9-1.5 1.7-1.5l4.4-.5a92.5 92.5 0 0078.8-83.7l.2-2.4 1.2-.3c6.9-2.1 7-12.2 0-14.7-1-.4-1.7-.8-1.8-1.2l-.6-4.2a92.6 92.6 0 00-83.4-77l-1-1.9c-1.9-3.6-6.1-5-9.8-3.4m-4.7 8.4c.2.2.4.8.5 1.3 1.7 6.6 12.6 6.4 14.6-.1.5-1.7.6-1.7 5.6-1a89.7 89.7 0 0175.7 74.5c.7 4.3.7 4.2-1.2 5.1-5.7 2.8-5.3 11.2.7 14l1.3.6v2c-1.6 40-38.4 78.1-78.9 81.7l-2.5.2-.8-1.6c-3-6.7-12.1-6.6-14.5.2l-.4 1.2H114A90 90 0 0135 212c-.7-6-.6-6.5.6-7a7.8 7.8 0 00.5-14.4c-1.4-.7-1.4-.6-.4-6.5a89.5 89.5 0 0175.4-72.8c5-.7 4.7-.7 5-.2m5.4 19.7a8.2 8.2 0 00-5 5.6c-.2.3-.6.6-1 .7-32 6-52.7 29.7-52.7 60.7-.1 30.5 21.1 56 50.6 61l2.7.4.5 1.5c2.8 7.9 12.5 7.3 15.1-.8.2-.7.2-.7 4.2-1.4a61.8 61.8 0 0048.3-47.5 61.7 61.7 0 00-51.5-73.9c-.5 0-1-.6-1.5-1.7-1.7-4-5.9-6-9.7-4.6m191-.1c-2.4.7-5.3 3.6-5.3 5.4 0 .7-.7 1-2.8 1.4-38 5.3-61.8 48.6-46.4 84.5 22.4 52.2 97.7 49 115.2-5 11.5-35.2-12.2-74.3-48.1-79.5-2.3-.3-2.8-.6-3-1.9-.8-3.4-6-6-9.6-5M117 141.2c2 6 11.5 6.1 14.2.3.7-1.8.7-1.8 5-.9 20 4 36.8 18.9 43.6 38.4a59.1 59.1 0 01-43 76.7c-4.5 1-5 1-5.8-.5-3-5.8-11.6-5.6-14 .3l-.4 1-2-.2a59 59 0 01-4.1-115.4c5.6-1.3 6-1.3 6.5.3m190.6-.1c2.2 6.2 11.8 6.3 14.4 0 .6-1.3.7-1.3 4.8-.5a59 59 0 0140.8 83.8 59 59 0 11-64.8-83.8c4.1-.8 4.4-.8 4.8.5m-186.3 40.2c-13.5 2.2-19 19-9.3 28.8a17 17 0 0028.8-8.5 17.2 17.2 0 00-19.5-20.3m189.6.3a17 17 0 00-8.2 28.6 17 17 0 0029-10 17.2 17.2 0 00-20.8-18.6" fill="#f9fbfb"/><path d="M193 2.9h1.3c.3 0 0-.2-.6-.2-.7 0-1 .1-.6.2m13 0h1.2c.3 0 0-.2-.6-.2-.7 0-1 .1-.6.2m-85.6 99.5a8 8 0 00-3.8 3.8c-.7 1.4-.7 1.4-2.8 1.6A93 93 0 0032.5 185l-.7 4.5-1.4.4c-6.9 2.3-7.3 12.3-.6 15.3 1.7.8 1.9 1 1.9 2.8a93.3 93.3 0 0083.2 84.6c.8 0 1.2.4 2.1 2 3.4 5.6 11.8 5.3 14.5-.6.5-1 .8-1.4 1.6-1.5l5-.7a93 93 0 0078.6-84.8c0-.8.2-1 1.4-1.6 7-3.1 6.9-13.3-.3-15.4-1.4-.5-1.5-.5-1.6-2a93.2 93.2 0 00-80-80l-4.2-.5-.3-1c-1.3-3.9-7.3-6-11.2-4.1m5.8 0c1.9.5 3.6 1.9 4.5 3.7l1 1.8 4 .6a92.6 92.6 0 0180 80.7c.1.4.7.8 1.9 1.2 6.8 2.5 6.8 12.6 0 14.7l-1.3.3-.2 2.4A92.5 92.5 0 01133 292c-.8 0-1.1.2-1.7 1.4-3.2 6.3-12 6.3-14.4 0-.4-1.2-.2-1.1-5.9-2a92.6 92.6 0 01-78.7-81.8l-.4-4-1.7-.7c-6.5-3-6.3-12.5.4-14.5 1.7-.5 1.5-.1 2.4-5.2 7-41.5 38.4-71.2 81.8-77 1.4-.2 1.6-.3 2.3-1.8a7.7 7.7 0 019.2-4m-15.1 9A89.5 89.5 0 0035.8 184c-1 6-1 5.8.5 6.5a7.8 7.8 0 01-.6 14.4c-1.2.5-1.3 1-.5 6.9a90 90 0 0078.9 77.2h2.3l.4-1.1c2.4-6.8 11.6-7 14.5-.2l.8 1.6 2.5-.2c40.5-3.6 77.3-41.7 78.8-81.7l.1-2-1.3-.6c-6-2.8-6.4-11.2-.7-14 1.9-.9 1.9-.8 1.2-5a89.7 89.7 0 00-75.7-74.6c-5-.7-5.1-.7-5.6 1-2 6.5-13 6.7-14.6.1-.2-1-.7-1.7-1.3-1.7l-4.3.6m5.1 1.2c2.3 6.8 12 7.2 15.2.8 1-2.3.8-2.3 6.8-1.3a89.3 89.3 0 0173.5 72c1 5.5 1 5.9.1 6.1-6.2 1.6-6.4 12.3-.3 15 1.7.8 1.7 1.2.9 7.3a89.1 89.1 0 01-78.6 76.4l-1.5.2-.8-1.7c-3-6.8-13-6.5-15.3.6-.4 1.3-.1 1.2-4.5.6A89.5 89.5 0 0135.2 208l-.2-2.2 1.2-.4c6.4-2 6.6-12.4.4-15l-1-.4.2-2.3a90 90 0 0173-75.4l3.9-.6c2.7-.5 3.2-.3 3.6 1m4.5 18c-2 1-3.3 2.3-4.1 4.2l-.8 1.8-3.6.7a62 62 0 002.4 122.2c1 .1 1.3.4 1.6 1.5 2.2 7.4 13.4 7.5 15.7 0 .3-1.2.5-1.3 1.6-1.5a62 62 0 002.4-122.2c-3.8-.8-3.8-.8-4.1-1.9-1.2-4.1-7-6.6-11-4.8m190.1.3a8.2 8.2 0 00-4 4.6c-.3 1-.4 1-4 1.8a62 62 0 1023.7 0l-3.7-.7-.5-1.5A8.3 8.3 0 00311 131m-184.3 0c1.9.6 3.7 2.4 4.6 4.5.5 1 1 1.6 1.5 1.7l2.7.6a61.7 61.7 0 0148.8 73.3 61.8 61.8 0 01-48.3 47.5c-4 .7-4 .7-4.2 1.4-2.6 8.1-12.3 8.7-15.1.8l-.5-1.5-2.7-.4a61.7 61.7 0 012.1-121.7c.4 0 .8-.4 1-.7 1.3-4.7 5.7-7.1 10.1-5.6m190.5-.1c1.6.5 4.6 3.4 5 5 .2 1.2.7 1.5 3 1.8 36 5.2 59.6 44.3 48.1 79.6-17.5 54-92.8 57.1-115.2 5-15.4-36 8.3-79.3 46.4-84.6 2-.3 2.8-.7 2.8-1.4 0-3.5 5.6-6.6 9.9-5.4m-202.4 9.2a59.2 59.2 0 00-40.3 90 59.1 59.1 0 0040 26.3l2 .2.5-1c2.4-6 11-6 14-.3.8 1.5 1.3 1.5 5.9.5a59.1 59.1 0 0042.9-76.7 59.1 59.1 0 00-43.6-38.4c-4.3-.9-4.3-.9-5 .9-2.7 5.8-12.2 5.7-14.2-.3-.4-1.2-.7-1.3-2.2-1.2m188 .6a59 59 0 1053 99.9 59 59 0 00-29-99.9c-4.1-.8-4.2-.8-4.8.6-2.6 6.2-12.2 6.1-14.4-.1-.4-1.3-.7-1.3-4.8-.5m-186.2 1.1c3.2 6.2 12.4 6.1 15-.2.6-1.3.8-1.3 4.8-.4a58.6 58.6 0 0145 69 59 59 0 01-42.6 44.7c-6.3 1.6-6.6 1.6-7.4 0-3-5.8-12.3-5.7-14.7.3-.6 1.3-1 1.2-7.3-.3a58.3 58.3 0 011.8-113.5c4.6-1.1 4.7-1.1 5.4.4m190.5-.4c.4 1.3 3.5 4.3 5.1 4.7a8.4 8.4 0 0010.1-4.5c.5-1.3.7-1.3 5-.4a58.5 58.5 0 11-25 0c4-.9 4.6-.9 4.8.2m-188 40.1a17.6 17.6 0 00-7.7 28.8 17.6 17.6 0 0029.9-8.4c2.7-12.8-9.5-24-22.2-20.4m191.1-.1a17.5 17.5 0 109.2 33.9 17.5 17.5 0 00-9.2-34m-182.2.4c9 2.1 14.7 11.1 12.8 20A17 17 0 01112 210c-12-12-.5-32.4 16-28.5m190.6 0a17.1 17.1 0 016.4 30.3 17 17 0 01-27-11c-2-11.7 9-22 20.6-19.3m78.9 18.7v2a48.5 48.5 0 000-2M2.8 206.7c0 .8 0 1.1.1.7V206l-.1.8m196 190.9" fill="#5ec8d5"/></g></svg>