<svg xmlns="http://www.w3.org/2000/svg" fill="#FFF" viewBox="0 0 24 24"><defs/><path fill="none" d="M0 0h24v24H0z"/><path d="M12 7a5 5 0 100 10 5 5 0 000-10zM2 13h2c.6 0 1-.5 1-1s-.5-1-1-1H2c-.6 0-1 .5-1 1s.4 1 1 1zm18 0h2c.6 0 1-.5 1-1s-.5-1-1-1h-2c-.6 0-1 .5-1 1s.4 1 1 1zM11 2v2c0 .6.5 1 1 1s1-.5 1-1V2c0-.6-.5-1-1-1s-1 .4-1 1zm0 18v2c0 .6.5 1 1 1s1-.5 1-1v-2c0-.6-.5-1-1-1a1 1 0 00-1 1zM6 4.6A1 1 0 104.6 6l1 1a1 1 0 101.5-1.4L6 4.6zm12.4 12.3a1 1 0 10-1.4 1.5l1 1a1 1 0 101.4-1.4l-1-1zm1-11A1 1 0 1018 4.7l-1 1a1 1 0 101.4 1.5l1-1.1zM7.1 18.5A1 1 0 105.6 17l-1 1A1 1 0 106 19.4l1-1z"/></svg>